<?xml version="1.0" encoding="UTF-8"?>
<svg width="100px" height="41px" viewBox="0 0 100 41" version="1.1" xmlns="http://www.w3.org/2000/svg" xmlns:xlink="http://www.w3.org/1999/xlink">
    <!-- Generator: Sketch 48.2 (47327) - http://www.bohemiancoding.com/sketch -->
    <title>car_image</title>
    <desc>Created with Sketch.</desc>
    <defs>
        <path d="M1.26916667,0.770833333 C0.835833333,0.770833333 0.485,1.1225 0.485,1.55583333 L0.485,9.72583333 L24.3666667,9.72583333 L24.3666667,1.55583333 C24.3666667,1.1225 24.0158333,0.770833333 23.5825,0.770833333 L1.26916667,0.770833333 Z M0.485,0.770833333 L24.3666667,0.770833333 L24.3666667,9.72583333 L0.485,9.72583333 L0.485,0.770833333 Z" id="path-1"></path>
    </defs>
    <g id="XL_Dashboard_empty_123" stroke="none" stroke-width="1" fill="none" fill-rule="evenodd" transform="translate(-198.000000, -894.000000)">
        <g id="Group-6" transform="translate(0.000000, 756.000000)">
            <g id="footer" transform="translate(120.000000, 0.000000)">
                <g id="car_image" transform="translate(128.000000, 159.000000) scale(-1, 1) translate(-128.000000, -159.000000) translate(78.000000, 138.000000)">
                    <g id="Group-27" transform="translate(0.000000, 0.164833)">
                        <path d="M23.88025,32.4575 C23.88025,36.9908333 20.20525,40.6666667 15.6710833,40.6666667 C11.13775,40.6666667 7.46191667,36.9908333 7.46191667,32.4575 C7.46191667,27.9241667 11.13775,24.2483333 15.6710833,24.2483333 C20.20525,24.2483333 23.88025,27.9241667 23.88025,32.4575" id="Fill-1" fill="#323C47"></path>
                        <path d="M98.4489167,32.4110833 L1.25,32.5851667 L1.25,18.8351667 C1.25,16.4798103 3.31666667,16.3351667 3.75,16.3351667 L98.4489167,15.99275 L98.4489167,32.4110833 Z" id="Fill-3" fill="#EB5D64"></path>
                        <path d="M70.8951667,32.4575 C70.8951667,36.9908333 67.2201667,40.6666667 62.686,40.6666667 C58.1526667,40.6666667 54.4776667,36.9908333 54.4776667,32.4575 C54.4776667,27.9241667 58.1526667,24.2483333 62.686,24.2483333 C67.2201667,24.2483333 70.8951667,27.9241667 70.8951667,32.4575" id="Fill-5" fill="#323C47"></path>
                        <path d="M98.5075,32.4110833 L28.3591667,32.4110833 L28.3591667,19.5360833 C28.3591667,18.37525 29.2458333,17.40775 30.4016667,17.3060833 L47.015,16.0394167 L98.5075,15.99275 L98.5075,32.4110833 Z" id="Fill-7" fill="#D74B55"></path>
                        <path d="M26.8646667,32.5851667 L26.8646667,28.8351667 L98.75,28.8351667 C99.1841667,28.8351667 99.9996667,29.8005833 99.9996667,30.2330833 L99.9996667,31.6505833 C99.9996667,32.0830833 99.1841667,32.5851667 98.75,32.5851667 L26.8646667,32.5851667 Z" id="Fill-9" fill="#FFFFFF"></path>
                        <path d="M31.25,32.5851667 L1.25,32.5851667 C0.816666667,32.5851667 0.00025,32.0830833 0.00025,31.6505833 L0.00025,30.2330833 C0.00025,29.8005833 0.816666667,28.8351667 1.25,28.8351667 L31.25,28.8351667" id="Fill-11" fill="#F7F6F3"></path>
                        <polygon id="Fill-13" fill="#EB5D64" points="98.5075 16.08625 21.25 16.3351667 28.75 0.0851666667 91.25 0.0851666667"></polygon>
                        <polygon id="Fill-15" fill="#D74B55" points="98.75 16.3351667 47.015 16.08625 55 0.0851666667 91.25 0.0851666667"></polygon>
                        <path d="M47.76125,32.4575 C47.76125,36.9908333 44.08625,40.6666667 39.5520833,40.6666667 C35.01875,40.6666667 31.3429167,36.9908333 31.3429167,32.4575 C31.3429167,27.9241667 35.01875,24.2483333 39.5520833,24.2483333 C44.08625,24.2483333 47.76125,27.9241667 47.76125,32.4575" id="Fill-17" fill="#3F4A59"></path>
                        <path d="M47.015,32.4575 C47.015,36.5791667 43.6741667,39.92 39.5525,39.92 C35.4308333,39.92 32.0891667,36.5791667 32.0891667,32.4575 C32.0891667,28.3366667 35.4308333,24.995 39.5525,24.995 C43.6741667,24.995 47.015,28.3366667 47.015,32.4575" id="Fill-19" fill="#3F4A59"></path>
                        <path d="M43.2836667,32.4575 C43.2836667,34.5191667 41.6128333,36.1891667 39.552,36.1891667 C37.4911667,36.1891667 35.8203333,34.5191667 35.8203333,32.4575 C35.8203333,30.3966667 37.4911667,28.7258333 39.552,28.7258333 C41.6128333,28.7258333 43.2836667,30.3966667 43.2836667,32.4575" id="Fill-21" fill="#FFFFFF"></path>
                        <path d="M91.0449167,32.4575 C91.0449167,36.9908333 87.3699167,40.6666667 82.83575,40.6666667 C78.3024167,40.6666667 74.6265833,36.9908333 74.6265833,32.4575 C74.6265833,27.9241667 78.3024167,24.2483333 82.83575,24.2483333 C87.3699167,24.2483333 91.0449167,27.9241667 91.0449167,32.4575" id="Fill-23" fill="#3F4A59"></path>
                        <path d="M86.5674167,32.4575 C86.5674167,34.5191667 84.8965833,36.1891667 82.83575,36.1891667 C80.7749167,36.1891667 79.1049167,34.5191667 79.1049167,32.4575 C79.1049167,30.3966667 80.7749167,28.7258333 82.83575,28.7258333 C84.8965833,28.7258333 86.5674167,30.3966667 86.5674167,32.4575" id="Fill-25" fill="#FFFFFF"></path>
                    </g>
                    <path d="M49.2541667,16.1973333 L50.38,24.0815 C50.5908333,25.5515 51.85,26.6456667 53.335,26.6456667 L71.6416667,26.6456667 C72.4658333,26.6456667 73.1341667,25.9765 73.1341667,25.1531667 L73.1341667,16.1973333 L49.2541667,16.1973333 Z" id="Fill-28"></path>
                    <g id="Group-34" transform="translate(63.333333, 17.498167)">
                        <path d="M4.54016667,3.18408333 L1.63183333,3.18408333 C1.19766667,3.18408333 0.846833333,2.83325 0.846833333,2.39991667 L0.846833333,0.98325 C0.846833333,0.549916667 1.19766667,0.199083333 1.63183333,0.199083333 L4.54016667,0.199083333 C4.97433333,0.199083333 5.32433333,0.549916667 5.32433333,0.98325 L5.32433333,2.39991667 C5.32433333,2.83325 4.97433333,3.18408333 4.54016667,3.18408333" id="Fill-30" fill="#3F4A59"></path>
                        <path d="M4.93241667,2.43783333 L1.21575,2.43783333 C0.999083333,2.43783333 0.82325,2.26283333 0.82325,2.04533333 L0.82325,1.33783333 C0.82325,1.12033333 0.999083333,0.945333333 1.21575,0.945333333 L4.93241667,0.945333333 C5.14908333,0.945333333 5.32491667,1.12033333 5.32491667,1.33783333 L5.32491667,2.04533333 C5.32491667,2.26283333 5.14908333,2.43783333 4.93241667,2.43783333" id="Fill-32" fill="#F7F6F3"></path>
                    </g>
                    <g id="Group-37" transform="translate(2.500000, 19.164833)">
                        <mask id="mask-2" fill="white">
                            <use xlink:href="#path-1"></use>
                        </mask>
                        <g id="Clip-36"></g>
                        <path d="M1.26916667,0.770833333 C0.835833333,0.770833333 0.485,1.1225 0.485,1.55583333 L0.485,9.72583333 L24.3666667,9.72583333 L24.3666667,1.55583333 C24.3666667,1.1225 24.0158333,0.770833333 23.5825,0.770833333 L1.26916667,0.770833333 Z" id="Fill-35" mask="url(#mask-2)"></path>
                    </g>
                    <g id="Group-66" transform="translate(1.250000, 2.498167)">
                        <path d="M24.0620833,21.9153333 C24.0620833,23.9761667 23.07375,25.647 21.85375,25.647 C20.6345833,25.647 19.6454167,23.9761667 19.6454167,21.9153333 C19.6454167,19.8545 20.6345833,18.1836667 21.85375,18.1836667 C23.07375,18.1836667 24.0620833,19.8545 24.0620833,21.9153333" id="Fill-38" fill="#EFEDE7"></path>
                        <path d="M6.92875,21.9153333 C6.92875,23.9761667 5.93958333,25.647 4.72041667,25.647 C3.50041667,25.647 2.51208333,23.9761667 2.51208333,21.9153333 C2.51208333,19.8545 3.50041667,18.1836667 4.72041667,18.1836667 C5.93958333,18.1836667 6.92875,19.8545 6.92875,21.9153333" id="Fill-40" fill="#EFEDE7"></path>
                        <polygon id="Fill-46" fill="#F8C811" points="7.10542736e-15 26.5018333 7.10542736e-15 25.2518333 2.5 25.2518333 2.5 26.5018333"></polygon>
                        <polygon id="Fill-50" fill="#F8C811" points="24.98175 26.5018333 24.98175 25.25575 28.75 25.25575 28.75 26.5018333"></polygon>
                        <polygon id="Fill-52" fill="#4F6282" points="28.5555 0.2735 22.5 14.0018333 43.75 14.0018333 50.2438333 0.226833333"></polygon>
                        <polygon id="Fill-54" fill="#4F6282" points="53.75 0.2735 48.75 14.0018333 72.5 14.0018333 72.5 0.2735"></polygon>
                        <polygon id="Fill-56" fill="#4F6282" points="88.348 0.2735 93.75 14.0018333 75 14.0018333 75 0.2735"></polygon>
                        <polygon id="Fill-58" fill="#FFFFFF" points="33.0346667 0.2735 27.1096667 13.7068333 33.078 13.7068333 39.0488333 0.226833333"></polygon>
                        <polygon id="Fill-60" fill="#FFFFFF" points="40.4968333 0.2735 34.5718333 13.7068333 36.0626667 13.7068333 42.0326667 0.226833333"></polygon>
                        <path d="M97.2590833,24.9003333 L92.0724167,24.9003333 C91.6399167,24.9003333 91.2890833,24.5495 91.2890833,24.1161667 L91.2890833,19.7145 C91.2890833,19.282 91.6399167,18.9303333 92.0724167,18.9303333 L97.2590833,18.9303333 L97.2590833,24.9003333 Z" id="Fill-62" fill="#EFEDE7"></path>
                        <path d="M93.173,23.4078333 L97.2588333,23.4078333 L97.2588333,20.4228333 L93.173,20.4228333 C92.9563333,20.4228333 92.7813333,20.5986667 92.7813333,20.8153333 L92.7813333,23.0153333 C92.7813333,23.232 92.9563333,23.4078333 93.173,23.4078333" id="Fill-64" fill="#B70F20"></path>
                    </g>
                </g>
            </g>
        </g>
    </g>
</svg>