<?xml version="1.0" encoding="UTF-8"?>
<svg width="91px" height="35px" viewBox="0 0 91 35" version="1.1" xmlns="http://www.w3.org/2000/svg" xmlns:xlink="http://www.w3.org/1999/xlink">
    <!-- Generator: Sketch 48.2 (47327) - http://www.bohemiancoding.com/sketch -->
    <title>cloud_01</title>
    <desc>Created with Sketch.</desc>
    <defs></defs>
    <g id="XL_Dashboard_empty_123" stroke="none" stroke-width="1" fill="none" fill-rule="evenodd" transform="translate(-120.000000, -756.000000)">
        <g id="Group-6" transform="translate(0.000000, 756.000000)" fill="#FFFFFF">
            <g id="footer" transform="translate(120.000000, 0.000000)">
                <path d="M90.8152936,35 L0.115350433,35 C0.0391299546,34.3104989 0,33.6098191 0,32.9 C0,22.4618182 8.46181823,14 18.9,14 C21.4196093,14 23.8240633,14.493038 26.0221474,15.3878991 C30.0531665,6.32182791 39.1383122,0 49.7,0 C62.5519362,0 73.2175395,9.36080374 75.2507309,21.6363323 C76.4581,21.2238317 77.7529106,21 79.1,21 C85.6721885,21 91,26.3278115 91,32.9 C91,33.6165563 90.9366671,34.3183204 90.8152936,35 Z" id="cloud_01"></path>
            </g>
        </g>
    </g>
</svg>