<?xml version="1.0" encoding="UTF-8"?>
<svg width="91px" height="35px" viewBox="0 0 91 35" version="1.1" xmlns="http://www.w3.org/2000/svg" xmlns:xlink="http://www.w3.org/1999/xlink">
    <!-- Generator: Sketch 48.2 (47327) - http://www.bohemiancoding.com/sketch -->
    <title>cloud_03</title>
    <desc>Created with Sketch.</desc>
    <defs></defs>
    <g id="XL_Dashboard_empty_123" stroke="none" stroke-width="1" fill="none" fill-rule="evenodd" transform="translate(-1204.000000, -761.000000)" opacity="0.949999988">
        <g id="Group-6" transform="translate(0.000000, 756.000000)" fill="#FFFFFF">
            <g id="footer" transform="translate(120.000000, 0.000000)">
                <path d="M1174.81529,40 L1084.11535,40 C1084.03913,39.3104989 1084,38.6098191 1084,37.9 C1084,27.4618182 1092.46182,19 1102.9,19 C1105.41961,19 1107.82406,19.493038 1110.02215,20.3878991 C1114.05317,11.3218279 1123.13831,5 1133.7,5 C1146.55194,5 1157.21754,14.3608037 1159.25073,26.6363323 C1160.4581,26.2238317 1161.75291,26 1163.1,26 C1169.67219,26 1175,31.3278115 1175,37.9 C1175,38.6165563 1174.93667,39.3183204 1174.81529,40 Z" id="cloud_03"></path>
            </g>
        </g>
    </g>
</svg>