<?xml version="1.0" encoding="UTF-8"?><svg width="32px" height="32px" viewBox="0 0 32 32" version="1.1" xmlns="http://www.w3.org/2000/svg" xmlns:xlink="http://www.w3.org/1999/xlink"><circle cx="16" cy="16" r="14" stroke="white" stroke-width="3" fill="white" /><g stroke="none" stroke-width="1" fill="none" fill-rule="evenodd"><g transform="translate(-908.000000, -404.000000)" fill-rule="nonzero" fill="#FEC900"><g transform="translate(892.000000, 380.000000)"><g transform="translate(16.000000, 16.000000)"><g transform="translate(0.000000, 8.000000)"><path d="M16.0748453,0.00213333333 L16.0499561,0.00142222222 C16.0328893,0.000711111111 16.016178,0 15.9991111,0 C10.9661663,0 6.16504628,2.41457778 3.15559062,6.45902222 C1.09121212,9.23342222 0,12.5329778 0,16.0003556 C0,19.0556444 0.864720719,22.0259556 2.50029445,24.5902222 C4.09213436,27.0862222 6.33713708,29.0904889 8.99281103,30.3864889 C11.1869687,31.4570667 13.5443283,32 15.9991111,32 C16.0154668,32 16.0318226,31.9992889 16.0481783,31.9989333 L16.0730675,31.9982222 C24.8550317,31.9584 32,24.7815111 32,16.0003556 C31.9996444,7.21884444 24.8550317,0.0419555556 16.0748453,0.00213333333 Z M25.5433949,12.6062222 L15.5048834,22.6449778 C15.3950155,22.7552 15.2723475,22.8554667 15.1407905,22.9425778 C14.7656752,23.1896889 14.3297592,23.3205333 13.880332,23.3205333 C13.2655696,23.3205333 12.6877854,23.0805333 12.2529361,22.6446222 L6.45482728,16.8476444 C5.55881732,15.9502222 5.55881732,14.4903111 6.45447172,13.5939556 C6.88932099,13.1591111 7.46746075,12.9194667 8.0825787,12.9194667 C8.69734108,12.9194667 9.27512528,13.1587556 9.709619,13.5939556 L13.880332,17.7660444 L22.2918032,9.35324444 C22.7259414,8.91875556 23.3037256,8.67946667 23.918488,8.67946667 C24.5332504,8.67946667 25.1110346,8.91875556 25.5448172,9.3536 C25.9789553,9.78808889 26.2182469,10.3655111 26.2178913,10.9802667 C26.2178913,11.5943111 25.9782442,12.1720889 25.5433949,12.6062222 Z"></path></g></g></g></g></g></svg>
