<?xml version="1.0" encoding="UTF-8"?>
<svg width="101px" height="175px" viewBox="0 0 101 175" version="1.1" xmlns="http://www.w3.org/2000/svg" xmlns:xlink="http://www.w3.org/1999/xlink">
    <!-- Generator: Sketch 48.2 (47327) - http://www.bohemiancoding.com/sketch -->
    <title>phone_image</title>
    <desc>Created with Sketch.</desc>
    <defs>
        <rect id="path-1" x="0" y="0" width="87.0911945" height="168.05266" rx="9.07199942"></rect>
        <path d="M9.82799996,8.31599997 L14.3639999,8.31599997 C14.7815272,8.31599997 15.1199999,8.6544727 15.1199999,9.07199997 C15.1199999,9.48952723 14.7815272,9.82799996 14.3639999,9.82799996 L9.82799996,9.82799996 L9.82799996,14.3639999 C9.82799996,14.7815272 9.48952723,15.1199999 9.07199997,15.1199999 C8.6544727,15.1199999 8.31599997,14.7815272 8.31599997,14.3639999 L8.31599997,9.82799996 L3.77999999,9.82799996 C3.36247272,9.82799996 3.02399999,9.48952723 3.02399999,9.07199997 C3.02399999,8.6544727 3.36247272,8.31599997 3.77999999,8.31599997 L8.31599997,8.31599997 L8.31599997,3.77999999 C8.31599997,3.36247272 8.6544727,3.02399999 9.07199997,3.02399999 C9.48952723,3.02399999 9.82799996,3.36247272 9.82799996,3.77999999 L9.82799996,8.31599997 Z" id="path-2"></path>
        <rect id="path-4" x="36.2879977" y="152.526055" width="14.5151991" height="9.13329672" rx="4.56664836"></rect>
    </defs>
    <g id="XL_Dashboard_empty_123" stroke="none" stroke-width="1" fill="none" fill-rule="evenodd" transform="translate(-738.000000, -458.000000)">
        <g id="Group-10-Copy" transform="translate(250.000000, 436.000000)">
            <g id="phone_image" transform="translate(539.197227, 110.013305) rotate(5.000000) translate(-539.197227, -110.013305) translate(495.197227, 25.513305)">
                <g id="Group-2">
                    <g id="Rectangle-8-Copy-11">
                        <use fill="#FFFFFF" fill-rule="evenodd" xlink:href="#path-1"></use>
                        <rect stroke="#003B5A" stroke-width="1.81439988" x="0.907199942" y="0.907199942" width="85.2767946" height="166.23826" rx="9.07199942"></rect>
                    </g>
                    <g id="Icons/General/Plus" transform="translate(34.020000, 97.524000)">
                        <mask id="mask-3" fill="white">
                            <use xlink:href="#path-2"></use>
                        </mask>
                        <use id="plus" fill="#000000" fill-rule="evenodd" xlink:href="#path-2"></use>
                        <g id="Colours/Primary/-Blue" mask="url(#mask-3)" fill="#003B5A" fill-rule="evenodd">
                            <g transform="translate(-0.000000, 0.000000)" id="Rectangle">
                                <rect x="0" y="0" width="17.9625599" height="17.9625599"></rect>
                            </g>
                        </g>
                    </g>
                    <g id="Rectangle-8-Copy-8">
                        <use fill="#FFFFFF" fill-rule="evenodd" xlink:href="#path-4"></use>
                        <rect stroke="#003B5A" stroke-width="1.81439988" x="37.1951976" y="153.433255" width="12.7007992" height="7.31889683" rx="3.65944842"></rect>
                    </g>
                </g>
                <g id="Group-18" transform="translate(19.958399, 66.225596)" fill="#003B5A">
                    <g id="Knab-Logo" transform="translate(0.907200, 0.000000)">
                        <path d="M17.5011189,3.99491998 C16.0079486,3.99491998 15.0577494,4.75307998 14.4856907,5.68619998 L14.446907,5.68619998 L14.4662988,4.17959998 L11.5866133,4.17959998 C11.3345197,4.17959998 11.0921219,4.50035998 11.0921219,4.80167998 L11.0921219,13.9967999 C11.0921219,14.3078399 11.3345197,14.5994399 11.6060052,14.5994399 L14.4662988,14.5994399 L14.4662988,9.43811996 C14.4662988,7.93151997 14.8638312,6.75539997 16.3182178,6.75539997 C17.7144289,6.75539997 17.9180431,7.79543997 17.9180431,9.16595997 L17.9180431,13.9870799 C17.9180431,14.3078399 18.1604408,14.5994399 18.4125345,14.5994399 L21.29222,14.5994399 L21.29222,8.44667997 C21.3019159,5.93891998 20.5165471,3.99491998 17.5011189,3.99491998 L17.5011189,3.99491998 Z" id="Shape"></path>
                        <path d="M39.7532341,3.99491998 C38.3958065,3.99491998 37.4649991,4.48091998 36.9026363,4.98635998 C36.9123322,4.61699998 36.931724,4.06295998 36.931724,3.52835999 L36.931724,0.00971999996 L34.0520385,0.00971999996 C33.7999449,0.00971999996 33.5575471,0.330479999 33.5575471,0.631799998 L33.5575471,13.9967999 C33.5575471,14.3175599 33.7999449,14.6091599 34.0617344,14.6091599 L36.7668935,14.6091599 L36.7571976,13.7537999 C37.5231746,14.4925199 38.5800289,14.8424399 39.7435381,14.8424399 C42.7589664,14.8424399 44.6593649,12.47076 44.6593649,9.40895996 C44.649669,6.33743998 42.7492705,3.99491998 39.7532341,3.99491998 L39.7532341,3.99491998 Z M39.0260407,12.01392 C37.6104378,12.01392 36.6408467,10.91556 36.6408467,9.30203996 C36.6408467,7.69823997 37.6104378,6.59015998 39.0260407,6.59015998 C40.4416437,6.59015998 41.3821471,7.68851997 41.3821471,9.30203996 C41.391843,10.91556 40.4416437,12.01392 39.0260407,12.01392 L39.0260407,12.01392 Z" id="Shape"></path>
                        <path d="M10.4909754,4.17959998 L7.01014347,4.17959998 C6.73865797,4.17959998 6.47686838,4.33511998 6.30234198,4.51007998 L3.44204831,7.63019997 L3.44204831,0.00971999996 L0.572058734,0.00971999996 C0.319965055,0.00971999996 0.077567286,0.330479999 0.077567286,0.622079998 L0.077567286,14.0065199 C0.077567286,14.3078399 0.281181412,14.6091599 0.581754645,14.6091599 L3.46144014,14.6091599 L3.46144014,11.45988 L4.39224757,10.5462 L6.69987432,14.2203599 C6.91318436,14.5216799 7.21375759,14.6091599 7.56281038,14.6091599 L10.8303323,14.6091599 L6.71926615,8.09675997 L10.4909754,4.17959998 L10.4909754,4.17959998 Z" id="Shape"></path>
                        <path d="M31.0269144,5.20019998 C30.202762,4.44203998 29.0877322,3.99491998 27.1485501,3.99491998 C25.4905493,3.99491998 24.0652505,4.44203998 23.134443,4.85027998 C22.8920453,4.95719998 22.7950862,5.28767998 22.8920453,5.53067998 L23.5804549,7.25111997 C24.1040341,6.91091997 25.4323739,6.31799998 26.7704096,6.31799998 C28.1181412,6.31799998 28.9035099,6.89147997 28.9035099,7.98983997 L28.9035099,8.22311997 L26.285614,8.33003997 C24.3658237,8.41751997 22.2327233,9.19511997 22.2327233,11.5182 C22.2327233,13.8412799 24.1719055,14.8424399 26.0141285,14.8424399 C27.701217,14.8424399 28.5447612,13.9579199 28.9907731,13.5107999 L29.0295568,14.2203599 C29.0392527,14.4147599 29.2331709,14.6091599 29.4949605,14.6091599 L32.2776869,14.6091599 L32.2776869,8.72855997 C32.267991,6.96923997 31.831675,5.95835998 31.0269144,5.20019998 L31.0269144,5.20019998 Z M28.9132058,11.73204 C28.6998958,12.09168 28.0890534,12.6846 27.1776378,12.6846 C26.2468304,12.6846 25.5972044,12.1986 25.5972044,11.39184 C25.5972044,10.61424 26.2080467,10.16712 27.2455092,10.11852 L28.9132058,10.0116 L28.9132058,11.73204 L28.9132058,11.73204 L28.9132058,11.73204 Z" id="Shape"></path>
                        <path d="M45.0084177,14.9590799 C44.5236221,14.9590799 44.1357857,14.5799999 44.1357857,14.0842799 C44.1357857,13.5982799 44.5236221,13.2191999 45.0084177,13.2191999 C45.4932132,13.2191999 45.8810496,13.5982799 45.8810496,14.0842799 C45.8713537,14.5799999 45.4932132,14.9590799 45.0084177,14.9590799 L45.0084177,14.9590799 Z M45.0084177,13.3552799 C44.5914935,13.3552799 44.2715285,13.6760399 44.2715285,14.0939999 C44.2715285,14.5119599 44.5914935,14.8327199 45.0084177,14.8327199 C45.4253418,14.8327199 45.7453069,14.5119599 45.7453069,14.0939999 C45.735611,13.6760399 45.4156459,13.3552799 45.0084177,13.3552799 L45.0084177,13.3552799 Z M45.4350377,14.6091599 L45.1829441,14.6091599 L44.969634,14.2106399 L44.862979,14.2106399 L44.862979,14.6091599 L44.6593649,14.6091599 L44.6593649,13.5885599 L45.0181136,13.5885599 C45.2411195,13.5885599 45.3865582,13.7051999 45.3865582,13.8995999 C45.3865582,14.0939999 45.2605114,14.1620399 45.1829441,14.1814799 L45.4350377,14.6091599 L45.4350377,14.6091599 Z M44.9890259,13.7537999 L44.8726749,13.7537999 L44.8726749,14.0356799 L44.9890259,14.0356799 C45.085985,14.0356799 45.1732482,14.0065199 45.1732482,13.8995999 C45.1732482,13.7732399 45.085985,13.7537999 44.9890259,13.7537999 L44.9890259,13.7537999 Z" id="Shape"></path>
                    </g>
                    <text id="Verzekeren" font-family="Intro-Regular, Intro" font-size="9.07199942" font-weight="normal">
                        <tspan x="0" y="23.5151991">Verzekeren</tspan>
                    </text>
                </g>
            </g>
        </g>
    </g>
</svg>