<?xml version="1.0" encoding="UTF-8"?>
<svg width="12px" height="49px" viewBox="0 0 12 49" version="1.1" xmlns="http://www.w3.org/2000/svg" xmlns:xlink="http://www.w3.org/1999/xlink">
    <!-- Generator: Sketch 48.2 (47327) - http://www.bohemiancoding.com/sketch -->
    <title>woman_image</title>
    <desc>Created with Sketch.</desc>
    <defs>
        <polygon id="path-1" points="4.87888889 0.490222222 4.87888889 2.90777778 0.156777778 2.90777778 0.156777778 0.490222222 4.87888889 0.490222222"></polygon>
        <polygon id="path-3" points="6.30133333 1.66638797 6.30133333 0.48825 0.514533333 0.48825 0.514533333 1.66638797"></polygon>
    </defs>
    <g id="XL_Dashboard_empty_123" stroke="none" stroke-width="1" fill="none" fill-rule="evenodd" transform="translate(-1067.000000, -886.000000)">
        <g id="Group-6" transform="translate(0.000000, 756.000000)">
            <g id="footer" transform="translate(120.000000, 0.000000)">
                <g id="woman_image" transform="translate(952.666667, 154.500000) scale(-1, 1) translate(-952.666667, -154.500000) translate(946.666667, 130.000000)">
                    <path d="M4.89330831,0.380034603 C5.21674999,0.766554691 4.77999115,1.28220964 3.9184806,1.53251898 C3.05697005,1.78282833 2.09640079,1.67270991 1.77295911,1.28663206 C1.45026787,0.900554218 1.88702671,0.38445703 2.74853726,0.134147682 C3.61079826,-0.116161665 4.57061707,-0.0060432419 4.89330831,0.380034603" id="Fill-1" fill="#1F110A"></path>
                    <path d="M8.33333333,4.16694625 C8.33333333,6.4679371 6.4679371,8.33333333 4.16694625,8.33333333 C1.86539623,8.33333333 0,6.4679371 0,4.16694625 C0,1.8659554 1.86539623,0 4.16694625,0 C6.4679371,0 8.33333333,1.8659554 8.33333333,4.16694625" id="Fill-3" fill="#1F110A"></path>
                    <path d="M1.58423825,5.63636942 C1.78377085,6.08380557 1.60842402,6.53419092 1.19451755,6.6428901 C0.780061396,6.75158928 0.282054406,6.47731345 0.0825218035,6.0298773 C-0.117010799,5.58328377 0.057786357,5.13247711 0.472242506,5.02377793 C0.886698655,4.91507875 1.38470565,5.18935458 1.58423825,5.63636942" id="Fill-5" fill="#E8B16D"></path>
                    <path d="M3.28325603,8.33333333 C3.28325603,8.33333333 3.29065,9.61132285 2.77172817,10.0746387 C2.25280635,10.5379546 1.66666667,13.3333333 1.66666667,13.3333333 L5,13.3333333 C5,13.3333333 4.43671439,11.4258774 4.43671439,10.9387407 C4.43671439,10.4521995 4.81716744,8.94672066 4.81716744,8.94672066 L4.81716744,8.33333333 L3.28325603,8.33333333 Z" id="Fill-7" fill="#1F110A"></path>
                    <path d="M3.33333333,11.4793269 C3.39203694,11.740131 4.07555613,11.6525171 4.07555613,11.6525171 C4.51147399,11.6545547 5.02411339,11.6504796 4.99912076,11.4182009 L4.98459017,8.08955215 C4.98749629,7.30578135 4.63643711,6.66871289 4.19993803,6.66667536 C3.76343895,6.66395865 3.40714876,7.2983104 3.40482386,8.0820812 L3.33333333,11.4793269 Z" id="Fill-9" fill="#E8B16D"></path>
                    <path d="M8.33333333,5.83333333 C8.33333333,8.13421192 6.4676713,10 4.16666667,10 C1.86566203,10 0,8.13421192 0,5.83333333 C0,3.53245475 1.86566203,1.66666667 4.16666667,1.66666667 C6.4676713,1.66666667 8.33333333,3.53245475 8.33333333,5.83333333" id="Fill-11" fill="#F9C98A"></path>
                    <path d="M8.18280534,4.86449513 C8.79355658,7.10196042 7.49066333,9.3496672 5.27260454,9.88463467 C3.05518662,10.4202046 0.761504901,9.04001261 0.150753664,6.80254732 C-0.460638445,4.56447959 0.842895675,2.3167728 3.0603136,1.78180533 C5.27837239,1.24683786 7.57205411,2.62702983 8.18280534,4.86449513" id="Fill-13" fill="#F9C98A"></path>
                    <path d="M3.945,1.66666667 C3.94416667,1.8066975 3.50166667,2.73081535 3.33333333,3.33333333 C3.33333333,3.33333333 4.10916667,3.28365879 4.11,3.21642686 C4.11,3.1487667 3.945,1.66666667 3.945,1.66666667" id="Fill-15" fill="#FCBC88"></path>
                    <path d="M3.33333333,8.33333333 C3.45349509,9.27574478 4.1519353,10 4.9994223,10 C5.847487,10 6.54650491,9.27574478 6.66666667,8.33333333 L3.33333333,8.33333333 Z" id="Fill-17" fill="#FFFFFF"></path>
                    <path d="M4.16666494,7.0849639 C4.1653588,7.31532103 3.97727489,7.50065085 3.74674148,7.49999828 C3.51686114,7.49934571 3.33138951,7.31271075 3.33334871,7.08235362 C3.33400178,6.85199649 3.5220857,6.66666667 3.75196603,6.66666667 C3.98249944,6.66797181 4.16731801,6.85460676 4.16666494,7.0849639" id="Fill-19" fill="#563829"></path>
                    <path d="M7.49999314,7.08431219 C7.49868701,7.31466885 7.31060425,7.50065086 7.08007224,7.49999829 C6.85084637,7.49869315 6.6647228,7.31205857 6.66668199,7.08170191 C6.66733506,6.85199782 6.85541783,6.66601581 7.08529676,6.66666838 C7.31582877,6.66732095 7.50129927,6.85395552 7.49999314,7.08431219" id="Fill-21" fill="#563829"></path>
                    <path d="M1.67498152,5.19204127 L1.69530673,5.33120793 L1.66666667,5.19454127 C1.66666667,5.19454127 1.66759054,5.19370793 1.66851441,5.19370793 L1.67128603,5.1928746 C1.6759054,5.19204127 1.68422025,5.18954127 1.69438285,5.18620793 C1.71563193,5.17954127 1.74611973,5.17120793 1.78399852,5.16120793 C1.8597561,5.14120793 1.96784922,5.11620793 2.1082779,5.09120793 C2.38821138,5.04120793 2.79563932,4.9953746 3.33333333,5.0003746 L3.31023651,5.4378746 C2.41223208,5.43120793 1.91888396,5.5703746 1.79231338,5.60704127 C1.7710643,5.6128746 1.77014043,5.61454127 1.73872875,5.62120793 L1.73872875,5.62204127 L1.67498152,5.19204127 Z" id="Fill-23" fill="#A97B50"></path>
                    <path d="M1.69127773,3.348643 C1.69127773,3.348643 4.20431415,5.46462513 6.45807418,5.79141522 C6.45807418,5.79141522 8.56663943,6.86310407 8.87388195,8.33333333 C8.87388195,8.33333333 10.98504,6.20626252 9.42614066,2.44524125 C7.86594498,-1.31512773 1.2122646,-0.522612849 1.69127773,3.348643" id="Fill-25" fill="#1F110A"></path>
                    <path d="M1.66666667,6.88174589 C1.66666667,6.88174589 2.61081296,6.67757922 3.03120652,6.66674589 C3.12760883,6.66424589 3.33333333,6.72174589 3.33333333,6.72174589 L3.20214669,7.29424589 L1.66666667,6.88174589 Z" id="Fill-27" fill="#563829"></path>
                    <polygon id="Fill-29" fill="#1E323C" points="5 46.6427294 2.50235449 46.6666667 3.67771708 45.5655513 1.78847241 25.0236742 1.66666667 23.5941884 4.4638036 23.3333333"></polygon>
                    <polygon id="Fill-31" fill="#1E323C" points="6.07812336 48.3333333 8.33333333 48.0234123 7.04681118 46.9355896 7.23793067 25.3086813 5 25"></polygon>
                    <polygon id="Fill-33" fill="#1E323C" points="6.53277492 28.3333333 3.46976331 28.3333333 3.33333333 23.3333333 6.66666667 23.3333333"></polygon>
                    <polygon id="Fill-35" fill="#E86068" points="1.81022516 12.2871046 4.83781954 11.6666667 7.57694261 12.2453945 8.33333333 23.2504924 1.66666667 23.3333333"></polygon>
                    <path d="M6.38553595,22.6962963 C6.64139069,22.7231041 7.68406754,23.0398589 7.84294508,23.2176367 C8.00663709,23.2310406 8.1703291,23.2472663 8.33333333,23.2691358 L8.14556897,20 L1.70243131,20 L1.66666667,23.3333333 C3.49822896,23.0165785 4.51614567,22.4987654 6.38553595,22.6962963" id="Fill-37" fill="#C8393D"></path>
                    <path d="M5,21.1113887 L5,26.6441807 L8.33333333,26.6666667 L7.71047899,13.0220695 C7.7088442,12.5723506 7.35899951,12.0626692 6.80099177,11.8409328 C6.27785952,11.6323131 6.59991281,11.7210077 6.05116887,11.6666667 L5,21.1113887 Z" id="Fill-39" fill="#243A44"></path>
                    <path d="M4.9703999,21.1977523 L3.57738311,14.8729819 C3.48375015,14.5795095 3.41307237,11.641637 3.35810076,11.6668277 C2.3800894,12.113334 2.31605654,12.3117112 2.31726471,13.1952772 L1.66666667,26.6666667 L5,26.6597392 L4.9703999,21.1977523 Z" id="Fill-41" fill="#243A44"></path>
                    <path d="M8.33333333,23.3333333 L7.8576353,13.0740638 C7.85591175,12.606878 7.48707342,12.0774008 6.89877054,11.8470523 C6.34723659,11.6309789 6.68677468,11.7231183 6.10823854,11.6666667 L5,21.4782165 L5.00344709,22.4930478 C6.05825577,22.6753801 7.78294841,23.1380237 8.33333333,23.3333333" id="Fill-43" fill="#1E323C"></path>
                    <path d="M2.55043579,22.9439476 C2.59980496,22.6882508 4.49168038,22.2618795 4.9993905,22.1686698 L5,21.1981555 L3.59450235,14.8731229 C3.50003047,14.5790086 3.42871945,11.6410143 3.37325532,11.6668359 C2.38587188,12.1127308 2.32187481,12.3111163 2.32248431,13.1953487 L1.66666667,26.6666667 L2.12988359,26.6660369 C2.27006765,25.5796403 2.34259767,24.0177483 2.55043579,22.9439476" id="Fill-45" fill="#1E323C"></path>
                    <path d="M10,21.6666667 L9.42548111,15 C9.04902374,17.2103817 8.66694761,19.4522637 8.33333333,21.6666667 L10,21.6666667 Z" id="Fill-47" fill="#1E323C"></path>
                    <path d="M3.33333333,20 C2.9962963,18.4745763 2.49037037,16.607287 2.12518519,15 L1.66666667,20 L3.33333333,20 Z" id="Fill-49" fill="#1E323C"></path>
                    <path d="M2.30160779,12.0286179 C2.50932989,12.1902578 2.77866448,12.3201576 3.02687478,12.4112637 C3.67996714,12.6504909 4.39936627,12.7310169 5.05832649,12.6128728 C5.52775496,12.5288201 5.78476705,12.4624007 6.20959981,12.2425704 C6.37859406,12.1555787 6.56284474,12.0638848 6.74122756,11.9621986 C6.88557681,11.7764596 6.99295857,11.7235592 7,11.7247348 C6.34221336,11.454943 4.85588546,11.0105801 4.40758127,11 C3.97453351,11 2.74345734,11.50608 2,11.6812389 C2.04987678,11.8052609 2.13613426,11.8993059 2.30160779,12.0286179" id="Fill-51" fill="#E8B16D"></path>
                    <path d="M1.31528535,19.5231515 C0.95828193,15.2982912 1.58983129,13.5513565 1.65963904,13.3563886 C1.66245009,13.3486121 1.66432412,13.3436129 1.66526114,13.3408356 C1.66619816,13.3397247 1.66666667,13.3380583 1.66666667,13.3375028 L1.52142906,13.2325201 L1.33215165,11.6666667 C0.749795681,11.9605072 -0.179256524,13.5502456 0.0301667415,18.9326931 C0.0409424352,19.2043151 0.0756120586,19.4881573 0.0920098534,19.779776 C0.374988942,20.1969295 1.24828864,19.9708556 1.31528535,19.5231515" id="Fill-53" fill="#243A44"></path>
                    <polygon id="Fill-55" fill="#009297" points="1.67083333 13.3358333 1.67083333 13.3358333 1.66666667 13.3333333"></polygon>
                    <path d="M8.52504051,19.5727723 C8.39639628,19.9847558 9.80941627,20.1719708 9.8512644,19.7991975 C9.88226301,19.4512759 9.93496065,19.1210264 9.9545931,18.8007176 C10.24753,13.9215304 9.04995032,11.9543924 8.45684357,11.6666667 L8.33336577,12.5624269 C8.55087269,12.4481098 8.33026591,14.051863 8.33336577,14.0601468 C8.40672915,14.2523321 9.02411814,15.6346304 8.52504051,19.5727723" id="Fill-57" fill="#243A44"></path>
                    <path d="M3.39715169,11.6680085 C3.39715169,11.6680085 4.1441623,15.3601163 5,21.6666667 L2.23431412,16.9865391 L3.03305119,15.3607566 L1.66666667,14.6896971 C1.66666667,14.6896971 2.3505307,12.1187966 2.39218057,12.0925433 C2.43651753,12.064369 3.35281473,11.6398343 3.39715169,11.6680085" id="Fill-59" fill="#FBD7CD"></path>
                    <path d="M6.31178421,11.6666667 C5.31570223,17.593477 5.50632911,17.5205456 5,21.6666667 L7.69590115,16.9325761 L6.80003014,15.2932318 L8.33333333,14.6303946 C8.33333333,14.6303946 7.61226643,12.0364872 7.5730862,12.0009896 C7.45629898,11.8938514 6.51446655,11.7163633 6.31178421,11.6666667" id="Fill-61" fill="#FBD7CD"></path>
                    <path d="M3.33333333,18.9751707 C3.33333333,18.9751707 1.838484,18.2371399 1.71618848,18.3438899 C1.59446179,18.4506399 1.71505085,19.906322 1.8839893,19.9868698 C2.05235894,20.0674175 3.12116484,19.7510493 3.12116484,19.7510493 L3.33333333,18.9751707 Z" id="Fill-63" fill="#F9C98A"></path>
                    <path d="M6.66666667,18.9900102 C6.66666667,18.9900102 8.15430619,18.2368203 8.28173348,18.3437247 C8.40856808,18.450629 8.28291885,19.908416 8.10689138,19.9895662 C7.9314566,20.0702304 6.86462348,19.6567048 6.86462348,19.6567048 L6.66666667,18.9900102 Z" id="Fill-65" fill="#F9C98A"></path>
                    <polygon id="Fill-67" fill="#119C9A" points="6.67 18.3383333 6.66666667 18.3341667 6.66666667 18.3333333"></polygon>
                    <path d="M0,19.6828774 C3.49630391,19.6673421 5.53129549,18.6690307 6.00051374,18.3333333 C6.20429831,18.9527187 6.43548249,19.5579196 6.66666667,20.163796 C5.86294489,20.6987504 4.03516283,21.6646403 0.436681223,21.6666667 C-0.0108456774,21.2580209 0.00913320204,19.8112124 0,19.6828774" id="Fill-69" fill="#2C434E"></path>
                    <polygon id="Fill-71" fill="#1E323C" points="6.67 18.3383333 6.66666667 18.3341667 6.66666667 18.3333333"></polygon>
                    <g id="Group-75" transform="translate(1.666667, 18.333333)">
                        <mask id="mask-2" fill="white">
                            <use xlink:href="#path-1"></use>
                        </mask>
                        <g id="Clip-74"></g>
                        <path d="M2.28566667,2.908 C3.58455556,2.64411111 4.424,2.26188889 4.879,2.00577778 C4.65455556,1.50744444 4.41344444,0.999666667 4.21455556,0.490222222 C3.82511111,0.725222222 2.56455556,1.24355556 0.156777778,1.51688889 C0.899555556,1.88522222 1.60955556,2.38466667 2.28566667,2.908" id="Fill-73" fill="#1E323C" mask="url(#mask-2)"></path>
                    </g>
                    <polygon id="Fill-76" fill="#119C9A" points="3.33666667 18.3333333 3.33666667 18.3333333 3.33333333 18.3375"></polygon>
                    <path d="M10,19.6989511 C6.5342613,19.6628525 4.46330561,18.6738864 3.999321,18.3333333 C3.79562044,18.9565454 3.56419397,19.5661354 3.33333333,20.1750443 C4.12833135,20.7192481 5.93843716,21.6441902 9.50602614,21.6666667 C10.016975,21.3690233 9.96604991,19.9734369 10,19.6989511" id="Fill-78" fill="#2C434E"></path>
                    <path d="M7.07081693,47.3577318 C7.06415027,47.3577318 7.0574836,47.3568985 7.0499836,47.3552318 C6.8049836,47.2985652 6.65415027,47.0135652 6.6674836,46.7835652 C6.67165027,46.7152318 6.73081693,46.6627318 6.79915027,46.6668985 C6.8674836,46.6710652 6.91915027,46.7293985 6.91581693,46.7977318 C6.9074836,46.9327318 7.00165027,47.0893985 7.10581693,47.1127318 C7.17331693,47.1285652 7.21415027,47.1952318 7.19915027,47.2618985 C7.1849836,47.3218985 7.1299836,47.3618985 7.07081693,47.3577318" id="Fill-80" fill="#CC4552"></path>
                    <path d="M6.95245117,46.8995954 C6.95245117,46.8995954 6.70437844,47.9165575 6.66666667,48.0132109 C6.66666667,48.0132109 11.1962037,48.6381563 11.6546374,48.1416819 C11.6546374,48.1416819 11.8602844,47.7154463 10.5710132,47.6812274 L8.7425817,46.6666667 C8.7425817,46.6666667 8.05493116,47.6452075 6.95245117,46.8995954" id="Fill-82" fill="#E86068"></path>
                    <path d="M9.24674623,48.33026 C9.54260142,48.3577882 9.81353277,48.1985713 10,47.9255218 C9.98707653,47.9247778 9.97507616,47.9232897 9.96169114,47.9225457 L8.52903202,46.6666667 C8.52903202,46.6666667 8.46026069,46.8199315 8.33333373,46.9761724 C8.33287218,47.6814884 8.73165359,48.2818998 9.24674623,48.33026" id="Fill-84" fill="#CC4552"></path>
                    <g id="Group-88" transform="translate(5.000000, 46.666667)">
                        <mask id="mask-4" fill="white">
                            <use xlink:href="#path-3"></use>
                        </mask>
                        <g id="Clip-87"></g>
                        <path d="M6.20053333,0.509916667 L6.19853333,0.509916667 C6.21853333,0.599083333 6.19253333,0.66575 6.19253333,0.66575 C5.67386667,1.35491667 0.5492,0.48825 0.5492,0.48825 L0.514533333,1.22741667 C0.514533333,1.22741667 2.90453333,1.46825 4.45186667,1.64075 C5.3932,1.74491667 5.89586667,1.51075 6.1452,1.31408333 C6.28186667,1.20491667 6.33053333,0.992416667 6.28453333,0.801583333 L6.20053333,0.509916667 Z" id="Fill-86" fill="#ADABAF" mask="url(#mask-4)"></path>
                    </g>
                    <path d="M10,47.4998936 C10.8244756,47.5029626 11.4708582,47.4400486 11.6505414,47.25591 C11.6505414,47.25591 11.9272217,46.7111668 10.1884289,46.6666667 L10.0007951,47.4891522 L10,47.4998936 Z" id="Fill-89" fill="#DFDEE1"></path>
                    <path d="M8.45006322,47.4997862 C8.42839655,47.4981454 8.40672988,47.4915823 8.38756322,47.4792764 C8.33006322,47.440718 8.31672988,47.3644215 8.35506322,47.3086348 L8.76339655,46.7204137 C8.80172988,46.6638066 8.87922988,46.6498599 8.93589655,46.6884184 C8.99256322,46.7261564 9.00756322,46.8016325 8.96839655,46.8582395 L8.56006322,47.4472811 C8.53506322,47.4833784 8.49256322,47.5022474 8.45006322,47.4997862" id="Fill-91" fill="#DFDEE1"></path>
                    <path d="M8.45042814,47.4997941 C8.42876148,47.4981549 8.40626148,47.4907786 8.38792814,47.4784847 C8.33042814,47.4407834 8.31626148,47.3645613 8.35542814,47.308829 L8.76376148,46.7203613 C8.80209481,46.6638094 8.87959481,46.6498763 8.93626148,46.6883972 C8.99209481,46.7260984 9.00709481,46.8023206 8.96876148,46.8580529 L8.56042814,47.4465206 C8.53542814,47.4825827 8.49209481,47.5022529 8.45042814,47.4997941" id="Fill-93" fill="#DFDEE1"></path>
                    <path d="M8.45006322,47.4997862 C8.42922988,47.4989658 8.40672988,47.4915823 8.38756322,47.4792764 C8.33006322,47.440718 8.31672988,47.3644215 8.35506322,47.3094552 L8.76339655,46.7204137 C8.80256322,46.6638066 8.88006322,46.6498599 8.93589655,46.6884184 C8.99256322,46.7261564 9.00756322,46.8016325 8.96839655,46.8582395 L8.56006322,47.4472811 C8.53506322,47.4833784 8.49256322,47.5022474 8.45006322,47.4997862" id="Fill-95" fill="#DFDEE1"></path>
                    <path d="M10.1167299,47.4997941 C10.0950632,47.4981549 10.0733966,47.4907786 10.0542299,47.4784847 C9.99672988,47.4407834 9.98339655,47.3645613 10.0217299,47.308829 L10.4300632,46.7203613 C10.4683966,46.6638094 10.5458966,46.6498763 10.6025632,46.6883972 C10.6583966,46.726918 10.6742299,46.8023206 10.6350632,46.8580529 L10.2267299,47.4465206 C10.2017299,47.4825827 10.1592299,47.5022529 10.1167299,47.4997941" id="Fill-97" fill="#DFDEE1"></path>
                    <path d="M8.33148275,47.3809031 C8.36605026,47.0089865 7.91221225,46.6893053 7.31675895,46.6677146 C7.19410003,46.6635358 7.07478635,46.6718935 6.96216316,46.6920912 C6.83727407,46.9992358 6.70346434,47.3196135 6.66666667,47.3753313 C6.66666667,47.3753313 7.32902484,47.4310492 8.30249064,47.5 C8.31698669,47.4609975 8.3281375,47.421995 8.33148275,47.3809031" id="Fill-99" fill="#DFDEE1"></path>
                    <path d="M5.1313891,47.3577318 C5.13805576,47.3577318 5.14555576,47.3568985 5.15222243,47.3552318 C5.39805576,47.2985652 5.54805576,47.0135652 5.53472243,46.7835652 C5.53055576,46.7152318 5.47222243,46.6627318 5.4038891,46.6668985 C5.33472243,46.6710652 5.28305576,46.7293985 5.28722243,46.7977318 C5.29472243,46.9327318 5.20055576,47.0893985 5.0963891,47.1127318 C5.02972243,47.1285652 4.98805576,47.1952318 5.00305576,47.2618985 C5.01722243,47.3218985 5.07222243,47.3618985 5.1313891,47.3577318" id="Fill-101" fill="#CC4552"></path>
                    <path d="M4.71421103,46.8995954 C4.71421103,46.8995954 4.96228764,47.9165575 5,48.0132109 C5,48.0132109 0.470981342,48.6381563 0.011951218,48.1416819 C0.011951218,48.1416819 -0.193109736,47.7154463 1.09559229,47.6812274 L2.92464172,46.6666667 C2.92464172,46.6666667 3.61171377,47.6446072 4.71421103,46.8995954" id="Fill-103" fill="#E86068"></path>
                    <path d="M2.41992043,48.3302617 C2.1245268,48.3577776 1.85359545,48.1986317 1.66666667,47.9249603 C1.67959014,47.9242166 1.6915905,47.9234729 1.70497553,47.9227293 L3.13763465,46.6666667 C3.13763465,46.6666667 3.20640598,46.8206068 3.33333293,46.976778 C3.33379449,47.6817794 2.93501308,48.281923 2.41992043,48.3302617" id="Fill-105" fill="#CC4552"></path>
                    <path d="M0.0872237842,46.6973302 L0.0889518096,46.6973302 C0.0716715556,46.8235222 0.0935598773,46.9178714 0.0935598773,46.9178714 C0.542270473,47.8920269 4.97004756,46.6666667 4.97004756,46.6666667 L5,47.7127634 C5,47.7127634 2.93500965,48.0535999 1.59809399,48.2965491 C0.784770038,48.4451491 0.350459654,48.1137476 0.135032487,47.834238 C0.0163747427,47.6809206 -0.0250978669,47.3790031 0.0146467173,47.1089286 L0.0872237842,46.6973302 Z" id="Fill-107" fill="#ADABAF"></path>
                    <path d="M1.66666667,47.4998936 C0.842138948,47.5029626 0.196510686,47.4400486 0.0160210119,47.25591 C0.0160210119,47.25591 -0.259881706,46.7111668 1.47822591,46.6666667 L1.66587156,47.4891522 L1.66666667,47.4998936 Z" id="Fill-109" fill="#DFDEE1"></path>
                    <path d="M3.87353814,47.4997863 C3.89520481,47.4981465 3.91687148,47.491587 3.93603814,47.4784679 C3.99270481,47.4407508 4.00770481,47.3644965 3.96853814,47.3087407 L3.56020481,46.7200249 C3.52187148,46.6634491 3.44437148,46.6503301 3.38770481,46.6880473 C3.33103814,46.7265844 3.31603814,46.8020187 3.35520481,46.8577745 L3.76353814,47.4473103 C3.78853814,47.4833876 3.83103814,47.5022462 3.87353814,47.4997863" id="Fill-111" fill="#DFDEE1"></path>
                    <path d="M2.20650595,47.4997862 C2.22817262,47.4989658 2.24983929,47.4915823 2.26983929,47.4792764 C2.32650595,47.440718 2.34067262,47.3652419 2.30150595,47.3094552 L1.89400595,46.7204137 C1.85483929,46.6638066 1.77733929,46.6498599 1.72067262,46.6884184 C1.66400595,46.7261564 1.64983929,46.8024529 1.68817262,46.8582395 L2.09733929,47.4472811 C2.12233929,47.4833784 2.16483929,47.5022474 2.20650595,47.4997862" id="Fill-113" fill="#DFDEE1"></path>
                    <path d="M2.20687148,47.4997863 C2.22853814,47.498146 2.25020481,47.4915847 2.26937148,47.4792824 C2.32603814,47.4407351 2.34103814,47.3644607 2.30187148,47.3086901 L1.89353814,46.7198186 C1.85520481,46.664048 1.77770481,46.6501054 1.72103814,46.6878325 C1.66437148,46.7263798 1.64937148,46.8018341 1.68853814,46.8584248 L2.09687148,47.4472963 C2.12187148,47.4833832 2.16437148,47.5022467 2.20687148,47.4997863" id="Fill-115" fill="#DFDEE1"></path>
                    <path d="M2.20650595,47.4997862 C2.22817262,47.4989658 2.24983929,47.4915823 2.26900595,47.4792764 C2.32567262,47.4415384 2.34067262,47.3652419 2.30150595,47.3094552 L1.89317262,46.7204137 C1.85483929,46.6638066 1.77733929,46.6498599 1.72067262,46.6884184 C1.66400595,46.7261564 1.64983929,46.8024529 1.68817262,46.8582395 L2.09650595,47.4472811 C2.12150595,47.4833784 2.16400595,47.5022474 2.20650595,47.4997862" id="Fill-117" fill="#DFDEE1"></path>
                    <path d="M5.00185053,47.3815357 C4.96728302,47.0094184 5.42112104,46.6895648 6.01768945,46.6679625 C6.14034837,46.6630845 6.25854697,46.6721436 6.37117017,46.6923522 C6.49605925,46.9996625 6.63098407,47.320213 6.66666667,47.3759609 C6.66666667,47.3759609 6.00430847,47.4317088 5.03084264,47.5 C5.01634659,47.4616733 5.00631086,47.4226498 5.00185053,47.3815357" id="Fill-119" fill="#DFDEE1"></path>
                </g>
            </g>
        </g>
    </g>
</svg>