<?xml version="1.0" encoding="UTF-8" standalone="no"?>
<!-- Generator: Adobe Illustrator 19.0.0, SVG Export Plug-In . SVG Version: 6.00 Build 0)  -->

<svg
   xmlns:dc="http://purl.org/dc/elements/1.1/"
   xmlns:cc="http://creativecommons.org/ns#"
   xmlns:rdf="http://www.w3.org/1999/02/22-rdf-syntax-ns#"
   xmlns:svg="http://www.w3.org/2000/svg"
   xmlns="http://www.w3.org/2000/svg"
   xmlns:sodipodi="http://sodipodi.sourceforge.net/DTD/sodipodi-0.dtd"
   xmlns:inkscape="http://www.inkscape.org/namespaces/inkscape"
   version="1.1"
   id="Layer_1"
   x="0px"
   y="0px"
   viewBox="0 0 512.0011 194.205"
   xml:space="preserve"
   inkscape:version="0.91 r13725"
   sodipodi:docname="hatchback.svg"
   width="512.0011"
   height="194.205"><metadata
     id="metadata75"><rdf:RDF><cc:Work
         rdf:about=""><dc:format>image/svg+xml</dc:format><dc:type
           rdf:resource="http://purl.org/dc/dcmitype/StillImage" /><dc:title></dc:title></cc:Work></rdf:RDF></metadata><defs
     id="defs73" /><sodipodi:namedview
     pagecolor="#ffffff"
     bordercolor="#666666"
     borderopacity="1"
     objecttolerance="10"
     gridtolerance="10"
     guidetolerance="10"
     inkscape:pageopacity="0"
     inkscape:pageshadow="2"
     inkscape:window-width="741"
     inkscape:window-height="480"
     id="namedview71"
     showgrid="false"
     fit-margin-top="0"
     fit-margin-left="0"
     fit-margin-right="0"
     fit-margin-bottom="0"
     inkscape:zoom="0.4609375"
     inkscape:cx="256.00111"
     inkscape:cy="97.103"
     inkscape:window-x="10"
     inkscape:window-y="34"
     inkscape:window-maximized="0"
     inkscape:current-layer="Layer_1" /><path
     style="fill:#87d7ff"
     d="m 489.79911,85.129 c -16.627,-10.241 -70.258,-23.335 -145.52,-23.335 l -39.756,-46.38 c -8.385,-9.782 -20.627,-15.413 -33.511,-15.413 l -185.763999,0 c -9.365,0 -18.347,3.721 -24.969,10.344 l -44.53,44.535 c -4.524,4.524 -7.7339997,10.194 -9.2869997,16.4 L 0.00511129,97.104 132.42011,158.896 l 370.755,0 0,-49.903 c -0.001,-9.76 -5.067,-18.745 -13.376,-23.864 z"
     id="path3"
     inkscape:connector-curvature="0" /><path
     style="fill:#64bef0"
     d="M 304.52311,15.413 C 296.13811,5.631 283.89611,0 271.01211,0 L 85.248111,0 c -9.365,0 -18.347,3.721 -24.969,10.344 l -42.618,42.621 23.083,0 c 8.142,0 16.278,0.45 24.37,1.35 l 67.298999,7.478 211.865,0 -39.755,-46.38 z"
     id="path5"
     inkscape:connector-curvature="0" /><path
     style="fill:#625d6b"
     d="m 290.71711,61.792 -146.569,0 c -7.817,0 -15.627,-0.433 -23.396,-1.295 L 74.806111,55.391 c -9.475,-1.053 -14.068,-12.14 -8.112,-19.585 l 16.282,-20.353 c 3.35,-4.188 8.423,-6.626 13.786,-6.626 l 150.968999,0 c 5.239,0 10.208,2.327 13.562,6.351 l 32.815,39.374 c 2.396,2.876 0.351,7.24 -3.391,7.24 z"
     id="path7"
     inkscape:connector-curvature="0" /><path
     style="fill:#64bef0"
     d="m 503.17411,114.757 c 0,-17.655 -26.482,-35.31 -150.067,-35.31 l -344.2749987,0 c -4.875,0 -8.82700001,3.952 -8.82700001,8.827 l -0.004,44.138 167.72799871,17.655 335.445,0 0,-35.31 z"
     id="path9"
     inkscape:connector-curvature="0" /><path
     style="fill:#00aadc"
     d="m 503.17411,141.24 -413.928999,0 -78.5,-17.443 c -4.7149997,-1.035 -9.4739997,1.935 -10.53499971,6.702 -1.052,4.759 1.94900001,9.474 6.70700001,10.53 l 79.4469997,17.655 c 0.629,0.142 1.267,0.211 1.913,0.211 l 414.893999,0 c 4.879,0 8.828,-3.953 8.828,-8.827 0,-4.874 -3.946,-8.828 -8.825,-8.828 z"
     id="path11"
     inkscape:connector-curvature="0" /><circle
     style="fill:#ededee"
     cx="75.03511"
     cy="145.65102"
     r="40.459999"
     id="circle13" /><path
     style="fill:#504b5a"
     d="m 75.035111,194.205 c -26.773,0 -48.551,-21.779 -48.551,-48.551 0,-26.773 21.779,-48.551 48.551,-48.551 26.771999,0 48.550999,21.779 48.550999,48.551 0,26.772 -21.778,48.551 -48.550999,48.551 z m 0,-79.448 c -17.039,0 -30.896,13.857 -30.896,30.896 0,17.039 13.857,30.896 30.896,30.896 17.039,0 30.895999,-13.857 30.895999,-30.896 0,-17.039 -13.856999,-30.896 -30.895999,-30.896 z"
     id="path15"
     inkscape:connector-curvature="0" /><circle
     style="fill:#dcdbde"
     cx="75.03511"
     cy="145.65102"
     r="17.655001"
     id="circle17" /><g
     id="g19"
     transform="translate(0.00111129,-158.898)"><path
       style="fill:#00aadc"
       d="m 353.1,282.483 -211.86,0 c -4.875,0 -8.827,-3.952 -8.827,-8.827 l 0,0 c 0,-4.875 3.953,-8.827 8.827,-8.827 l 211.86,0 c 4.875,0 8.827,3.953 8.827,8.827 l 0,0 c 0,4.875 -3.952,8.827 -8.827,8.827 z"
       id="path21"
       inkscape:connector-curvature="0" /><path
       style="fill:#00aadc"
       d="m 503.173,282.483 -8.827,0 c -4.875,0 -8.828,-3.952 -8.828,-8.827 l 0,0 c 0,-4.875 3.953,-8.827 8.828,-8.827 l 8.827,0 c 4.875,0 8.827,3.953 8.827,8.827 l 0,0 c 0,4.875 -3.952,8.827 -8.827,8.827 z"
       id="path23"
       inkscape:connector-curvature="0" /></g><rect
     x="194.20612"
     y="8.8250074"
     style="fill:#504b5a"
     width="17.655001"
     height="52.965"
     id="rect25" /><path
     style="fill:#ededee"
     d="m 493.69811,88.275 -8.181,0 c -4.875,0 -8.827,3.953 -8.827,8.827 0,4.875 3.953,8.827 8.827,8.827 l 17.261,0 c -0.766,-6.865 -3.963,-13.076 -9.08,-17.654 z"
     id="path27"
     inkscape:connector-curvature="0" /><path
     style="fill:#625d6b"
     d="m 304.52311,15.413 c -2.115,-2.468 -4.48,-4.669 -7.036,-6.585 l -14.406,0 c -3.742,0 -5.786,4.364 -3.391,7.24 l 32.813,39.374 c 3.354,4.025 8.323,6.352 13.562,6.352 l 18.213,0 -39.755,-46.381 z"
     id="path29"
     inkscape:connector-curvature="0" /><polygon
     style="fill:#504b5a"
     points="90.598,216.045 115.388,218.799 132.413,167.725 114.758,167.725 "
     id="polygon31"
     transform="translate(0.00111129,-158.898)" /><path
     style="fill:#ff6464"
     d="m 6.4621113,71.278 -2.044,8.169 22.0649997,0 c 4.875,0 8.827,-3.953 8.827,-8.827 0,-4.874 -3.953,-8.827 -8.827,-8.827 l -16.061,0 C 8.6661113,64.741 7.3031113,67.92 6.4621113,71.278 Z"
     id="path33"
     inkscape:connector-curvature="0" /><circle
     style="fill:#ededee"
     cx="419.3071"
     cy="145.65102"
     r="40.459999"
     id="circle35" /><path
     style="fill:#504b5a"
     d="m 419.30711,194.205 c -26.773,0 -48.551,-21.779 -48.551,-48.551 0,-26.773 21.779,-48.551 48.551,-48.551 26.772,0 48.551,21.779 48.551,48.551 0,26.772 -21.778,48.551 -48.551,48.551 z m 0,-79.448 c -17.039,0 -30.896,13.857 -30.896,30.896 0,17.039 13.857,30.896 30.896,30.896 17.039,0 30.896,-13.857 30.896,-30.896 0,-17.039 -13.857,-30.896 -30.896,-30.896 z"
     id="path37"
     inkscape:connector-curvature="0" /><circle
     style="fill:#dcdbde"
     cx="419.3071"
     cy="145.65102"
     r="17.655001"
     id="circle39" /><g
     id="g41"
     transform="translate(0.00111129,-158.898)" /><g
     id="g43"
     transform="translate(0.00111129,-158.898)" /><g
     id="g45"
     transform="translate(0.00111129,-158.898)" /><g
     id="g47"
     transform="translate(0.00111129,-158.898)" /><g
     id="g49"
     transform="translate(0.00111129,-158.898)" /><g
     id="g51"
     transform="translate(0.00111129,-158.898)" /><g
     id="g53"
     transform="translate(0.00111129,-158.898)" /><g
     id="g55"
     transform="translate(0.00111129,-158.898)" /><g
     id="g57"
     transform="translate(0.00111129,-158.898)" /><g
     id="g59"
     transform="translate(0.00111129,-158.898)" /><g
     id="g61"
     transform="translate(0.00111129,-158.898)" /><g
     id="g63"
     transform="translate(0.00111129,-158.898)" /><g
     id="g65"
     transform="translate(0.00111129,-158.898)" /><g
     id="g67"
     transform="translate(0.00111129,-158.898)" /><g
     id="g69"
     transform="translate(0.00111129,-158.898)" /></svg>