<?xml version="1.0" encoding="UTF-8" standalone="no"?>
<!-- Generator: Adobe Illustrator 19.0.0, SVG Export Plug-In . SVG Version: 6.00 Build 0)  -->

<svg
   xmlns:dc="http://purl.org/dc/elements/1.1/"
   xmlns:cc="http://creativecommons.org/ns#"
   xmlns:rdf="http://www.w3.org/1999/02/22-rdf-syntax-ns#"
   xmlns:svg="http://www.w3.org/2000/svg"
   xmlns="http://www.w3.org/2000/svg"
   xmlns:sodipodi="http://sodipodi.sourceforge.net/DTD/sodipodi-0.dtd"
   xmlns:inkscape="http://www.inkscape.org/namespaces/inkscape"
   version="1.1"
   id="Layer_1"
   x="0px"
   y="0px"
   viewBox="0 0 512.0011 203.032"
   xml:space="preserve"
   inkscape:version="0.91 r13725"
   sodipodi:docname="sedan.svg"
   width="512.0011"
   height="203.032"><metadata
     id="metadata73"><rdf:RDF><cc:Work
         rdf:about=""><dc:format>image/svg+xml</dc:format><dc:type
           rdf:resource="http://purl.org/dc/dcmitype/StillImage" /><dc:title /></cc:Work></rdf:RDF></metadata><defs
     id="defs71" /><sodipodi:namedview
     pagecolor="#ffffff"
     bordercolor="#666666"
     borderopacity="1"
     objecttolerance="10"
     gridtolerance="10"
     guidetolerance="10"
     inkscape:pageopacity="0"
     inkscape:pageshadow="2"
     inkscape:window-width="1188"
     inkscape:window-height="753"
     id="namedview69"
     showgrid="false"
     fit-margin-top="0"
     fit-margin-left="0"
     fit-margin-right="0"
     fit-margin-bottom="0"
     inkscape:zoom="0.4609375"
     inkscape:cx="-123.65991"
     inkscape:cy="101.516"
     inkscape:window-x="229"
     inkscape:window-y="87"
     inkscape:window-maximized="0"
     inkscape:current-layer="Layer_1" /><path
     d="m 489.79911,85.129 c -16.627,-10.241 -70.258,-23.335 -145.52,-23.335 l -39.756,-46.38 c -8.385,-9.782 -20.627,-15.413 -33.511,-15.413 l -119.003,0 c -12.644,0 -24.87,4.523 -34.47,12.751 l -46.913999,40.214 -50.039,7.148 c -7.106,1.015 -12.8889997,6.231 -14.6299997,13.195 L 0.00611129,97.103 132.42111,158.895 l 370.755,0 0,-49.903 c -0.002,-9.759 -5.068,-18.744 -13.377,-23.863 z"
     id="path3"
     inkscape:connector-curvature="0" /><path
     d="m 503.17411,114.757 c 0,-17.655 -26.482,-35.31 -150.067,-35.31 l -344.2749987,0 c -4.875,0 -8.82700001,3.953 -8.82700001,8.827 l 0,52.965 167.72499871,26.482 335.445,0 0,-52.964 z"
     id="path5"
     inkscape:connector-curvature="0" /><path
     d="m 503.17411,150.067 -413.928999,0 -78.5,-17.443 c -4.7149997,-1.035 -9.4739997,1.935 -10.53499971,6.702 -1.052,4.759 1.94900001,9.474 6.70700001,10.53 l 79.4469997,17.655 c 0.629,0.142 1.267,0.211 1.913,0.211 l 414.893999,0 c 4.879,0 8.828,-3.953 8.828,-8.827 10e-4,-4.875 -3.946,-8.828 -8.825,-8.828 z"
     id="path7"
     inkscape:connector-curvature="0" /><circle
     style="fill:#ededee"
     cx="423.7211"
     cy="150.06502"
     r="44.137001"
     id="circle9" /><path
     style="fill:#504b5a"
     d="m 423.72611,203.032 c -29.207,0 -52.965,-23.758 -52.965,-52.965 0,-29.207 23.758,-52.965 52.965,-52.965 29.207,0 52.965,23.758 52.965,52.965 0,29.207 -23.758,52.965 -52.965,52.965 z m 0,-88.275 c -19.473,0 -35.31,15.837 -35.31,35.31 0,19.473 15.837,35.31 35.31,35.31 19.473,0 35.31,-15.836 35.31,-35.31 0,-19.473 -15.836,-35.31 -35.31,-35.31 z"
     id="path11"
     inkscape:connector-curvature="0" /><circle
     style="fill:#dcdbde"
     cx="423.7211"
     cy="150.06502"
     r="17.655001"
     id="circle13" /><circle
     style="fill:#ededee"
     cx="88.276115"
     cy="150.06502"
     r="44.137001"
     id="circle15" /><path
     style="fill:#504b5a"
     d="m 88.280111,203.032 c -29.207,0 -52.965,-23.758 -52.965,-52.965 0,-29.207 23.758,-52.965 52.965,-52.965 29.206999,0 52.964999,23.758 52.964999,52.965 -0.001,29.207 -23.759,52.965 -52.964999,52.965 z m 0,-88.275 c -19.473,0 -35.31,15.837 -35.31,35.31 0,19.473 15.837,35.31 35.31,35.31 19.472999,0 35.309999,-15.836 35.309999,-35.31 0,-19.473 -15.837,-35.31 -35.309999,-35.31 z"
     id="path17"
     inkscape:connector-curvature="0" /><circle
     style="fill:#dcdbde"
     cx="88.276115"
     cy="150.06502"
     r="17.655001"
     id="circle19" /><g
     id="g21"
     transform="translate(0.00111129,-154.484)"><path
       d="m 353.105,286.896 -185.377,0 c -4.875,0 -8.827,-3.953 -8.827,-8.827 l 0,0 c 0,-4.875 3.953,-8.827 8.827,-8.827 l 185.377,0 c 4.875,0 8.827,3.952 8.827,8.827 l 0,0 c 10e-4,4.876 -3.952,8.827 -8.827,8.827 z"
       id="path23"
       inkscape:connector-curvature="0" /><path
       d="m 503.173,286.896 -8.827,0 c -4.875,0 -8.828,-3.953 -8.828,-8.827 l 0,0 c 0,-4.875 3.953,-8.827 8.828,-8.827 l 8.827,0 c 4.875,0 8.827,3.952 8.827,8.827 l 0,0 c 0,4.876 -3.952,8.827 -8.827,8.827 z"
       id="path25"
       inkscape:connector-curvature="0" /></g><path
     d="M 70.625111,52.965 117.53911,12.751 c 9.6,-8.228 21.826,-12.751 34.47,-12.751 l 119.003,0 c 12.885,0 25.125,5.63 33.511,15.413 l 39.756,46.38 -209.002,0 c -7.78,0 -15.546,-0.643 -23.221,-1.922 L 70.625111,52.965 Z"
     id="path27"
     inkscape:connector-curvature="0" /><path
     style="fill:#625d6b"
     d="m 261.29511,15.18 c -3.354,-4.025 -8.323,-6.352 -13.563,-6.352 l -81.524,0 c -4.682,0 -9.173,1.86 -12.483,5.171 l -26.482,26.482 c -2.341,2.341 -3.657,5.516 -3.657,8.827 l 0,0 c 0,6.894 5.589,12.484 12.484,12.484 l 154.647,0 c 3.742,0 5.786,-4.365 3.391,-7.24 l -32.813,-39.372 z"
     id="path29"
     inkscape:connector-curvature="0" /><polygon
     style="fill:#504b5a"
     points="185.381,216.276 158.898,216.276 176.553,163.312 194.208,163.312 "
     id="polygon31"
     transform="translate(0.00111129,-154.484)" /><path
     style="fill:#ededee"
     d="m 493.69811,88.275 -8.181,0 c -4.875,0 -8.827,3.952 -8.827,8.827 0,4.875 3.953,8.827 8.827,8.827 l 17.261,0 c -0.766,-6.865 -3.963,-13.076 -9.08,-17.654 z"
     id="path33"
     inkscape:connector-curvature="0" /><path
     style="fill:#625d6b"
     d="m 304.52311,15.413 c -2.115,-2.468 -4.48,-4.669 -7.036,-6.585 l -14.406,0 c -3.742,0 -5.786,4.364 -3.391,7.24 l 32.813,39.374 c 3.354,4.025 8.323,6.352 13.562,6.352 l 18.213,0 -39.755,-46.381 z"
     id="path35"
     inkscape:connector-curvature="0" /><path
     style="fill:#ff6464"
     d="m 0.00511129,88.275 0,8.827 17.65499971,0 c 4.875,0 8.827,-3.952 8.827,-8.827 0,-4.875 -3.953,-8.827 -8.827,-8.827 l -8.8279997,0 c -4.876,-10e-4 -8.82700001,3.952 -8.82700001,8.827 z"
     id="path37"
     inkscape:connector-curvature="0" /><g
     id="g39"
     transform="translate(0.00111129,-154.484)" /><g
     id="g41"
     transform="translate(0.00111129,-154.484)" /><g
     id="g43"
     transform="translate(0.00111129,-154.484)" /><g
     id="g45"
     transform="translate(0.00111129,-154.484)" /><g
     id="g47"
     transform="translate(0.00111129,-154.484)" /><g
     id="g49"
     transform="translate(0.00111129,-154.484)" /><g
     id="g51"
     transform="translate(0.00111129,-154.484)" /><g
     id="g53"
     transform="translate(0.00111129,-154.484)" /><g
     id="g55"
     transform="translate(0.00111129,-154.484)" /><g
     id="g57"
     transform="translate(0.00111129,-154.484)" /><g
     id="g59"
     transform="translate(0.00111129,-154.484)" /><g
     id="g61"
     transform="translate(0.00111129,-154.484)" /><g
     id="g63"
     transform="translate(0.00111129,-154.484)" /><g
     id="g65"
     transform="translate(0.00111129,-154.484)" /><g
     id="g67"
     transform="translate(0.00111129,-154.484)" /></svg>