<?xml version="1.0" encoding="UTF-8" standalone="no"?>
<!-- Generator: Adobe Illustrator 19.0.0, SVG Export Plug-In . SVG Version: 6.00 Build 0)  -->

<svg
   xmlns:dc="http://purl.org/dc/elements/1.1/"
   xmlns:cc="http://creativecommons.org/ns#"
   xmlns:rdf="http://www.w3.org/1999/02/22-rdf-syntax-ns#"
   xmlns:svg="http://www.w3.org/2000/svg"
   xmlns="http://www.w3.org/2000/svg"
   xmlns:sodipodi="http://sodipodi.sourceforge.net/DTD/sodipodi-0.dtd"
   xmlns:inkscape="http://www.inkscape.org/namespaces/inkscape"
   version="1.1"
   id="Layer_1"
   x="0px"
   y="0px"
   viewBox="0 0 512.0011 220.687"
   xml:space="preserve"
   inkscape:version="0.91 r13725"
   sodipodi:docname="suv.svg"
   width="512.0011"
   height="220.687"><metadata
     id="metadata81"><rdf:RDF><cc:Work
         rdf:about=""><dc:format>image/svg+xml</dc:format><dc:type
           rdf:resource="http://purl.org/dc/dcmitype/StillImage" /><dc:title></dc:title></cc:Work></rdf:RDF></metadata><defs
     id="defs79" /><sodipodi:namedview
     pagecolor="#ffffff"
     bordercolor="#666666"
     borderopacity="1"
     objecttolerance="10"
     gridtolerance="10"
     guidetolerance="10"
     inkscape:pageopacity="0"
     inkscape:pageshadow="2"
     inkscape:window-width="741"
     inkscape:window-height="480"
     id="namedview77"
     showgrid="false"
     fit-margin-top="0"
     fit-margin-left="0"
     fit-margin-right="0"
     fit-margin-bottom="0"
     inkscape:zoom="0.4609375"
     inkscape:cx="-2.1683802"
     inkscape:cy="110.344"
     inkscape:window-x="10"
     inkscape:window-y="34"
     inkscape:window-maximized="0"
     inkscape:current-layer="Layer_1" /><path
     style="fill:#ff9164"
     d="M 0.00111129,105.929 6.4561113,80.107 c 1.553,-6.209 4.7619997,-11.878 9.2879997,-16.404 l 40.448,-50.474 C 62.893111,4.866 73.030111,0 83.746111,0 L 283.06911,0 c 8.021,0 15.609,3.635 20.636,9.886 l 48.848,60.734 -352.55199871,35.309 z"
     id="path3"
     inkscape:connector-curvature="0" /><path
     style="fill:#aff078"
     d="M 283.07111,0 83.747111,0 c -10.717,0 -20.854,4.867 -27.555,13.231 l -40.444,50.476 c -4.524,4.524 -7.7329997,10.192 -9.2849997,16.399 L 0.00611129,105.93 132.42111,176.55 l 370.755,0 0,-67.793 c 0,-12.972 -9.355,-24.065 -22.161,-26.13 -44.694,-7.208 -128.46,-12.006 -128.46,-12.006 L 303.71011,9.887 C 298.68211,3.635 291.09211,0 283.07111,0 Z"
     id="path5"
     inkscape:connector-curvature="0" /><g
     id="g7"
     transform="translate(0.00111129,-145.657)"><path
       style="fill:#96e178"
       d="m 283.072,145.657 -199.244,0 c -10.764,0 -20.939,4.909 -27.638,13.334 l -38.53,48.459 281.927,8.827 52.965,0 -48.844,-60.734 c -5.027,-6.251 -12.616,-9.886 -20.636,-9.886 z"
       id="path9"
       inkscape:connector-curvature="0" /><path
       style="fill:#96e178"
       d="m 503.173,263.587 c 0,-7.843 -5.122,-14.711 -12.642,-16.94 -17.615,-5.223 -56.915,-12.716 -137.425,-12.716 l -344.275,0 c -4.875,0 -8.827,3.951 -8.827,8.827 L 0,295.724 l 167.728,17.655 335.445,0 0,-49.792 z"
       id="path11"
       inkscape:connector-curvature="0" /></g><path
     style="fill:#8ccd73"
     d="m 503.17411,158.894 -413.928999,0 -78.5,-17.443 c -4.7149997,-1.035 -9.4739997,1.935 -10.53499971,6.702 -1.052,4.759 1.94900001,9.474 6.70700001,10.53 l 79.4469997,17.655 c 0.629,0.142 1.267,0.211 1.913,0.211 l 414.893999,0 c 4.879,0 8.828,-3.953 8.828,-8.827 10e-4,-4.875 -3.946,-8.828 -8.825,-8.828 z"
     id="path13"
     inkscape:connector-curvature="0" /><circle
     style="fill:#ededee"
     cx="83.863113"
     cy="172.13301"
     r="40.459999"
     id="circle15" /><path
     style="fill:#504b5a"
     d="m 83.868111,220.687 c -26.773,0 -48.551,-21.779 -48.551,-48.551 0,-26.772 21.779,-48.551 48.551,-48.551 26.771999,0 48.550999,21.779 48.550999,48.551 0,26.773 -21.778,48.551 -48.550999,48.551 z m 0,-79.448 c -17.039,0 -30.896,13.857 -30.896,30.896 0,17.039 13.857,30.896 30.896,30.896 17.038999,0 30.895999,-13.857 30.895999,-30.896 0,-17.039 -13.857,-30.896 -30.895999,-30.896 z"
     id="path17"
     inkscape:connector-curvature="0" /><circle
     style="fill:#dcdbde"
     cx="83.863113"
     cy="172.13301"
     r="17.655001"
     id="circle19" /><g
     id="g21"
     transform="translate(0.00111129,-145.657)"><path
       style="fill:#8ccd73"
       d="m 344.278,286.896 -194.205,0 c -4.875,0 -8.827,-3.953 -8.827,-8.827 l 0,0 c 0,-4.875 3.952,-8.827 8.827,-8.827 l 194.205,0 c 4.875,0 8.827,3.952 8.827,8.827 l 0,0 c 0,4.876 -3.952,8.827 -8.827,8.827 z"
       id="path23"
       inkscape:connector-curvature="0" /><path
       style="fill:#8ccd73"
       d="m 503.173,286.896 -17.655,0 c -4.875,0 -8.827,-3.953 -8.827,-8.827 l 0,0 c 0,-4.875 3.953,-8.827 8.827,-8.827 l 17.655,0 c 4.875,0 8.827,3.952 8.827,8.827 l 0,0 c 0,4.876 -3.952,8.827 -8.827,8.827 z"
       id="path25"
       inkscape:connector-curvature="0" /></g><path
     style="fill:#ff6464"
     d="m 6.4621113,80.106 -2.044,8.169 22.0649997,0 c 4.875,0 8.827,-3.952 8.827,-8.827 0,-4.875 -3.953,-8.827 -8.827,-8.827 l -16.061,0 c -1.7559997,2.947 -3.1189997,6.126 -3.9599997,9.485 z"
     id="path27"
     inkscape:connector-curvature="0" /><circle
     style="fill:#ededee"
     cx="410.4801"
     cy="172.13301"
     r="40.459999"
     id="circle29" /><path
     style="fill:#504b5a"
     d="m 410.48511,220.687 c -26.773,0 -48.551,-21.779 -48.551,-48.551 0,-26.772 21.779,-48.551 48.551,-48.551 26.772,0 48.551,21.779 48.551,48.551 0,26.773 -21.778,48.551 -48.551,48.551 z m 0,-79.448 c -17.039,0 -30.896,13.857 -30.896,30.896 0,17.039 13.857,30.896 30.896,30.896 17.039,0 30.896,-13.857 30.896,-30.896 0,-17.039 -13.857,-30.896 -30.896,-30.896 z"
     id="path31"
     inkscape:connector-curvature="0" /><circle
     style="fill:#dcdbde"
     cx="410.4801"
     cy="172.13301"
     r="17.655001"
     id="circle33" /><path
     style="fill:#625d6b"
     d="m 302.76811,63.843 -37.023,-48.126 c -3.342,-4.344 -8.512,-6.89 -13.994,-6.89 l -127.784,0 c -7.746,0 -14.587,5.049 -16.87,12.451 l -9.427999,30.569 c -2.879,5.759 1.176,12.563 7.609999,12.77 l 194.31,6.002 0.007,0 c 3.502,0 5.415,-4.084 3.172,-6.776 z"
     id="path35"
     inkscape:connector-curvature="0" /><path
     style="fill:#ededee"
     d="m 503.17411,108.756 c 0,-4.184 -1.065,-8.114 -2.817,-11.654 l -14.84,0 c -4.875,0 -8.827,3.952 -8.827,8.827 0,4.875 3.953,8.827 8.827,8.827 l 17.657,0 0,-6 z"
     id="path37"
     inkscape:connector-curvature="0" /><polygon
     style="fill:#504b5a"
     points="181.555,154.484 185.383,212.75 203.038,213.295 199.21,154.484 "
     id="polygon39"
     transform="translate(0.00111129,-145.657)" /><g
     id="g41"
     transform="translate(0.00111129,-145.657)"><path
       style="fill:#625d6b"
       d="m 302.992,154.653 c -0.124,-0.06 -0.228,-0.109 -0.352,-0.169 l -14.146,0 c -4.232,0 -6.614,4.865 -4.02,8.208 l 38.234,49.254 c 2.121,2.732 5.385,4.33 8.843,4.33 l 21.001,0 -49.56,-61.623 z"
       id="path43"
       inkscape:connector-curvature="0" /><path
       style="fill:#625d6b"
       d="m 89.1,163.04 c 1.93,-3.95 -0.946,-8.556 -5.342,-8.556 l -23.066,0 c -1.593,1.391 -3.162,2.824 -4.502,4.506 l -38.53,48.459 37.586,1.177 c 6.942,0.217 13.366,-3.656 16.416,-9.896 L 89.1,163.04 Z"
       id="path45"
       inkscape:connector-curvature="0" /></g><g
     id="g47"
     transform="translate(0.00111129,-145.657)" /><g
     id="g49"
     transform="translate(0.00111129,-145.657)" /><g
     id="g51"
     transform="translate(0.00111129,-145.657)" /><g
     id="g53"
     transform="translate(0.00111129,-145.657)" /><g
     id="g55"
     transform="translate(0.00111129,-145.657)" /><g
     id="g57"
     transform="translate(0.00111129,-145.657)" /><g
     id="g59"
     transform="translate(0.00111129,-145.657)" /><g
     id="g61"
     transform="translate(0.00111129,-145.657)" /><g
     id="g63"
     transform="translate(0.00111129,-145.657)" /><g
     id="g65"
     transform="translate(0.00111129,-145.657)" /><g
     id="g67"
     transform="translate(0.00111129,-145.657)" /><g
     id="g69"
     transform="translate(0.00111129,-145.657)" /><g
     id="g71"
     transform="translate(0.00111129,-145.657)" /><g
     id="g73"
     transform="translate(0.00111129,-145.657)" /><g
     id="g75"
     transform="translate(0.00111129,-145.657)" /></svg>