<?xml version="1.0" encoding="UTF-8" standalone="no"?>
<!-- Generator: Adobe Illustrator 19.0.0, SVG Export Plug-In . SVG Version: 6.00 Build 0)  -->

<svg
   xmlns:dc="http://purl.org/dc/elements/1.1/"
   xmlns:cc="http://creativecommons.org/ns#"
   xmlns:rdf="http://www.w3.org/1999/02/22-rdf-syntax-ns#"
   xmlns:svg="http://www.w3.org/2000/svg"
   xmlns="http://www.w3.org/2000/svg"
   xmlns:sodipodi="http://sodipodi.sourceforge.net/DTD/sodipodi-0.dtd"
   xmlns:inkscape="http://www.inkscape.org/namespaces/inkscape"
   version="1.1"
   id="Layer_1"
   x="0px"
   y="0px"
   viewBox="0 0 512.00098 256"
   xml:space="preserve"
   inkscape:version="0.91 r13725"
   sodipodi:docname="van.svg"
   width="512.00098"
   height="256"><metadata
     id="metadata69"><rdf:RDF><cc:Work
         rdf:about=""><dc:format>image/svg+xml</dc:format><dc:type
           rdf:resource="http://purl.org/dc/dcmitype/StillImage" /><dc:title></dc:title></cc:Work></rdf:RDF></metadata><defs
     id="defs67" /><sodipodi:namedview
     pagecolor="#ffffff"
     bordercolor="#666666"
     borderopacity="1"
     objecttolerance="10"
     gridtolerance="10"
     guidetolerance="10"
     inkscape:pageopacity="0"
     inkscape:pageshadow="2"
     inkscape:window-width="741"
     inkscape:window-height="480"
     id="namedview65"
     showgrid="false"
     fit-margin-top="0"
     fit-margin-left="0"
     fit-margin-right="0"
     fit-margin-bottom="0"
     inkscape:zoom="0.4609375"
     inkscape:cx="-2.1694915"
     inkscape:cy="128"
     inkscape:window-x="0"
     inkscape:window-y="24"
     inkscape:window-maximized="0"
     inkscape:current-layer="Layer_1" /><path
     style="fill:#ffdc5a"
     d="m 503.172,194.207 0,-63.081 c 0,-10.031 -5.667,-19.201 -14.639,-23.687 L 450.207,88.275 392.839,16.564 C 384.462,6.095 371.78,0 358.372,0 L 26.483,0 C 16.732,0 8.828,7.904 8.828,17.655 l 0,180.966 494.344,-4.414 z"
     id="path3"
     inkscape:connector-curvature="0" /><path
     style="fill:#ffc84b"
     d="m 8.828,176.552 494.345,0 c 4.875,0 8.828,3.953 8.828,8.828 l 0,17.655 c 0,4.875 -3.953,8.828 -8.828,8.828 l -494.345,0 C 3.953,211.863 0,207.91 0,203.035 L 0,185.38 c 0,-4.876 3.953,-8.828 8.828,-8.828 z"
     id="path5"
     inkscape:connector-curvature="0" /><circle
     style="fill:#ededee"
     cx="83.862"
     cy="207.448"
     r="40.459999"
     id="circle7" /><path
     style="fill:#504b5a"
     d="M 83.862,256 C 57.089,256 35.31,234.221 35.31,207.448 c 0,-26.773 21.779,-48.552 48.552,-48.552 26.773,0 48.552,21.779 48.552,48.552 0,26.773 -21.779,48.552 -48.552,48.552 z m 0,-79.448 c -17.039,0 -30.897,13.857 -30.897,30.897 0,17.04 13.857,30.897 30.897,30.897 17.04,0 30.897,-13.857 30.897,-30.897 0,-17.04 -13.857,-30.897 -30.897,-30.897 z"
     id="path9"
     inkscape:connector-curvature="0" /><circle
     style="fill:#dcdbde"
     cx="83.862"
     cy="207.448"
     r="17.655001"
     id="circle11" /><circle
     style="fill:#ededee"
     cx="419.31"
     cy="207.448"
     r="40.459999"
     id="circle13" /><path
     style="fill:#504b5a"
     d="m 419.305,256 c -26.773,0 -48.552,-21.779 -48.552,-48.552 0,-26.773 21.779,-48.552 48.552,-48.552 26.773,0 48.552,21.779 48.552,48.552 0,26.773 -21.779,48.552 -48.552,48.552 z m 0,-79.448 c -17.039,0 -30.897,13.857 -30.897,30.897 0,17.04 13.857,30.897 30.897,30.897 17.04,0 30.897,-13.857 30.897,-30.897 0,-17.04 -13.858,-30.897 -30.897,-30.897 z"
     id="path15"
     inkscape:connector-curvature="0" /><circle
     style="fill:#dcdbde"
     cx="419.31"
     cy="207.448"
     r="17.655001"
     id="circle17" /><g
     id="g19"
     transform="translate(0,-128)"><path
       style="fill:#625d6b"
       d="m 393.71,145.655 -12.359,0 c -4.364,0 -6.856,4.983 -4.237,8.474 l 41.313,55.084 c 3.335,4.446 8.567,7.062 14.124,7.062 l 17.655,0 -56.496,-70.62 z"
       id="path21"
       inkscape:connector-curvature="0" /><path
       style="fill:#625d6b"
       d="m 358.4,152.717 42.372,56.497 c 2.183,2.91 0.106,7.062 -3.531,7.062 l -97.103,0 c -4.875,0 -8.828,-3.953 -8.828,-8.828 l 0,-52.966 c 0,-4.875 3.953,-8.828 8.828,-8.828 l 44.138,0 c 5.557,0.001 10.789,2.617 14.124,7.063 z"
       id="path23"
       inkscape:connector-curvature="0" /><path
       style="fill:#625d6b"
       d="m 44.138,216.276 220.69,0 c 4.875,0 8.828,-3.953 8.828,-8.828 l 0,-52.966 c 0,-4.875 -3.953,-8.828 -8.828,-8.828 l -220.69,0 c -4.875,0 -8.828,3.953 -8.828,8.828 l 0,52.966 c 0,4.875 3.953,8.828 8.828,8.828 z"
       id="path25"
       inkscape:connector-curvature="0" /></g><rect
     x="141.241"
     y="17.654999"
     style="fill:#504b5a"
     width="17.655001"
     height="70.621002"
     id="rect27" /><path
     style="fill:#ffc84b"
     d="m 450.207,132.414 -423.724,0 c -4.875,0 -8.828,-3.953 -8.828,-8.828 l 0,0 c 0,-4.875 3.953,-8.828 8.828,-8.828 l 423.724,0 c 4.875,0 8.828,3.953 8.828,8.828 l 0,0 c -0.001,4.875 -3.953,8.828 -8.828,8.828 z"
     id="path29"
     inkscape:connector-curvature="0" /><path
     style="fill:#ff6464"
     d="m 17.655,158.897 -8.827,0 0,-61.793 8.828,0 c 4.875,0 8.828,3.953 8.828,8.828 l 0,44.138 c -0.001,4.874 -3.954,8.827 -8.829,8.827 z"
     id="path31"
     inkscape:connector-curvature="0" /><path
     style="fill:#ededee"
     d="m 476.69,123.586 0,8.828 c 0,4.875 3.953,8.828 8.828,8.828 l 17.655,0 0,-10.115 c 0,-6.057 -2.094,-11.779 -5.707,-16.367 l -11.948,0 c -4.876,-0.001 -8.828,3.951 -8.828,8.826 z"
     id="path33"
     inkscape:connector-curvature="0" /><g
     id="g35"
     transform="translate(0,-128)" /><g
     id="g37"
     transform="translate(0,-128)" /><g
     id="g39"
     transform="translate(0,-128)" /><g
     id="g41"
     transform="translate(0,-128)" /><g
     id="g43"
     transform="translate(0,-128)" /><g
     id="g45"
     transform="translate(0,-128)" /><g
     id="g47"
     transform="translate(0,-128)" /><g
     id="g49"
     transform="translate(0,-128)" /><g
     id="g51"
     transform="translate(0,-128)" /><g
     id="g53"
     transform="translate(0,-128)" /><g
     id="g55"
     transform="translate(0,-128)" /><g
     id="g57"
     transform="translate(0,-128)" /><g
     id="g59"
     transform="translate(0,-128)" /><g
     id="g61"
     transform="translate(0,-128)" /><g
     id="g63"
     transform="translate(0,-128)" /></svg>