<?xml version="1.0" standalone="no"?>
<!DOCTYPE svg PUBLIC "-//W3C//DTD SVG 1.1//EN" "http://www.w3.org/Graphics/SVG/1.1/DTD/svg11.dtd" >
<svg xmlns="http://www.w3.org/2000/svg">
<metadata></metadata>
<defs>
<font id="senticosansdtregular" horiz-adv-x="1163" >
<font-face units-per-em="2048" ascent="1638" descent="-410" />
<missing-glyph horiz-adv-x="491" />
<glyph unicode="&#xfb03;" horiz-adv-x="1851" d="M59 858v139h156v181q0 140 72.5 208t236.5 68q97 0 185 -18l-9 -138q-99 21 -182 21q-75 0 -106 -33t-31 -112v-177h491v181q0 140 73 208t237 68q96 0 184 -18l-8 -138q-99 21 -182 21q-75 0 -106.5 -33t-31.5 -112v-177h281l-27 -139h-254v-858h-166v858h-491v-858 h-166v858h-156zM1524 1278q0 70 14.5 91.5t75.5 21.5t75.5 -21.5t14.5 -91.5t-14.5 -91.5t-75.5 -21.5t-75.5 21.5t-14.5 91.5zM1530 0v997h166v-997h-166z" />
<glyph unicode="&#xfb04;" horiz-adv-x="1931" d="M59 858v139h156v181q0 140 72.5 208t236.5 68q97 0 185 -18l-9 -138q-99 21 -182 21q-75 0 -106 -33t-31 -112v-177h491v181q0 140 73 208t237 68q96 0 184 -18l-8 -138q-99 21 -182 21q-75 0 -106.5 -33t-31.5 -112v-177h281l-27 -139h-254v-858h-166v858h-491v-858 h-166v858h-156zM1520 242v1183l168 29v-1237q0 -57 19 -78.5t54 -21.5q48 0 103 20l39 -131q-92 -29 -199 -29q-51 0 -85 12t-54 31t-30 55.5t-12.5 72t-2.5 94.5z" />
<glyph horiz-adv-x="2048" />
<glyph horiz-adv-x="2048" />
<glyph unicode="&#xd;" horiz-adv-x="2048" />
<glyph unicode=" "  horiz-adv-x="491" />
<glyph unicode="&#x09;" horiz-adv-x="491" />
<glyph unicode="&#xa0;" horiz-adv-x="491" />
<glyph unicode="!" horiz-adv-x="512" d="M166 98q0 70 14.5 91.5t75.5 21.5t75.5 -21.5t14.5 -91.5t-14.5 -91t-75.5 -21t-75.5 21t-14.5 91zM172 1421h168l-8 -723l-15 -356h-122l-17 356z" />
<glyph unicode="&#x22;" horiz-adv-x="759" d="M154 1352q-1 48 6 58.5t39 10.5h55q32 0 39 -10.5t6 -58.5l-14 -344q-1 -37 -7.5 -46.5t-27.5 -9.5h-47q-21 0 -27.5 9.5t-7.5 46.5zM461 1352q-1 48 6 58.5t39 10.5h55q32 0 39 -10.5t6 -58.5l-14 -344q-1 -37 -7.5 -46.5t-27.5 -9.5h-47q-21 0 -27.5 9.5t-7.5 46.5z " />
<glyph unicode="#" horiz-adv-x="1298" d="M86 457l20 114h209l52 369h-217l20 115h211l49 346h125l-49 -346h371l49 346h125l-50 -346h209l-20 -115h-203l-51 -369h211l-21 -114h-206l-50 -363h-125l50 363h-371l-49 -363h-125l49 363h-213zM440 571h371l51 369h-370z" />
<glyph unicode="$" d="M156 1026q0 174 78.5 264t279.5 103v198h139v-198q186 -15 303 -54l-14 -153q-151 51 -289 61v-491q71 -23 119.5 -43t90.5 -44.5t67 -51.5t43.5 -63.5t25.5 -80t7 -102.5q0 -189 -78 -279.5t-275 -103.5v-201h-139v199q-214 13 -354 71l18 152q152 -64 336 -80v512 q-73 23 -121 41t-91.5 42t-68.5 50t-44 63t-26 82.5t-7 106.5zM313 1028q0 -103 38 -146t163 -83v450q-109 -8 -155 -54t-46 -167zM653 129q109 10 152 60.5t43 166.5q0 102 -37.5 151t-157.5 91v-469z" />
<glyph unicode="%" horiz-adv-x="1781" d="M92 1018q0 80 7 137.5t26.5 110.5t53 86t89 52t131.5 19t131.5 -19t89.5 -52t53.5 -86t26.5 -111t7 -137t-7 -137t-26.5 -111.5t-53.5 -86t-89.5 -52t-131.5 -19.5t-131.5 19.5t-89 52t-53 86t-26.5 111t-7 137.5zM227 1018q0 -176 33.5 -233.5t138.5 -57.5t138.5 57.5 t33.5 233.5t-33.5 233.5t-138.5 57.5t-138.5 -57.5t-33.5 -233.5zM530 18l605 1428l127 -41l-607 -1428zM1075 383q0 80 7 137.5t26.5 110.5t53 86t89 52t131.5 19t131.5 -19t89.5 -52t53.5 -86t26.5 -111t7 -137t-7 -137t-26.5 -111.5t-53.5 -86t-89.5 -52t-131.5 -19.5 t-131.5 19.5t-89 52t-53 86t-26.5 111t-7 137.5zM1210 383q0 -176 33.5 -233.5t138.5 -57.5t138.5 57.5t33.5 233.5t-33.5 233.5t-138.5 57.5t-138.5 -57.5t-33.5 -233.5z" />
<glyph unicode="&#x26;" horiz-adv-x="1296" d="M96 340q0 76 23 140.5t67 116t90 89t111 78.5q-89 103 -133.5 182t-44.5 158q0 158 89.5 236.5t260.5 78.5q160 0 252 -73.5t92 -215.5q0 -53 -13.5 -98t-36.5 -81t-64 -74t-84 -69t-109 -73l346 -358q83 109 139 248l125 -58q-93 -204 -168 -291l183 -186l-113 -96 l-170 178q-112 -100 -206.5 -146t-235.5 -46q-205 0 -302.5 97.5t-97.5 262.5zM256 344q0 -104 59.5 -164.5t169.5 -60.5q115 0 200.5 38t158.5 111l-371 394q-42 -29 -67.5 -48t-57.5 -50t-49.5 -60t-30 -70.5t-12.5 -89.5zM358 1110q0 -61 35 -122.5t117 -153.5 q58 32 95.5 56.5t75 60t55.5 78.5t18 95q0 166 -195 166q-101 0 -151 -46.5t-50 -133.5z" />
<glyph unicode="'" horiz-adv-x="452" d="M154 1352q-1 48 6 58.5t39 10.5h55q32 0 39 -10.5t6 -58.5l-14 -344q-1 -37 -7.5 -46.5t-27.5 -9.5h-47q-21 0 -27.5 9.5t-7.5 46.5z" />
<glyph unicode="(" horiz-adv-x="604" d="M141 614q0 538 308 979l122 -69q-155 -235 -211.5 -438t-56.5 -472q0 -266 56 -462.5t212 -432.5l-122 -81q-308 441 -308 976z" />
<glyph unicode=")" horiz-adv-x="604" d="M33 -281q156 236 212 432.5t56 462.5q0 269 -56.5 472t-211.5 438l123 69q307 -439 307 -979q0 -537 -307 -976z" />
<glyph unicode="*" horiz-adv-x="1024" d="M118 1115.5q-1 9.5 1.5 18.5t11.5 35q14 45 20 51.5t31 -1.5q39 -13 49 -17l230 -90l-15 246q-2 23 -2 51q0 26 9 30.5t55 4.5q48 0 56.5 -4.5t8.5 -30.5q0 -28 -2 -51l-14 -246l229 90q5 2 50 17q25 8 31 1.5t20 -51.5q15 -44 13.5 -54t-26.5 -19q-5 -1 -20.5 -6 t-28.5 -7l-237 -63l155 -191q8 -9 18.5 -23.5t12.5 -17.5q12 -14 12.5 -21.5t-7 -14.5t-36.5 -27q-37 -29 -46.5 -30.5t-26.5 18.5q-3 5 -12.5 18.5t-14.5 24.5l-135 207l-133 -207q-5 -11 -15 -24.5t-12 -18.5q-17 -20 -27 -18.5t-47 30.5q-39 27 -43 34.5t13 28.5 q2 3 12 17.5t18 23.5l156 191l-237 63q-13 2 -29 7t-21 6q-14 5 -19 7.5t-6 12z" />
<glyph unicode="+" horiz-adv-x="1024" d="M121 512v131h321v326h138v-326h321v-131h-321v-326h-138v326h-321z" />
<glyph unicode="," horiz-adv-x="497" d="M139 -217q0 8 2 12l49 146q7 21 7 28q0 17 -21 27q-15 8 -20.5 27.5t-5.5 74.5q0 70 14.5 91.5t75.5 21.5t75.5 -21.5t14.5 -91.5v-53q0 -42 -19 -92l-80 -195q-6 -12 -16 -12q-4 0 -37 12q-26 10 -32.5 14.5t-6.5 10.5z" />
<glyph unicode="-" horiz-adv-x="759" d="M113 479v146h534v-146h-534z" />
<glyph unicode="." horiz-adv-x="477" d="M150 98q0 70 14.5 91.5t75.5 21.5t75.5 -21.5t14.5 -91.5t-14.5 -91t-75.5 -21t-75.5 21t-14.5 91z" />
<glyph unicode="/" horiz-adv-x="915" d="M49 -174l639 1610l139 -60l-641 -1607z" />
<glyph unicode="0" d="M123 651v99q0 70 1.5 121t7 112t15 105t26.5 92.5t40.5 81.5t58.5 65t79 50.5t102 30t129 11.5q125 0 212.5 -36.5t135 -90.5t73 -149.5t31.5 -178.5t6 -214v-99q0 -131 -6 -214t-31.5 -178.5t-73 -149.5t-135 -90.5t-212.5 -36.5q-71 0 -129 11.5t-102 30t-79 50.5 t-58.5 65t-40.5 81.5t-26.5 92.5t-15 105t-7 112t-1.5 121zM293 655q0 -63 0.5 -105.5t3 -92t7 -81t12 -67.5t19 -58.5t27.5 -45.5t37 -36t48 -24t60.5 -15.5t74.5 -4.5q46 0 82 6.5t64.5 17t50 32t36.5 43t25 58.5t16 70t9 87t4 99.5t1 116.5v90q0 71 -1 116.5t-4 99.5 t-9 87t-16 70.5t-25 59t-36.5 43t-50 32t-64.5 17t-82 6.5q-51 0 -91 -7t-70 -24.5t-51 -38t-35.5 -57.5t-22.5 -72t-12.5 -93t-5.5 -108.5t-1 -130.5v-90z" />
<glyph unicode="1" d="M268 1237l307 164h142v-1260h219v-141h-617v141h230v1082l-244 -129z" />
<glyph unicode="2" d="M182 0v133q291 329 424 506q100 135 150.5 237.5t50.5 188.5q0 114 -56 163.5t-194 49.5q-174 0 -342 -82l-18 147q167 80 374 80q220 0 314 -88t94 -260q0 -120 -55.5 -232t-188.5 -288q-113 -148 -322 -383q-17 -19 -26 -29h592v-143h-797z" />
<glyph unicode="3" d="M172 37l16 149q184 -65 344 -65q155 0 222 49t67 184v70q0 116 -60.5 163.5t-174.5 47.5h-260v143h155q170 0 235.5 45t65.5 178v74q0 110 -56.5 156.5t-184.5 46.5q-152 0 -324 -64l-16 148q179 59 340 59q206 0 307.5 -80.5t101.5 -244.5v-72q0 -120 -35.5 -188 t-123.5 -107q108 -29 154 -103.5t46 -215.5v-35q0 -210 -110 -304t-346 -94q-87 0 -187 16.5t-176 43.5z" />
<glyph unicode="4" d="M86 389v141l629 871h178v-873h182v-139h-182v-389h-168v389h-639zM266 528h459v639z" />
<glyph unicode="5" d="M180 35l17 149q165 -61 333 -61q156 0 219.5 54.5t63.5 201.5v45q0 145 -54 195.5t-218 50.5q-96 0 -236 -17h-86l27 748h694v-144h-545l-12 -448q148 8 201 8q215 0 307 -94t92 -295v-29q0 -106 -22 -182t-73.5 -131t-138.5 -82t-214 -27q-201 0 -355 58z" />
<glyph unicode="6" d="M145 629v108q0 116 8.5 204t29.5 168.5t58 135.5t93 96t136 60.5t185 19.5q59 0 147.5 -12.5t149.5 -30.5l-14 -147q-140 41 -270 41q-74 0 -130 -11.5t-94 -36.5t-63 -56.5t-38.5 -79.5t-19 -97t-6.5 -117v-114q181 67 318 67q205 0 293 -96t88 -311 q0 -226 -98.5 -334.5t-327.5 -108.5q-66 0 -120.5 9t-97 25.5t-75.5 44t-57 58.5t-41 75t-27.5 88.5t-16.5 104.5t-8 116.5t-2 130.5zM317 559q0 -106 2.5 -158.5t16.5 -117.5t42.5 -93t81 -48.5t132.5 -20.5q82 0 133.5 15.5t81 53.5t40.5 91.5t11 138.5q0 146 -48.5 203 t-182.5 57q-77 0 -162.5 -18t-147.5 -41v-62z" />
<glyph unicode="7" d="M199 1257v144h807v-111l-562 -1290h-172l549 1257h-622z" />
<glyph unicode="8" d="M123 383q0 135 57.5 217t186.5 133q-112 53 -159.5 132t-47.5 200q0 356 422 356q218 0 318.5 -91t100.5 -265q0 -127 -46 -203t-160 -129q129 -51 186 -133t57 -217q0 -215 -103.5 -310.5t-352.5 -95.5q-251 0 -355 95t-104 311zM295 385q0 -156 61.5 -210t225.5 -54 q165 0 225.5 54.5t60.5 209.5q0 125 -64 186t-222 97q-158 -34 -222.5 -96t-64.5 -187zM328 1047q0 -113 56 -175.5t198 -93.5q149 36 201.5 96.5t52.5 184.5q0 113 -57 166t-197 53q-146 0 -200 -54.5t-54 -176.5z" />
<glyph unicode="9" d="M145 979q0 226 98.5 334t327.5 108q74 0 133.5 -10.5t104.5 -34t78 -53t56 -74.5t37.5 -92t22 -112.5t10.5 -128t3 -146.5v-108q0 -140 -12.5 -241t-45 -189t-89.5 -141.5t-147 -83.5t-216 -30q-59 0 -147.5 12.5t-149.5 30.5l14 148q140 -41 271 -41q74 0 130 11.5 t94 36.5t62.5 56.5t38 79t19 96.5t6.5 117v115q-184 -68 -318 -68q-205 0 -293 96.5t-88 311.5zM303 979q0 -145 49 -202.5t183 -57.5q152 0 309 59v62q0 106 -2.5 158.5t-16.5 117.5t-42.5 93t-81 48.5t-132.5 20.5q-82 0 -133.5 -15.5t-81 -53.5t-40.5 -91.5t-11 -138.5z " />
<glyph unicode=":" horiz-adv-x="477" d="M150 98q0 70 14.5 91.5t75.5 21.5t75.5 -21.5t14.5 -91.5t-14.5 -91t-75.5 -21t-75.5 21t-14.5 91zM150 748q0 70 14.5 91t75.5 21t75.5 -21t14.5 -91t-14.5 -91.5t-75.5 -21.5t-75.5 21.5t-14.5 91.5z" />
<glyph unicode=";" horiz-adv-x="477" d="M139 -217q0 8 2 12l49 146q7 21 7 28q0 17 -21 27q-15 8 -20.5 27.5t-5.5 74.5q0 70 14.5 91.5t75.5 21.5t75.5 -21.5t14.5 -91.5v-53q0 -42 -19 -92l-80 -195q-6 -12 -16 -12q-4 0 -37 12q-26 10 -32.5 14.5t-6.5 10.5zM150 748q0 70 14.5 91t75.5 21t75.5 -21t14.5 -91 t-14.5 -91.5t-75.5 -21.5t-75.5 21.5t-14.5 91.5z" />
<glyph unicode="&#x3c;" horiz-adv-x="1024" d="M121 506v147l735 377l59 -117l-651 -333l651 -332l-59 -117z" />
<glyph unicode="=" horiz-adv-x="1024" d="M121 340v131h780v-131h-780zM121 684v131h780v-131h-780z" />
<glyph unicode="&#x3e;" horiz-adv-x="1024" d="M106 248l652 332l-652 333l60 117l735 -377v-147l-735 -375z" />
<glyph unicode="?" horiz-adv-x="921" d="M100 1395q180 49 318 49q213 0 303 -83t90 -271q0 -69 -11 -124.5t-27.5 -90.5t-45.5 -69t-53.5 -54.5t-63.5 -53t-65 -57.5q-45 -44 -69 -93.5t-50 -144.5l-135 46q23 119 51.5 181.5t103.5 125.5q17 14 53.5 42.5t49.5 40.5t36.5 39t32 50.5t16 62t7.5 86.5 q0 62 -9 100.5t-34 67t-70.5 40t-117.5 11.5q-135 0 -293 -51zM283 98q0 70 14.5 91.5t75.5 21.5t75.5 -21.5t14.5 -91.5t-14.5 -91t-75.5 -21t-75.5 21t-14.5 91z" />
<glyph unicode="@" horiz-adv-x="1796" d="M127 592q0 831 805 831q379 0 557 -185t178 -546q0 -119 -19.5 -208t-63.5 -158t-121 -104.5t-187 -35.5q-169 0 -232 107q-50 -46 -121 -73t-147 -27q-118 0 -185 67t-67 186q0 234 84 385q102 183 307 183q71 0 133 -10t209 -41l-77 -525q-2 -22 0.5 -36.5t15.5 -33.5 t47.5 -28.5t89.5 -9.5q65 0 103 43t52.5 115t14.5 184q0 143 -27.5 250t-91.5 190.5t-177 126.5t-275 43q-329 0 -484 -172t-155 -535q0 -345 169.5 -498t522.5 -153q169 0 358 39l23 -131q-162 -47 -393 -47q-408 0 -627 198.5t-219 608.5zM696 479q0 -72 25.5 -106.5 t93.5 -34.5q51 0 108 25.5t93 56.5l61 424q-85 30 -170 30q-100 0 -153 -96q-58 -101 -58 -299z" />
<glyph unicode="A" horiz-adv-x="1253" d="M43 0l481 1401h201l485 -1401h-182l-131 391h-553l-127 -391h-174zM389 530h463l-234 709z" />
<glyph unicode="B" horiz-adv-x="1159" d="M164 0v1401h534q95 0 160.5 -28t99 -80t47 -110.5t13.5 -133.5q0 -128 -38 -204t-130 -110q98 -19 155.5 -99t57.5 -233q0 -96 -16 -166.5t-53 -125.5t-102.5 -83t-160.5 -28h-567zM336 145h358q70 0 110 22t61.5 82t21.5 167q0 35 -4.5 63t-20 59.5t-40.5 53t-70 35.5 t-105 14h-311v-496zM336 784h280q61 0 100 9t70.5 35.5t45.5 77t14 130.5q0 111 -42 164t-157 53h-311v-469z" />
<glyph unicode="C" horiz-adv-x="1083" d="M133 651v99q0 100 5 174.5t18.5 148t37.5 125t62.5 96.5t92 72t127.5 42t169 15q190 0 346 -39l-12 -155q-68 18 -162.5 30.5t-161.5 12.5q-60 0 -105.5 -6t-81.5 -21.5t-61 -35t-43 -54t-28.5 -71t-16.5 -93.5t-8 -113.5t-2 -138.5v-75q0 -68 1 -115.5t4.5 -98.5 t9 -84.5t15.5 -68.5t23.5 -56t34 -42.5t45.5 -32.5t58.5 -20.5t73.5 -13t90 -3.5q164 0 315 41l12 -154q-152 -39 -332 -39q-143 0 -241.5 32t-154 82.5t-85 144t-37.5 182.5t-8 233z" />
<glyph unicode="D" horiz-adv-x="1243" d="M164 0v1401h444q77 0 140 -9.5t112 -26t86.5 -44.5t64 -58.5t45 -76t29.5 -88.5t17 -103.5t8 -114.5t2 -128v-101q0 -98 -3 -161t-13.5 -138.5t-31.5 -122.5t-57.5 -95.5t-90 -74.5t-130.5 -42.5t-178 -16.5h-444zM336 152h274q47 0 85.5 4.5t69 16t54 24.5t41.5 36 t30.5 44t21 56t13.5 64.5t7.5 76.5t3 85t0.5 96v93q0 77 -1 124t-6 103t-14 88t-25 67.5t-39.5 54t-57.5 35.5t-79 23t-104 6h-274v-1097z" />
<glyph unicode="E" horiz-adv-x="1081" d="M164 0v1401h799v-152h-627v-454h561v-152h-561v-491h629v-152h-801z" />
<glyph unicode="F" horiz-adv-x="1013" d="M164 0v1401h780v-152h-608v-465h553v-151h-553v-633h-172z" />
<glyph unicode="G" horiz-adv-x="1196" d="M133 651v101q0 99 5 172.5t18.5 147t37 125t62.5 97t93.5 72t129.5 42t172 15.5q199 0 383 -45l-12 -155q-198 49 -363 49q-51 0 -91 -3.5t-73.5 -14t-58.5 -21.5t-44.5 -33.5t-33 -43t-22.5 -56.5t-14.5 -67.5t-8 -83.5t-3.5 -96t-1 -112v-82q0 -97 1.5 -147t7.5 -117.5 t19.5 -100t37 -71.5t60 -55t88 -27.5t122.5 -11.5q121 0 252 23v380h-162v152h328v-664q-212 -43 -422 -43q-78 0 -142 10.5t-113 29t-87 49t-64.5 63.5t-45.5 80.5t-29.5 92t-16.5 107t-8 116t-2 126.5z" />
<glyph unicode="H" horiz-adv-x="1284" d="M164 0v1401h172v-604h612v604h172v-1401h-172v645h-612v-645h-172z" />
<glyph unicode="I" horiz-adv-x="516" d="M172 0v1401h172v-1401h-172z" />
<glyph unicode="J" horiz-adv-x="571" d="M27 111q77 23 117 39t64 41t30 53t6 80v1077h172v-1073q0 -62 -9 -108.5t-29 -80t-45.5 -57t-65 -42t-79.5 -32.5t-97 -31l-21 -6z" />
<glyph unicode="K" horiz-adv-x="1202" d="M164 0v1401h172v-692l545 692h209l-553 -684l616 -717h-215l-602 705v-705h-172z" />
<glyph unicode="L" horiz-adv-x="989" d="M164 0v1401h172v-1249h586v-152h-758z" />
<glyph unicode="M" horiz-adv-x="1548" d="M160 0l55 1401h186l373 -979l373 979h186l56 -1401h-172l-39 1075l-318 -856h-174l-317 856l-39 -1075h-170z" />
<glyph unicode="N" horiz-adv-x="1325" d="M164 0v1401h198l629 -1137v1137h168v-1401h-198l-629 1124v-1124h-168z" />
<glyph unicode="O" horiz-adv-x="1298" d="M135 651v99q0 96 5 169.5t19 146.5t38.5 125t63 98t92.5 74t128 44t168 16t168 -16t128 -44t92.5 -74t63 -98t38.5 -125t19 -146.5t5 -169.5v-99q0 -96 -5 -169.5t-19 -146.5t-38.5 -125.5t-63 -98.5t-92.5 -74t-128 -44t-168 -16t-168 16t-128 44t-92.5 74t-63 98.5 t-38.5 125.5t-19 146.5t-5 169.5zM311 657q0 -103 2.5 -162t13 -128.5t32 -106t58.5 -71t94.5 -47.5t137.5 -13t137.5 13t94.5 47.5t58.5 71t32 106t13 128.5t2.5 162v86q0 103 -2.5 162t-13 129t-32 106.5t-58.5 70.5t-94.5 47.5t-137.5 13.5t-137.5 -13.5t-94.5 -47.5 t-58.5 -70.5t-32 -106.5t-13 -129t-2.5 -162v-86z" />
<glyph unicode="P" horiz-adv-x="1140" d="M164 0v1401h502q99 0 168 -19t111.5 -51.5t66 -90t31.5 -121t8 -156.5q0 -96 -8.5 -161.5t-32.5 -123.5t-66 -91t-110 -52t-164 -19h-334v-516h-172zM336 668h307q53 0 91.5 7.5t64.5 25t41.5 38.5t23.5 58t10.5 72.5t2.5 91.5q0 122 -21 182.5t-69 83t-144 22.5h-307 v-581z" />
<glyph unicode="Q" horiz-adv-x="1298" d="M135 651v99q0 96 5 169.5t19 146.5t38.5 125t63 98t92.5 74t128 44t168 16t168 -16t128 -44t92.5 -74t63 -98t38.5 -125t19 -146.5t5 -169.5v-99q0 -120 -8 -207.5t-32 -170.5t-65 -137.5t-109 -93.5t-163 -54q10 -60 34.5 -86.5t92.5 -26.5q51 0 109 14l29 -141 q-92 -20 -158 -20q-134 0 -191.5 51.5t-66.5 197.5q-92 1 -164 18t-124 45.5t-90 74.5t-61.5 98.5t-37 124.5t-18.5 145t-5 168zM311 657q0 -103 2.5 -162t13 -128.5t32 -106t58.5 -71t94.5 -47.5t137.5 -13t137.5 13t94.5 47.5t58.5 71t32 106t13 128.5t2.5 162v86 q0 103 -2.5 162t-13 129t-32 106.5t-58.5 70.5t-94.5 47.5t-137.5 13.5t-137.5 -13.5t-94.5 -47.5t-58.5 -70.5t-32 -106.5t-13 -129t-2.5 -162v-86z" />
<glyph unicode="R" horiz-adv-x="1224" d="M164 0v1401h522q91 0 157 -21t105.5 -56t62.5 -91.5t30.5 -116.5t7.5 -143q0 -185 -48.5 -284t-177.5 -130l342 -559h-194l-334 545h-301v-545h-172zM336 696h328q124 0 167 58.5t43 218.5q0 118 -20.5 177t-62 79t-123.5 20h-332v-553z" />
<glyph unicode="S" horiz-adv-x="1091" d="M121 31l18 162q183 -64 375 -64q156 0 222.5 52t66.5 177q0 52 -6 88t-26.5 64.5t-38.5 45.5t-64.5 35.5t-81 28t-109.5 29.5q-97 25 -155 48t-108 63t-71.5 100t-21.5 148q0 80 12 140.5t42.5 114t81 87.5t130.5 53.5t188 19.5q187 0 365 -41l-14 -161q-172 51 -348 51 q-161 0 -221 -51.5t-60 -171.5q0 -129 57.5 -172.5t248.5 -96.5q9 -3 13 -4q72 -20 120 -37t92 -41t70 -51.5t45.5 -66t27.5 -88t8 -115.5q0 -98 -22 -168.5t-74 -125t-144.5 -81.5t-226.5 -27q-199 0 -391 56z" />
<glyph unicode="T" horiz-adv-x="1073" d="M47 1249v152h979v-152h-405v-1249h-170v1249h-404z" />
<glyph unicode="U" horiz-adv-x="1290" d="M152 465v936h172v-952q0 -160 76.5 -240t244.5 -80t245 80t77 240v952h172v-936q0 -83 -14.5 -152.5t-50.5 -133t-91 -107t-141 -69.5t-197 -26t-196.5 26t-141 69.5t-91 107t-50 133t-14.5 152.5z" />
<glyph unicode="V" horiz-adv-x="1218" d="M23 1401h178l403 -1223l410 1223h180l-487 -1401h-201z" />
<glyph unicode="W" horiz-adv-x="1753" d="M51 1401h180l267 -1198l286 1198h185l282 -1202l271 1202h180l-338 -1401h-221l-266 1130l-273 -1130h-219z" />
<glyph unicode="X" horiz-adv-x="1177" d="M49 0l443 705l-431 696h191l338 -547l334 547h190l-426 -692l438 -709h-194l-346 557l-342 -557h-195z" />
<glyph unicode="Y" horiz-adv-x="1120" d="M14 1401h189l356 -727l359 727h188l-461 -912v-489h-170v489z" />
<glyph unicode="Z" horiz-adv-x="1157" d="M111 0v139l718 1110h-704v152h905v-144l-719 -1105h727v-152h-927z" />
<glyph unicode="[" horiz-adv-x="593" d="M174 -334v1956h395v-137h-235v-1682h235v-137h-395z" />
<glyph unicode="\" horiz-adv-x="915" d="M88 1376l139 60l639 -1610l-137 -57z" />
<glyph unicode="]" horiz-adv-x="593" d="M25 -197h235v1682h-235v137h395v-1956h-395v137z" />
<glyph unicode="^" horiz-adv-x="1024" d="M121 911l317 523h144l319 -523l-137 -61l-254 434l-254 -434z" />
<glyph unicode="_" horiz-adv-x="1024" d="M-8 -160h1040v-110h-1040v110z" />
<glyph unicode="`" horiz-adv-x="681" d="M102 1282l9 158l387 -205l-29 -119z" />
<glyph unicode="a" horiz-adv-x="1003" d="M106 260q0 53 7 95t23.5 74t37.5 55.5t54.5 39.5t68.5 26t85.5 15.5t99 7.5t116.5 2q43 0 100 -2v148q0 80 -41.5 119t-152.5 39q-143 0 -326 -52l-10 144q71 21 169 35t173 14q185 0 270.5 -75t85.5 -224v-721h-149l-17 88q-159 -108 -323 -108q-271 0 -271 280z M274 272q0 -84 32.5 -118.5t109.5 -34.5q69 0 144.5 29t137.5 75v219q-59 2 -120 2q-66 0 -106.5 -2.5t-83 -12t-64.5 -28t-36 -50.5t-14 -79z" />
<glyph unicode="b" horiz-adv-x="1054" d="M152 8v1417l167 29v-498q153 64 306 64q98 0 159.5 -27.5t97.5 -93.5t49 -159.5t13 -241.5q0 -74 -4.5 -131.5t-16 -114t-31.5 -97t-51.5 -75.5t-75 -57t-103.5 -34t-136 -12q-177 0 -374 31zM319 133q126 -20 207 -20q48 0 86 11t64 28t44 46.5t28 58.5t15.5 73t7 80 t1.5 88q0 74 -2 120.5t-8 94.5t-17.5 75t-31.5 50t-49 32t-70 9q-125 0 -275 -68v-678z" />
<glyph unicode="c" horiz-adv-x="876" d="M106 498q0 109 10 186t36.5 144t73 107t120 62.5t176.5 22.5q141 0 262 -23l-14 -151q-133 28 -248 28q-56 0 -91.5 -7t-67.5 -29t-48.5 -63.5t-26 -108t-9.5 -166.5q0 -68 2.5 -114t8.5 -89t17.5 -69.5t29.5 -48.5t45 -33t62.5 -17t83.5 -6q93 0 238 29l16 -148 q-132 -27 -260 -27q-106 0 -180.5 22.5t-120.5 62.5t-71.5 108t-34.5 143t-9 185z" />
<glyph unicode="d" horiz-adv-x="1067" d="M111 498q0 101 5 170.5t20 132t41 100.5t68.5 66t101.5 39.5t142 11.5q130 0 256 -29v436l168 29v-1454h-145l-14 96q-58 -52 -143 -85.5t-167 -33.5q-72 0 -123 10t-89 36.5t-61 63t-36.5 98.5t-18.5 134.5t-5 178.5zM283 498q0 -89 3 -142t13 -105.5t30 -79t53.5 -42.5 t84.5 -16q74 0 151 38.5t127 88.5v604q-147 39 -274 39q-44 0 -75.5 -9.5t-52.5 -33.5t-33 -51t-18 -77t-7.5 -94.5t-1.5 -119.5z" />
<glyph unicode="e" horiz-adv-x="999" d="M106 524q0 95 10 166.5t37.5 136t72.5 105.5t117.5 64.5t170.5 23.5q97 0 166.5 -23t111 -61.5t65.5 -103.5t32 -135t8 -169v-86h-618v-43q0 -116 25.5 -176.5t77.5 -83t150 -22.5q69 0 165 14.5t165 36.5l10 -141q-75 -23 -175.5 -36.5t-184.5 -13.5q-76 0 -134.5 12 t-101.5 33t-73 57t-49 77.5t-29.5 101.5t-14.5 121t-4 145zM279 575h450v82q0 116 -49 170t-166 54q-123 0 -179 -64t-56 -211v-31z" />
<glyph unicode="f" horiz-adv-x="737" d="M59 858v139h156v181q0 140 72.5 208t236.5 68q97 0 185 -18l-9 -138q-99 21 -182 21q-75 0 -106 -33t-31 -112v-177h281l-27 -139h-254v-858h-166v858h-156z" />
<glyph unicode="g" horiz-adv-x="1060" d="M115 498q0 144 19.5 238t68 160t131.5 95t211 29q167 0 364 -31v-1114q0 -152 -93.5 -223.5t-315.5 -71.5q-214 0 -365 45l10 142q168 -50 353 -50q133 0 188 39t55 115v178q-141 -59 -301 -59q-55 0 -99 8t-77 26t-57.5 40t-40.5 57.5t-26.5 71t-15.5 88t-7 101 t-2 116.5zM287 498q0 -84 4 -140t15.5 -102.5t32.5 -72t53 -39t79 -13.5q129 0 270 64v669q-132 21 -209 21q-64 0 -107 -14t-70.5 -40.5t-42 -75.5t-20 -108t-5.5 -149z" />
<glyph unicode="h" horiz-adv-x="1067" d="M152 0v1425l167 29v-549q80 46 180 80.5t185 34.5q238 0 238 -238v-782h-168v766q0 106 -107 106q-60 0 -155.5 -33.5t-172.5 -78.5v-760h-167z" />
<glyph unicode="i" horiz-adv-x="477" d="M150 1278q0 70 14.5 91.5t75.5 21.5t75.5 -21.5t14.5 -91.5t-14.5 -91.5t-75.5 -21.5t-75.5 21.5t-14.5 91.5zM156 0v997h166v-997h-166z" />
<glyph unicode="j" horiz-adv-x="477" d="M-53 -283q74 22 112.5 37.5t62 40t29 51t5.5 76.5v1075h166v-1071q0 -59 -7 -103t-30.5 -77.5t-40.5 -53.5t-65 -41.5t-74 -30.5t-96 -30q-12 -4 -19 -6zM150 1278q0 70 14.5 91.5t75.5 21.5t75.5 -21.5t14.5 -91.5t-14.5 -91.5t-75.5 -21.5t-75.5 21.5t-14.5 91.5z" />
<glyph unicode="k" horiz-adv-x="989" d="M152 0v1425l167 29v-909l402 452h209l-418 -454l453 -543h-213l-433 539v-539h-167z" />
<glyph unicode="l" horiz-adv-x="557" d="M145 242v1183l168 29v-1237q0 -57 19.5 -78.5t54.5 -21.5q47 0 102 20l39 -131q-92 -29 -198 -29q-51 0 -85.5 12t-54 31t-30 55.5t-13 72t-2.5 94.5z" />
<glyph unicode="m" horiz-adv-x="1603" d="M152 0v997h147l20 -98q197 121 361 121q154 0 194 -127q217 127 375 127q114 0 161.5 -64t47.5 -186v-770h-168v768q0 57 -22.5 81.5t-69.5 24.5q-55 0 -142 -33.5t-167 -84.5v-756h-168v768q0 57 -22.5 81.5t-69.5 24.5q-52 0 -143 -34t-167 -84v-756h-167z" />
<glyph unicode="n" horiz-adv-x="1067" d="M152 0v997h149l16 -92q80 46 181 80.5t186 34.5q238 0 238 -238v-782h-168v766q0 106 -107 106q-60 0 -155.5 -33.5t-172.5 -78.5v-760h-167z" />
<glyph unicode="o" horiz-adv-x="1060" d="M111 498q0 105 9.5 180.5t36.5 143.5t73.5 109t121 65t178.5 24t179 -24t121 -65t73 -109t37 -143.5t10 -180.5t-10 -180.5t-37 -143.5t-73 -109.5t-121 -65.5t-179 -24t-178.5 24t-121 65.5t-73.5 109.5t-36.5 143.5t-9.5 180.5zM283 498q0 -78 3 -129t13 -96.5 t26.5 -72t44.5 -45.5t66.5 -26.5t93.5 -7.5q66 0 109 12.5t71.5 36t43 71.5t19.5 106t5 151t-5 151t-19.5 105.5t-43 71.5t-71.5 36t-109 12q-55 0 -93.5 -7t-66.5 -26.5t-44.5 -45.5t-26.5 -71.5t-13 -96.5t-3 -129z" />
<glyph unicode="p" horiz-adv-x="1073" d="M152 -420v1417h145l14 -96q58 52 143 85.5t167 33.5q52 0 95 -8.5t75 -22.5t57 -38.5t42 -49.5t29 -63.5t19 -72t10.5 -82.5t4.5 -88.5t1 -96.5q0 -67 -2.5 -117.5t-11.5 -107.5t-24.5 -98t-43 -80.5t-64.5 -63.5t-91.5 -39t-122.5 -15q-123 0 -275 31v-399zM319 154 q147 -39 267 -39q117 0 156.5 85t39.5 298q0 58 -1.5 98t-5.5 84t-12 72.5t-21.5 56t-33 42.5t-47 24.5t-63.5 9.5q-74 0 -151.5 -38.5t-127.5 -88.5v-604z" />
<glyph unicode="q" horiz-adv-x="1060" d="M115 498q0 114 9 190.5t35.5 144t74 106t124.5 60t187 21.5q167 0 364 -31v-1380l-168 -29v455q-138 -58 -295 -58q-71 0 -124 14t-89.5 44.5t-59.5 70.5t-36 102.5t-17.5 129t-4.5 160.5zM287 498q0 -90 3 -143.5t14 -104t32 -75.5t56.5 -39.5t88.5 -14.5q116 0 260 59 v684q-110 21 -209 21q-44 0 -78.5 -6t-59.5 -21t-43 -31t-30 -45t-19 -54.5t-10 -67.5t-4 -75t-1 -87z" />
<glyph unicode="r" horiz-adv-x="679" d="M154 0v997h151l14 -120q134 107 328 145v-166q-173 -25 -325 -133v-723h-168z" />
<glyph unicode="s" horiz-adv-x="890" d="M113 20l22 142q148 -43 299 -43q108 0 152.5 27t44.5 114q0 34 -0.5 49t-7.5 34.5t-17 27.5t-35 20t-55.5 20t-83.5 21q-74 18 -125 35t-87 39t-56.5 42.5t-31.5 53.5t-14 64t-3 82q0 140 83 206t269 66q61 0 152 -8.5t145 -20.5l-19 -143q-175 33 -296 33 q-103 0 -136.5 -27.5t-33.5 -95.5q0 -43 3 -62.5t19.5 -39t47 -31t89.5 -25.5q89 -23 146.5 -41t99 -41.5t62.5 -43t32.5 -55t14 -66t2.5 -87.5q0 -154 -87 -221.5t-282 -67.5q-79 0 -167.5 12t-145.5 31z" />
<glyph unicode="t" horiz-adv-x="741" d="M47 858v139h158v252l168 29v-281h278l-26 -139h-252v-610q0 -76 17.5 -101.5t82.5 -25.5q79 0 180 33l13 -142q-118 -32 -232 -32q-71 0 -116 15t-70 50t-34 81t-9 118v614h-158z" />
<glyph unicode="u" horiz-adv-x="1067" d="M143 215v782h168v-766q0 -106 105 -106q60 0 154.5 33.5t174.5 79.5v759h168v-997h-149l-14 92q-80 -46 -181.5 -80.5t-187.5 -34.5q-238 0 -238 238z" />
<glyph unicode="v" horiz-adv-x="929" d="M20 997h185l254 -815l268 815h180l-354 -997h-195z" />
<glyph unicode="w" horiz-adv-x="1419" d="M39 997h176l180 -811l221 633h187l221 -633l180 811h176l-252 -997h-190l-227 666l-230 -666h-190z" />
<glyph unicode="x" horiz-adv-x="946" d="M31 0l346 502l-332 495h193l233 -368l236 368h192l-336 -491l350 -506h-192l-250 379l-248 -379h-192z" />
<glyph unicode="y" horiz-adv-x="931" d="M20 997h185l270 -766l260 766h180l-512 -1403h-167l155 400z" />
<glyph unicode="z" horiz-adv-x="925" d="M100 0v123l518 737h-493v137h684v-131l-514 -729h530v-137h-725z" />
<glyph unicode="{" horiz-adv-x="632" d="M53 512v139q42 4 63.5 9.5t44.5 23t32.5 54t9.5 96.5v426q0 92 26 154.5t78.5 96t116.5 48.5t156 18v-143q-38 -1 -63 -4t-57.5 -14t-52 -28.5t-33.5 -51t-14 -79.5v-366q0 -41 -1 -67t-4 -64.5t-11 -63t-20.5 -50.5t-34 -41.5t-49.5 -22.5q34 -8 57.5 -31.5t35.5 -50.5 t18.5 -71.5t7.5 -75.5t1 -81v-366q0 -46 14 -79t33.5 -51t52 -28.5t57.5 -13.5t63 -4v-144q-92 3 -156 18t-116.5 49t-78.5 96.5t-26 154.5v426q0 48 -7.5 81t-18 51.5t-32.5 29t-40 14t-52 6.5z" />
<glyph unicode="|" horiz-adv-x="505" d="M184 -422v1901h138v-1901h-138z" />
<glyph unicode="}" horiz-adv-x="632" d="M53 -270q38 1 63 4t57.5 13.5t51.5 28.5t33 51t14 79v366q0 41 1 67.5t4.5 64.5t11.5 63t20.5 51t34 41.5t49.5 22.5q-34 8 -57.5 31t-35.5 50.5t-19 71.5t-8 75t-1 81v366q0 46 -14 79.5t-33 51t-51.5 28.5t-57.5 14t-63 4v143q92 -3 156 -18t116.5 -48.5t78.5 -96 t26 -154.5v-426q0 -60 9.5 -96.5t32.5 -54t44.5 -23t63.5 -9.5v-139q-34 -3 -52 -6.5t-40 -14t-32.5 -29t-18 -51.5t-7.5 -81v-426q0 -92 -26 -154.5t-78.5 -96.5t-116.5 -49t-156 -18v144z" />
<glyph unicode="~" horiz-adv-x="1024" d="M74 582q47 73 117 118t151 45q54 0 107 -20t87.5 -44.5t79 -44.5t84.5 -20q71 0 118 35t89 99l41 -123q-102 -156 -256 -156q-51 0 -102.5 20t-86.5 44.5t-79.5 44.5t-83.5 20q-70 0 -120.5 -35t-102.5 -106z" />
<glyph unicode="&#xa1;" horiz-adv-x="512" d="M166 911q0 70 14.5 91.5t75.5 21.5t75.5 -21.5t14.5 -91.5t-14.5 -91t-75.5 -21t-75.5 21t-14.5 91zM172 -412l8 723l15 357h122l17 -357l6 -723h-168z" />
<glyph unicode="&#xa2;" horiz-adv-x="894" d="M106 698q0 128 14.5 214.5t52.5 156.5t109.5 106.5t180.5 43.5v206h135v-206q94 -3 186 -21l-14 -151q-101 19 -172 24v-745q61 5 168 26l16 -147q-92 -19 -184 -25v-205h-135v205q-90 5 -154 31t-103.5 66.5t-61.5 106.5t-30 138.5t-8 175.5zM279 700q0 -85 3.5 -138.5 t14.5 -100t31.5 -72t53 -42t81.5 -21.5v747q-68 -6 -106 -38t-58 -112t-20 -223z" />
<glyph unicode="&#xa3;" d="M141 637v135h152q-68 143 -68 270q0 173 97 267t323 94q81 0 175.5 -16t162.5 -41l-16 -150q-150 59 -320 59q-143 0 -197.5 -50t-54.5 -171q0 -99 72 -262h397l-24 -135h-336q14 -54 14 -113q0 -183 -115 -389h611l6 -135h-658q-90 0 -198 -10l-6 133l114 45 q90 152 90 299q0 93 -22 170h-199z" />
<glyph unicode="&#xa4;" d="M123 248l123 135q-86 122 -86 272q0 148 86 275l-123 135l78 86l125 -137q113 90 256 90q141 0 252 -90l127 137l79 -84l-122 -137q83 -122 83 -275t-88 -270l127 -137l-79 -84l-127 135q-122 -90 -252 -90q-139 0 -254 90l-125 -135zM293 655q0 -133 85 -225t204 -92 q120 0 204 92t84 225q0 134 -84.5 226t-203.5 92t-204 -92t-85 -226z" />
<glyph unicode="&#xa5;" d="M45 1401h178l357 -721l358 721h178l-317 -625h207v-129h-273l-69 -143v-58h342v-127h-342v-319h-166v319h-342v127h342v58l-70 143h-272v129h206z" />
<glyph unicode="&#xa6;" horiz-adv-x="505" d="M184 373h138v-785h-138v785zM184 696v785h138v-785h-138z" />
<glyph unicode="&#xa7;" horiz-adv-x="1099" d="M129 537q0 169 178 280q-149 92 -149 260q0 59 13.5 109t45 94t79.5 75t121.5 48.5t166.5 17.5q185 0 336 -57l-17 -150q-141 60 -319 60q-258 0 -258 -195q0 -25 8 -47.5t18.5 -40t33.5 -35.5t39.5 -29.5t50 -27.5t52.5 -24.5t59 -25t58 -24.5q57 -25 96.5 -44.5 t86.5 -50t75 -61.5t47 -73.5t19 -91.5q0 -146 -178 -277q82 -49 123.5 -115t41.5 -167q0 -70 -22.5 -130.5t-70.5 -113t-135.5 -83t-205.5 -30.5q-193 0 -364 66l16 151q160 -69 344 -69q150 0 211.5 49.5t61.5 155.5q0 27 -8.5 51t-19.5 42.5t-35 38t-41.5 31.5t-52.5 29 t-54.5 25t-62 25.5t-60.5 25.5q-71 30 -122 58t-102 68t-77.5 91t-26.5 111zM287 563q0 -28 10 -53.5t25 -45t42 -39.5t50 -33.5t60.5 -30.5t62.5 -26.5t67.5 -26t63.5 -25.5q143 97 143 190q0 29 -10.5 55.5t-25.5 47t-42 41t-50.5 34.5t-61.5 31t-63.5 27t-67.5 26t-64 25 q-139 -90 -139 -197z" />
<glyph unicode="&#xa8;" horiz-adv-x="681" d="M68 1272q0 66 14.5 86t75.5 20t75.5 -20t14.5 -86t-14.5 -86.5t-75.5 -20.5t-75.5 20.5t-14.5 86.5zM434 1272q0 66 14.5 86t75.5 20t75.5 -20t14.5 -86t-14.5 -86.5t-75.5 -20.5t-75.5 20.5t-14.5 86.5z" />
<glyph unicode="&#xa9;" horiz-adv-x="1667" d="M113 700q0 160 46 292t135 228.5t227 149.5t313 53t312.5 -53t226 -149.5t135 -228.5t46.5 -292t-46.5 -292t-135 -228.5t-226 -149.5t-312.5 -53t-313 53t-227 149.5t-135 228.5t-46 292zM246 700q0 -132 33 -238.5t101.5 -189t183.5 -127.5t270 -45q154 0 269 45 t183.5 127.5t101.5 189t33 238.5q0 131 -33 237.5t-101.5 189t-183.5 128t-269 45.5q-155 0 -270 -45.5t-183.5 -128t-101.5 -189t-33 -237.5zM526 700q0 89 6.5 147.5t25 110t53 80t89.5 44.5t136 16q113 0 231 -27l-10 -119q-114 29 -213 29q-45 0 -73.5 -4t-50.5 -17.5 t-33 -30.5t-18 -53.5t-8.5 -74t-1.5 -103.5q0 -51 0.5 -80t3.5 -62.5t8 -50.5t14.5 -36t22.5 -27t33.5 -16t46 -10t60.5 -2q99 0 209 28l10 -116q-98 -27 -221 -27q-185 0 -252.5 84.5t-67.5 316.5z" />
<glyph unicode="&#xaa;" horiz-adv-x="772" d="M127 971q0 54 13.5 91t37 59t67.5 34t91.5 15.5t122.5 3.5h45v83q0 45 -29 62.5t-115 17.5q-69 0 -184 -34l-8 108q128 33 231 33q122 0 177 -46.5t55 -140.5v-456h-113l-10 49q-97 -62 -186 -62q-195 0 -195 183zM256 979q0 -51 21.5 -69.5t64.5 -18.5q76 0 162 59v123 h-62q-41 0 -65.5 -1.5t-50.5 -6.5t-39.5 -15t-22 -27.5t-8.5 -43.5z" />
<glyph unicode="&#xab;" horiz-adv-x="1009" d="M80 430v139l319 369l103 -100l-289 -338l289 -338l-103 -101zM508 430v139l319 369l103 -100l-289 -338l289 -338l-103 -101z" />
<glyph unicode="&#xac;" horiz-adv-x="1056" d="M121 600v131h780v-481h-137v350h-643z" />
<glyph unicode="&#xad;" horiz-adv-x="759" d="M113 479v146h534v-146h-534z" />
<glyph unicode="&#xae;" horiz-adv-x="1333" d="M113 887q0 258 139.5 407.5t415.5 149.5q275 0 414 -149.5t139 -407.5t-139 -407.5t-414 -149.5q-276 0 -415.5 149.5t-139.5 407.5zM231 887q0 -79 13 -144t44.5 -122t81 -96t125 -61t173.5 -22q97 0 172 22t124 61t80.5 96t44.5 122t13 144q0 100 -21.5 177.5t-70 139 t-135 94.5t-207.5 33q-122 0 -208.5 -33t-135.5 -94.5t-71 -139t-22 -177.5zM459 594v594h250q96 0 132 -48t36 -141q0 -144 -95 -176l148 -229h-121l-143 219h-103v-219h-104zM563 901h131q44 0 59 22.5t15 75.5q0 58 -18 79.5t-76 21.5h-111v-199z" />
<glyph unicode="&#xaf;" horiz-adv-x="681" d="M84 1190v123h514v-123h-514z" />
<glyph unicode="&#xb0;" horiz-adv-x="698" d="M106 1161q0 101 71 172.5t171 71.5t171 -71.5t71 -172.5t-71 -172t-171 -71t-171 71t-71 172zM199 1161q0 -63 43.5 -107t105.5 -44t106 44t44 107t-44 107.5t-106 44.5t-105.5 -44.5t-43.5 -107.5z" />
<glyph unicode="&#xb1;" horiz-adv-x="1024" d="M121 0v131h780v-131h-780zM121 592v131h321v326h138v-326h321v-131h-321v-326h-138v326h-321z" />
<glyph unicode="&#xb2;" horiz-adv-x="792" d="M121 489v107q208 222 280 313q67 83 99 146t32 121q0 65 -34.5 93.5t-118.5 28.5q-122 0 -238 -53l-14 115q117 55 262 55q152 0 217.5 -58.5t65.5 -172.5q0 -81 -37 -154t-125 -180q-42 -50 -221 -248h383v-113h-551z" />
<glyph unicode="&#xb3;" horiz-adv-x="792" d="M111 516l14 117q119 -45 235 -45q99 0 141 29.5t42 109.5v41q0 68 -38 95.5t-114 27.5h-178v115h115q107 0 147.5 27.5t40.5 105.5v43q0 64 -34.5 91t-116.5 27q-97 0 -224 -43l-12 115q125 41 238 41q145 0 215.5 -53t70.5 -162v-43q0 -75 -24 -120.5t-80 -69.5 q70 -22 100.5 -70t30.5 -135v-23q0 -136 -76.5 -199t-241.5 -63q-133 0 -251 41z" />
<glyph unicode="&#xb4;" horiz-adv-x="681" d="M184 1235l387 205l9 -158l-367 -166z" />
<glyph unicode="&#xb5;" horiz-adv-x="1067" d="M143 -420v1417h168v-766q0 -106 105 -106q60 0 156.5 34t175.5 79v759h165v-997h-149l-14 92q-80 -46 -181.5 -80.5t-187.5 -34.5q-29 0 -70 9v-377z" />
<glyph unicode="&#xb6;" horiz-adv-x="1175" d="M51 993q0 198 121.5 303t339.5 105h608l-18 -123h-127v-1665l-139 -27v1692h-218v-1665l-139 -27v1014q-184 0 -306 115t-122 278z" />
<glyph unicode="&#xb7;" horiz-adv-x="477" d="M150 582q0 70 14.5 91t75.5 21t75.5 -21t14.5 -91t-14.5 -91.5t-75.5 -21.5t-75.5 21.5t-14.5 91.5z" />
<glyph unicode="&#xb8;" horiz-adv-x="681" d="M188 -397l19 92q66 -14 125 -14q51 0 72.5 7.5t21.5 24.5v72q0 33 -80 33q-17 0 -37 -4l-59 26l39 164h98l-25 -100q100 0 148.5 -28t48.5 -89v-84q0 -61 -50.5 -89t-154.5 -28q-82 0 -166 17z" />
<glyph unicode="&#xb9;" horiz-adv-x="792" d="M170 1290l217 111h111v-799h151v-113h-442v113h158v653l-164 -81z" />
<glyph unicode="&#xba;" horiz-adv-x="829" d="M135 1116q0 80 12.5 137t42.5 102t86 67t138 22q66 0 115 -15t80 -42t50 -69t26 -90t7 -112t-7 -112t-26 -90t-50 -69t-80 -42t-115 -15q-82 0 -138 22t-86 67t-42.5 102t-12.5 137zM266 1116q0 -131 27 -175t121 -44q93 0 120 44t27 175t-27 175t-120 44q-94 0 -121 -44 t-27 -175z" />
<glyph unicode="&#xbb;" horiz-adv-x="1009" d="M80 162l289 338l-289 338l102 100l320 -369v-139l-320 -369zM508 162l289 338l-289 338l102 100l320 -369v-139l-320 -369z" />
<glyph unicode="&#xbc;" horiz-adv-x="1894" d="M170 1290l217 111h111v-799h151v-113h-442v113h158v653l-164 -81zM602 18l604 1428l127 -41l-606 -1428zM1151 236v112l422 563h145v-563h123v-112h-123v-236h-135v236h-432zM1296 348h287v381z" />
<glyph unicode="&#xbd;" horiz-adv-x="1892" d="M170 1290l217 111h111v-799h151v-113h-442v113h158v653l-164 -81zM582 18l604 1428l127 -41l-606 -1428zM1221 0v106q203 217 280 314q67 83 99 145.5t32 120.5q0 65 -34.5 94t-118.5 29q-122 0 -238 -53l-14 114q119 56 262 56q152 0 217.5 -59t65.5 -173 q0 -81 -37 -154t-125 -180q-32 -38 -61 -71t-82 -90.5t-78 -85.5h383v-113h-551z" />
<glyph unicode="&#xbe;" horiz-adv-x="1894" d="M111 516l14 117q119 -45 235 -45q99 0 141 29.5t42 109.5v41q0 68 -38 95.5t-114 27.5h-178v115h115q107 0 147.5 27.5t40.5 105.5v43q0 64 -34.5 91t-116.5 27q-97 0 -224 -43l-12 115q125 41 238 41q145 0 215.5 -53t70.5 -162v-43q0 -75 -24 -120.5t-80 -69.5 q70 -22 100.5 -70t30.5 -135v-23q0 -136 -76.5 -199t-241.5 -63q-133 0 -251 41zM602 18l604 1428l127 -41l-606 -1428zM1151 236v112l422 563h145v-563h123v-112h-123v-236h-135v236h-432zM1296 348h287v381z" />
<glyph unicode="&#xbf;" horiz-adv-x="921" d="M111 -80q0 69 11 124.5t27.5 90.5t45.5 69t53.5 54.5t63.5 53t65 57.5q45 44 69 93t50 144l135 -45q-23 -118 -52 -180.5t-104 -126.5q-17 -14 -46.5 -37t-43 -34.5t-34.5 -32.5t-30.5 -39t-20.5 -45t-15 -60t-4 -74q0 -62 9 -100.5t34 -67t70.5 -40t117.5 -11.5 q135 0 293 51l16 -149q-180 -49 -317 -49q-213 0 -303 83t-90 271zM459 911q0 70 14.5 91.5t75.5 21.5t75.5 -21.5t14.5 -91.5t-14.5 -91t-75.5 -21t-75.5 21t-14.5 91z" />
<glyph unicode="&#xc0;" horiz-adv-x="1253" d="M43 0l481 1401h201l485 -1401h-182l-131 391h-553l-127 -391h-174zM387 1657l8 158l387 -205l-28 -119zM389 530h463l-234 709z" />
<glyph unicode="&#xc1;" horiz-adv-x="1253" d="M43 0l481 1401h201l485 -1401h-182l-131 391h-553l-127 -391h-174zM389 530h463l-234 709zM469 1610l387 205l8 -158l-366 -166z" />
<glyph unicode="&#xc2;" horiz-adv-x="1253" d="M43 0l481 1401h201l485 -1401h-182l-131 391h-553l-127 -391h-174zM313 1610l308 186l317 -188l-55 -113l-262 143l-265 -145zM389 530h463l-234 709z" />
<glyph unicode="&#xc3;" horiz-adv-x="1253" d="M43 0l481 1401h201l485 -1401h-182l-131 391h-553l-127 -391h-174zM338 1663q31 32 77 51t93 19q59 0 137.5 -32t108.5 -32q80 0 137 57l24 -120q-67 -70 -170 -70q-48 1 -127.5 32t-117.5 31q-81 0 -138 -57zM389 530h463l-234 709z" />
<glyph unicode="&#xc4;" horiz-adv-x="1253" d="M43 0l481 1401h201l485 -1401h-182l-131 391h-553l-127 -391h-174zM352 1647q0 66 14.5 86t75.5 20t75.5 -20t14.5 -86t-14.5 -86.5t-75.5 -20.5t-75.5 20.5t-14.5 86.5zM389 530h463l-234 709zM719 1647q0 66 14.5 86t75.5 20t75.5 -20t14.5 -86t-14.5 -86.5 t-75.5 -20.5t-75.5 20.5t-14.5 86.5z" />
<glyph unicode="&#xc5;" horiz-adv-x="1253" d="M43 0l481 1401h201l485 -1401h-182l-131 391h-553l-127 -391h-174zM389 530h463l-234 709zM463 1645q0 70 45 113.5t119 43.5q73 0 117 -43t44 -114t-44 -114.5t-117 -43.5t-118.5 43.5t-45.5 114.5zM545 1645q0 -39 21.5 -60.5t60.5 -21.5q38 0 59 22t21 60t-21 59.5 t-59 21.5q-39 0 -60.5 -21t-21.5 -60z" />
<glyph unicode="&#xc6;" horiz-adv-x="1761" d="M43 0l619 1401h983v-152h-711l82 -444h561v-152h-533l91 -501h510v-152h-652l-73 391h-529l-172 -391h-176zM455 530h440l-135 738z" />
<glyph unicode="&#xc7;" horiz-adv-x="1083" d="M133 651v99q0 100 5 174.5t18.5 148t37.5 125t62.5 96.5t92 72t127.5 42t169 15q190 0 346 -39l-12 -155q-68 18 -162.5 30.5t-161.5 12.5q-60 0 -105.5 -6t-81.5 -21.5t-61 -35t-43 -54t-28.5 -71t-16.5 -93.5t-8 -113.5t-2 -138.5v-75q0 -68 1 -115.5t4.5 -98.5 t9 -84.5t15.5 -68.5t23.5 -56t34 -42.5t45.5 -32.5t58.5 -20.5t73.5 -13t90 -3.5q164 0 315 41l12 -154q-152 -39 -332 -39h-8l-18 -73q99 0 147.5 -28t48.5 -89v-84q0 -61 -50 -89t-154 -28q-82 0 -166 17l18 92q66 -14 125 -14q51 0 72.5 7.5t21.5 24.5v72q0 33 -80 33 q-16 0 -36 -4l-60 26l33 142q-64 6 -116.5 20t-92.5 33.5t-71.5 50t-54 62.5t-38 77.5t-24.5 88.5t-14.5 102t-7 111.5t-1.5 123.5z" />
<glyph unicode="&#xc8;" horiz-adv-x="1081" d="M164 0v1401h799v-152h-627v-454h561v-152h-561v-491h629v-152h-801zM362 1657l9 158l387 -205l-29 -119z" />
<glyph unicode="&#xc9;" horiz-adv-x="1081" d="M164 0v1401h799v-152h-627v-454h561v-152h-561v-491h629v-152h-801zM403 1610l388 205l8 -158l-367 -166z" />
<glyph unicode="&#xca;" horiz-adv-x="1081" d="M164 0v1401h799v-152h-627v-454h561v-152h-561v-491h629v-152h-801zM227 1610l308 186l317 -188l-55 -113l-262 143l-265 -145z" />
<glyph unicode="&#xcb;" horiz-adv-x="1081" d="M164 0v1401h799v-152h-627v-454h561v-152h-561v-491h629v-152h-801zM287 1647q0 66 14.5 86t75.5 20t75.5 -20t14.5 -86t-14.5 -86.5t-75.5 -20.5t-75.5 20.5t-14.5 86.5zM653 1647q0 66 14.5 86t75.5 20t76 -20t15 -86t-15 -86.5t-76 -20.5t-75.5 20.5t-14.5 86.5z" />
<glyph unicode="&#xcc;" horiz-adv-x="516" d="M20 1657l9 158l387 -205l-29 -119zM172 0v1401h172v-1401h-172z" />
<glyph unicode="&#xcd;" horiz-adv-x="516" d="M102 1610l387 205l9 -158l-367 -166zM172 0v1401h172v-1401h-172z" />
<glyph unicode="&#xce;" horiz-adv-x="516" d="M-53 1610l307 186l317 -188l-55 -113l-262 143l-264 -145zM172 0v1401h172v-1401h-172z" />
<glyph unicode="&#xcf;" horiz-adv-x="516" d="M-14 1647q0 66 14.5 86t75.5 20t75.5 -20t14.5 -86t-14.5 -86.5t-75.5 -20.5t-75.5 20.5t-14.5 86.5zM172 0v1401h172v-1401h-172zM352 1647q0 66 14.5 86t75.5 20t75.5 -20t14.5 -86t-14.5 -86.5t-75.5 -20.5t-75.5 20.5t-14.5 86.5z" />
<glyph unicode="&#xd0;" horiz-adv-x="1243" d="M16 633v149h148v619h444q77 0 140 -9.5t112 -26t86.5 -44.5t64 -58.5t45 -76t29.5 -88.5t17 -103.5t8 -114.5t2 -128v-101q0 -98 -3 -161t-13.5 -138.5t-31.5 -122.5t-57.5 -95.5t-90 -74.5t-130.5 -42.5t-178 -16.5h-444v633h-148zM336 152h274q47 0 85.5 4.5t69 16 t54 24.5t41.5 36t30.5 44t21 56t13.5 64.5t7.5 76.5t3 85t0.5 96v93q0 77 -1 124t-6 103t-14 88t-25 67.5t-39.5 54t-57.5 35.5t-79 23t-104 6h-274v-467h307v-149h-307v-481z" />
<glyph unicode="&#xd1;" horiz-adv-x="1325" d="M164 0v1401h198l629 -1137v1137h168v-1401h-198l-629 1124v-1124h-168zM373 1663q31 32 77 51t93 19q59 0 137 -32t108 -32q81 0 138 57l24 -120q-67 -70 -170 -70q-48 1 -127.5 32t-117.5 31q-81 0 -138 -57z" />
<glyph unicode="&#xd2;" horiz-adv-x="1298" d="M135 651v99q0 96 5 169.5t19 146.5t38.5 125t63 98t92.5 74t128 44t168 16t168 -16t128 -44t92.5 -74t63 -98t38.5 -125t19 -146.5t5 -169.5v-99q0 -96 -5 -169.5t-19 -146.5t-38.5 -125.5t-63 -98.5t-92.5 -74t-128 -44t-168 -16t-168 16t-128 44t-92.5 74t-63 98.5 t-38.5 125.5t-19 146.5t-5 169.5zM311 657q0 -103 2.5 -162t13 -128.5t32 -106t58.5 -71t94.5 -47.5t137.5 -13t137.5 13t94.5 47.5t58.5 71t32 106t13 128.5t2.5 162v86q0 103 -2.5 162t-13 129t-32 106.5t-58.5 70.5t-94.5 47.5t-137.5 13.5t-137.5 -13.5t-94.5 -47.5 t-58.5 -70.5t-32 -106.5t-13 -129t-2.5 -162v-86zM410 1657l8 158l387 -205l-29 -119z" />
<glyph unicode="&#xd3;" horiz-adv-x="1298" d="M135 651v99q0 96 5 169.5t19 146.5t38.5 125t63 98t92.5 74t128 44t168 16t168 -16t128 -44t92.5 -74t63 -98t38.5 -125t19 -146.5t5 -169.5v-99q0 -96 -5 -169.5t-19 -146.5t-38.5 -125.5t-63 -98.5t-92.5 -74t-128 -44t-168 -16t-168 16t-128 44t-92.5 74t-63 98.5 t-38.5 125.5t-19 146.5t-5 169.5zM311 657q0 -103 2.5 -162t13 -128.5t32 -106t58.5 -71t94.5 -47.5t137.5 -13t137.5 13t94.5 47.5t58.5 71t32 106t13 128.5t2.5 162v86q0 103 -2.5 162t-13 129t-32 106.5t-58.5 70.5t-94.5 47.5t-137.5 13.5t-137.5 -13.5t-94.5 -47.5 t-58.5 -70.5t-32 -106.5t-13 -129t-2.5 -162v-86zM492 1610l387 205l8 -158l-367 -166z" />
<glyph unicode="&#xd4;" horiz-adv-x="1298" d="M135 651v99q0 96 5 169.5t19 146.5t38.5 125t63 98t92.5 74t128 44t168 16t168 -16t128 -44t92.5 -74t63 -98t38.5 -125t19 -146.5t5 -169.5v-99q0 -96 -5 -169.5t-19 -146.5t-38.5 -125.5t-63 -98.5t-92.5 -74t-128 -44t-168 -16t-168 16t-128 44t-92.5 74t-63 98.5 t-38.5 125.5t-19 146.5t-5 169.5zM311 657q0 -103 2.5 -162t13 -128.5t32 -106t58.5 -71t94.5 -47.5t137.5 -13t137.5 13t94.5 47.5t58.5 71t32 106t13 128.5t2.5 162v86q0 103 -2.5 162t-13 129t-32 106.5t-58.5 70.5t-94.5 47.5t-137.5 13.5t-137.5 -13.5t-94.5 -47.5 t-58.5 -70.5t-32 -106.5t-13 -129t-2.5 -162v-86zM336 1610l307 186l318 -188l-56 -113l-262 143l-264 -145z" />
<glyph unicode="&#xd5;" horiz-adv-x="1298" d="M135 651v99q0 96 5 169.5t19 146.5t38.5 125t63 98t92.5 74t128 44t168 16t168 -16t128 -44t92.5 -74t63 -98t38.5 -125t19 -146.5t5 -169.5v-99q0 -96 -5 -169.5t-19 -146.5t-38.5 -125.5t-63 -98.5t-92.5 -74t-128 -44t-168 -16t-168 16t-128 44t-92.5 74t-63 98.5 t-38.5 125.5t-19 146.5t-5 169.5zM311 657q0 -103 2.5 -162t13 -128.5t32 -106t58.5 -71t94.5 -47.5t137.5 -13t137.5 13t94.5 47.5t58.5 71t32 106t13 128.5t2.5 162v86q0 103 -2.5 162t-13 129t-32 106.5t-58.5 70.5t-94.5 47.5t-137.5 13.5t-137.5 -13.5t-94.5 -47.5 t-58.5 -70.5t-32 -106.5t-13 -129t-2.5 -162v-86zM360 1663q31 32 77 51t93 19q59 0 137.5 -32t108.5 -32q80 0 137 57l25 -120q-67 -70 -170 -70q-48 1 -128 32t-118 31q-80 0 -137 -57z" />
<glyph unicode="&#xd6;" horiz-adv-x="1298" d="M135 651v99q0 96 5 169.5t19 146.5t38.5 125t63 98t92.5 74t128 44t168 16t168 -16t128 -44t92.5 -74t63 -98t38.5 -125t19 -146.5t5 -169.5v-99q0 -96 -5 -169.5t-19 -146.5t-38.5 -125.5t-63 -98.5t-92.5 -74t-128 -44t-168 -16t-168 16t-128 44t-92.5 74t-63 98.5 t-38.5 125.5t-19 146.5t-5 169.5zM311 657q0 -103 2.5 -162t13 -128.5t32 -106t58.5 -71t94.5 -47.5t137.5 -13t137.5 13t94.5 47.5t58.5 71t32 106t13 128.5t2.5 162v86q0 103 -2.5 162t-13 129t-32 106.5t-58.5 70.5t-94.5 47.5t-137.5 13.5t-137.5 -13.5t-94.5 -47.5 t-58.5 -70.5t-32 -106.5t-13 -129t-2.5 -162v-86zM375 1647q0 66 14.5 86t75.5 20t75.5 -20t14.5 -86t-14.5 -86.5t-75.5 -20.5t-75.5 20.5t-14.5 86.5zM741 1647q0 66 14.5 86t75.5 20t76 -20t15 -86t-15 -86.5t-76 -20.5t-75.5 20.5t-14.5 86.5z" />
<glyph unicode="&#xd7;" horiz-adv-x="1024" d="M164 324l254 254l-254 253l92 93l254 -254l254 254l92 -93l-254 -253l254 -254l-92 -93l-254 254l-254 -254z" />
<glyph unicode="&#xd8;" horiz-adv-x="1298" d="M135 651v99q0 96 5 169.5t19 146.5t38.5 125t63 98t92.5 74t128 44t168 16q173 0 279 -53l71 139l113 -59l-80 -154q75 -81 103 -213.5t28 -332.5v-99q0 -96 -5 -169.5t-19 -146.5t-38.5 -125.5t-63 -98.5t-92.5 -74t-128 -44t-168 -16q-168 0 -274 50l-76 -148l-113 60 l84 161q-78 81 -106.5 214t-28.5 337zM311 657q0 -156 8 -243.5t37 -147.5l498 963q-70 43 -205 43q-80 0 -137.5 -13.5t-94.5 -47.5t-58.5 -70.5t-32 -106.5t-13 -129t-2.5 -162v-86zM449 168q68 -39 200 -39q80 0 137.5 13t94.5 47.5t58.5 71t32 106t13 128.5t2.5 162v86 q0 147 -8 234.5t-35 148.5z" />
<glyph unicode="&#xd9;" horiz-adv-x="1290" d="M152 465v936h172v-952q0 -160 76.5 -240t244.5 -80t245 80t77 240v952h172v-936q0 -83 -14.5 -152.5t-50.5 -133t-91 -107t-141 -69.5t-197 -26t-196.5 26t-141 69.5t-91 107t-50 133t-14.5 152.5zM406 1657l8 158l387 -205l-29 -119z" />
<glyph unicode="&#xda;" horiz-adv-x="1290" d="M152 465v936h172v-952q0 -160 76.5 -240t244.5 -80t245 80t77 240v952h172v-936q0 -83 -14.5 -152.5t-50.5 -133t-91 -107t-141 -69.5t-197 -26t-196.5 26t-141 69.5t-91 107t-50 133t-14.5 152.5zM487 1610l387 205l9 -158l-367 -166z" />
<glyph unicode="&#xdb;" horiz-adv-x="1290" d="M152 465v936h172v-952q0 -160 76.5 -240t244.5 -80t245 80t77 240v952h172v-936q0 -83 -14.5 -152.5t-50.5 -133t-91 -107t-141 -69.5t-197 -26t-196.5 26t-141 69.5t-91 107t-50 133t-14.5 152.5zM332 1610l307 186l317 -188l-55 -113l-262 143l-264 -145z" />
<glyph unicode="&#xdc;" horiz-adv-x="1290" d="M152 465v936h172v-952q0 -160 76.5 -240t244.5 -80t245 80t77 240v952h172v-936q0 -83 -14.5 -152.5t-50.5 -133t-91 -107t-141 -69.5t-197 -26t-196.5 26t-141 69.5t-91 107t-50 133t-14.5 152.5zM371 1647q0 66 14.5 86t75.5 20t75.5 -20t14.5 -86t-14.5 -86.5 t-75.5 -20.5t-75.5 20.5t-14.5 86.5zM737 1647q0 66 14.5 86t75.5 20t76 -20t15 -86t-15 -86.5t-76 -20.5t-75.5 20.5t-14.5 86.5z" />
<glyph unicode="&#xdd;" horiz-adv-x="1120" d="M14 1401h189l356 -727l359 727h188l-461 -912v-489h-170v489zM403 1610l388 205l8 -158l-367 -166z" />
<glyph unicode="&#xde;" horiz-adv-x="1140" d="M164 0v1401h172v-246h330q99 0 168 -19t111.5 -51.5t66 -90t31.5 -121t8 -156.5q0 -96 -8.5 -161.5t-32.5 -123.5t-66 -91t-110 -52t-164 -19h-334v-270h-172zM336 422h307q53 0 91.5 7.5t64.5 25t41.5 38.5t23.5 58t10.5 72.5t2.5 91.5q0 122 -21 182.5t-69 83.5 t-144 23h-307v-582z" />
<glyph unicode="&#xdf;" horiz-adv-x="1204" d="M158 0v1071q0 383 370 383q178 0 274.5 -87.5t96.5 -240.5q0 -100 -70 -198q-16 -23 -54 -69t-55.5 -75t-17.5 -55q0 -11 2 -20.5t7.5 -18.5t10 -15.5t16.5 -15.5t19.5 -14.5t26 -16t29.5 -16.5t36 -19.5t40 -21.5q59 -33 91 -55.5t61.5 -59t41 -85t11.5 -119.5 q0 -145 -74 -210t-260 -65q-119 0 -248 39l23 144q43 -17 108.5 -29t118.5 -12q98 0 133 28.5t35 104.5q0 67 -26.5 101.5t-112.5 80.5q-13 7 -49.5 25.5t-48.5 25.5t-39.5 24.5t-37.5 28.5t-27.5 31.5t-24 40.5t-12 48t-5.5 61t14 68.5t29 57t44.5 59t39.5 52.5 q37 55 51 97t14 90q0 89 -55 132.5t-154 43.5q-113 0 -159.5 -59.5t-46.5 -190.5v-1069h-166z" />
<glyph unicode="&#xe0;" horiz-adv-x="1003" d="M106 260q0 53 7 95t23.5 74t37.5 55.5t54.5 39.5t68.5 26t85.5 15.5t99 7.5t116.5 2q43 0 100 -2v148q0 80 -41.5 119t-152.5 39q-143 0 -326 -52l-10 144q71 21 169 35t173 14q185 0 270.5 -75t85.5 -224v-721h-149l-17 88q-159 -108 -323 -108q-271 0 -271 280z M262 1282l8 158l387 -205l-28 -119zM274 272q0 -84 32.5 -118.5t109.5 -34.5q69 0 144.5 29t137.5 75v219q-59 2 -120 2q-66 0 -106.5 -2.5t-83 -12t-64.5 -28t-36 -50.5t-14 -79z" />
<glyph unicode="&#xe1;" horiz-adv-x="1003" d="M106 260q0 53 7 95t23.5 74t37.5 55.5t54.5 39.5t68.5 26t85.5 15.5t99 7.5t116.5 2q43 0 100 -2v148q0 80 -41.5 119t-152.5 39q-143 0 -326 -52l-10 144q71 21 169 35t173 14q185 0 270.5 -75t85.5 -224v-721h-149l-17 88q-159 -108 -323 -108q-271 0 -271 280z M274 272q0 -84 32.5 -118.5t109.5 -34.5q69 0 144.5 29t137.5 75v219q-59 2 -120 2q-66 0 -106.5 -2.5t-83 -12t-64.5 -28t-36 -50.5t-14 -79zM344 1235l387 205l8 -158l-366 -166z" />
<glyph unicode="&#xe2;" horiz-adv-x="1003" d="M106 260q0 53 7 95t23.5 74t37.5 55.5t54.5 39.5t68.5 26t85.5 15.5t99 7.5t116.5 2q43 0 100 -2v148q0 80 -41.5 119t-152.5 39q-143 0 -326 -52l-10 144q71 21 169 35t173 14q185 0 270.5 -75t85.5 -224v-721h-149l-17 88q-159 -108 -323 -108q-271 0 -271 280z M188 1235l308 186l317 -188l-55 -113l-262 144l-265 -146zM274 272q0 -84 32.5 -118.5t109.5 -34.5q69 0 144.5 29t137.5 75v219q-59 2 -120 2q-66 0 -106.5 -2.5t-83 -12t-64.5 -28t-36 -50.5t-14 -79z" />
<glyph unicode="&#xe3;" horiz-adv-x="1003" d="M106 260q0 53 7 95t23.5 74t37.5 55.5t54.5 39.5t68.5 26t85.5 15.5t99 7.5t116.5 2q43 0 100 -2v148q0 80 -41.5 119t-152.5 39q-143 0 -326 -52l-10 144q71 21 169 35t173 14q185 0 270.5 -75t85.5 -224v-721h-149l-17 88q-159 -108 -323 -108q-271 0 -271 280z M213 1288q31 32 77 51t93 19q59 0 137.5 -32t108.5 -32q79 0 137 58l25 -121q-67 -70 -170 -70q-48 1 -128 32.5t-118 31.5q-79 0 -137 -58zM274 272q0 -84 32.5 -118.5t109.5 -34.5q69 0 144.5 29t137.5 75v219q-59 2 -120 2q-66 0 -106.5 -2.5t-83 -12t-64.5 -28 t-36 -50.5t-14 -79z" />
<glyph unicode="&#xe4;" horiz-adv-x="1003" d="M106 260q0 53 7 95t23.5 74t37.5 55.5t54.5 39.5t68.5 26t85.5 15.5t99 7.5t116.5 2q43 0 100 -2v148q0 80 -41.5 119t-152.5 39q-143 0 -326 -52l-10 144q71 21 169 35t173 14q185 0 270.5 -75t85.5 -224v-721h-149l-17 88q-159 -108 -323 -108q-271 0 -271 280z M227 1272q0 66 14.5 86t75.5 20t76 -20t15 -86t-15 -86.5t-76 -20.5t-75.5 20.5t-14.5 86.5zM274 272q0 -84 32.5 -118.5t109.5 -34.5q69 0 144.5 29t137.5 75v219q-59 2 -120 2q-66 0 -106.5 -2.5t-83 -12t-64.5 -28t-36 -50.5t-14 -79zM594 1272q0 66 14.5 86t75.5 20 t75.5 -20t14.5 -86t-14.5 -86.5t-75.5 -20.5t-75.5 20.5t-14.5 86.5z" />
<glyph unicode="&#xe5;" horiz-adv-x="1003" d="M106 260q0 53 7 95t23.5 74t37.5 55.5t54.5 39.5t68.5 26t85.5 15.5t99 7.5t116.5 2q43 0 100 -2v148q0 80 -41.5 119t-152.5 39q-143 0 -326 -52l-10 144q71 21 169 35t173 14q185 0 270.5 -75t85.5 -224v-721h-149l-17 88q-159 -108 -323 -108q-271 0 -271 280z M274 272q0 -84 32.5 -118.5t109.5 -34.5q69 0 144.5 29t137.5 75v219q-59 2 -120 2q-66 0 -106.5 -2.5t-83 -12t-64.5 -28t-36 -50.5t-14 -79zM338 1270q0 70 45 113.5t119 43.5q73 0 117.5 -43t44.5 -114t-44.5 -114.5t-117.5 -43.5t-118.5 43.5t-45.5 114.5zM420 1270 q0 -39 21.5 -60.5t60.5 -21.5q38 0 59 22t21 60t-21 60t-59 22q-39 0 -60.5 -21.5t-21.5 -60.5z" />
<glyph unicode="&#xe6;" horiz-adv-x="1585" d="M106 260q0 54 7 96.5t24 74.5t37.5 55.5t54.5 39.5t68 25.5t85.5 15t99.5 7t116 1.5q45 0 100 -2v123q0 185 -196 185q-143 0 -324 -54l-8 144q162 49 340 49q203 0 287 -119q55 61 126.5 90t176.5 29q98 0 167 -23t110 -61.5t64 -104t30.5 -134.5t7.5 -169v-79h-619v-50 q0 -166 52.5 -224t201.5 -58q68 0 169 13.5t165 35.5l10 -143q-77 -20 -180 -33t-180 -13q-242 0 -334 136q-86 -71 -170.5 -103.5t-194.5 -32.5q-63 0 -112.5 13t-92 43t-65.5 87.5t-23 139.5zM274 272q0 -87 38 -121t114 -34q148 0 291 112q-19 70 -19 213q-43 2 -120 2 q-66 0 -105 -2.5t-82 -11.5t-65.5 -27.5t-37 -50.5t-14.5 -80zM860 584h459v75q0 116 -50 169t-169 53q-130 0 -185 -66.5t-55 -208.5v-22z" />
<glyph unicode="&#xe7;" horiz-adv-x="876" d="M106 498q0 109 10 186t36.5 144t73 107t120 62.5t176.5 22.5q141 0 262 -23l-14 -151q-133 28 -248 28q-56 0 -91.5 -7t-67.5 -29t-48.5 -63.5t-26 -108t-9.5 -166.5q0 -68 2.5 -114t8.5 -89t17.5 -69.5t29.5 -48.5t45 -33t62.5 -17t83.5 -6q93 0 238 29l16 -148 q-132 -27 -256 -27l-18 -73q100 0 148.5 -28t48.5 -89v-84q0 -61 -50.5 -89t-154.5 -28q-82 0 -166 17l18 92q66 -14 125 -14q51 0 72.5 7.5t21.5 24.5v72q0 33 -79 33q-17 0 -37 -4l-60 26l33 144q-81 9 -138.5 36t-93 68t-56 105.5t-27.5 135t-7 169.5z" />
<glyph unicode="&#xe8;" horiz-adv-x="999" d="M106 524q0 95 10 166.5t37.5 136t72.5 105.5t117.5 64.5t170.5 23.5q97 0 166.5 -23t111 -61.5t65.5 -103.5t32 -135t8 -169v-86h-618v-43q0 -116 25.5 -176.5t77.5 -83t150 -22.5q69 0 165 14.5t165 36.5l10 -141q-75 -23 -175.5 -36.5t-184.5 -13.5q-76 0 -134.5 12 t-101.5 33t-73 57t-49 77.5t-29.5 101.5t-14.5 121t-4 145zM260 1282l8 158l387 -205l-28 -119zM279 575h450v82q0 116 -49 170t-166 54q-123 0 -179 -64t-56 -211v-31z" />
<glyph unicode="&#xe9;" horiz-adv-x="999" d="M106 524q0 95 10 166.5t37.5 136t72.5 105.5t117.5 64.5t170.5 23.5q97 0 166.5 -23t111 -61.5t65.5 -103.5t32 -135t8 -169v-86h-618v-43q0 -116 25.5 -176.5t77.5 -83t150 -22.5q69 0 165 14.5t165 36.5l10 -141q-75 -23 -175.5 -36.5t-184.5 -13.5q-76 0 -134.5 12 t-101.5 33t-73 57t-49 77.5t-29.5 101.5t-14.5 121t-4 145zM279 575h450v82q0 116 -49 170t-166 54q-123 0 -179 -64t-56 -211v-31zM342 1235l387 205l8 -158l-366 -166z" />
<glyph unicode="&#xea;" horiz-adv-x="999" d="M106 524q0 95 10 166.5t37.5 136t72.5 105.5t117.5 64.5t170.5 23.5q97 0 166.5 -23t111 -61.5t65.5 -103.5t32 -135t8 -169v-86h-618v-43q0 -116 25.5 -176.5t77.5 -83t150 -22.5q69 0 165 14.5t165 36.5l10 -141q-75 -23 -175.5 -36.5t-184.5 -13.5q-76 0 -134.5 12 t-101.5 33t-73 57t-49 77.5t-29.5 101.5t-14.5 121t-4 145zM186 1235l308 186l317 -188l-55 -113l-262 144l-265 -146zM279 575h450v82q0 116 -49 170t-166 54q-123 0 -179 -64t-56 -211v-31z" />
<glyph unicode="&#xeb;" horiz-adv-x="999" d="M106 524q0 95 10 166.5t37.5 136t72.5 105.5t117.5 64.5t170.5 23.5q97 0 166.5 -23t111 -61.5t65.5 -103.5t32 -135t8 -169v-86h-618v-43q0 -116 25.5 -176.5t77.5 -83t150 -22.5q69 0 165 14.5t165 36.5l10 -141q-75 -23 -175.5 -36.5t-184.5 -13.5q-76 0 -134.5 12 t-101.5 33t-73 57t-49 77.5t-29.5 101.5t-14.5 121t-4 145zM225 1272q0 66 14.5 86t75.5 20t76 -20t15 -86t-15 -86.5t-76 -20.5t-75.5 20.5t-14.5 86.5zM279 575h450v82q0 116 -49 170t-166 54q-123 0 -179 -64t-56 -211v-31zM592 1272q0 66 14.5 86t75.5 20t75.5 -20 t14.5 -86t-14.5 -86.5t-75.5 -20.5t-75.5 20.5t-14.5 86.5z" />
<glyph unicode="&#xec;" horiz-adv-x="477" d="M0 1282l8 158l387 -205l-28 -119zM156 0v997h166v-997h-166z" />
<glyph unicode="&#xed;" horiz-adv-x="477" d="M82 1235l387 205l8 -158l-366 -166zM156 0v997h166v-997h-166z" />
<glyph unicode="&#xee;" horiz-adv-x="477" d="M-74 1235l307 186l318 -188l-55 -113l-263 144l-264 -146zM156 0v997h166v-997h-166z" />
<glyph unicode="&#xef;" horiz-adv-x="477" d="M-35 1272q0 66 14.5 86t75.5 20t75.5 -20t14.5 -86t-14.5 -86.5t-75.5 -20.5t-75.5 20.5t-14.5 86.5zM156 0v997h166v-997h-166zM332 1272q0 66 14.5 86t75.5 20t75.5 -20t14.5 -86t-14.5 -86.5t-75.5 -20.5t-75.5 20.5t-14.5 86.5z" />
<glyph unicode="&#xf0;" horiz-adv-x="1060" d="M111 485q0 102 9.5 176.5t36.5 141t73.5 107t121 64t178.5 23.5q114 0 191 -47q-31 136 -129 240l-174 -121l-62 90l154 107q-76 62 -207 133l148 55q114 -52 182 -102l145 102l62 -90l-119 -84q120 -118 174.5 -305t54.5 -490q0 -102 -10 -175.5t-37 -140t-73 -107 t-121 -64t-179 -23.5t-178.5 23.5t-121 64t-73.5 107t-36.5 140t-9.5 175.5zM283 485q0 -74 3 -123t12.5 -93t26.5 -69.5t45 -44.5t66.5 -26.5t93.5 -7.5q66 0 109.5 12.5t71.5 36t42.5 70t19.5 101.5t5 144t-5 145t-19.5 102.5t-42.5 70.5t-71.5 36.5t-109.5 12.5 q-47 0 -82 -6t-62 -18t-44.5 -34t-29.5 -48.5t-18 -67.5t-8.5 -85.5t-2.5 -107.5z" />
<glyph unicode="&#xf1;" horiz-adv-x="1067" d="M152 0v997h149l16 -92q80 46 181 80.5t186 34.5q238 0 238 -238v-782h-168v766q0 106 -107 106q-60 0 -155.5 -33.5t-172.5 -78.5v-760h-167zM244 1288q31 32 77 51t93 19q59 0 137 -32t108 -32q80 0 138 58l24 -121q-67 -70 -170 -70q-48 1 -127.5 32.5t-117.5 31.5 q-80 0 -138 -58z" />
<glyph unicode="&#xf2;" horiz-adv-x="1060" d="M111 498q0 105 9.5 180.5t36.5 143.5t73.5 109t121 65t178.5 24t179 -24t121 -65t73 -109t37 -143.5t10 -180.5t-10 -180.5t-37 -143.5t-73 -109.5t-121 -65.5t-179 -24t-178.5 24t-121 65.5t-73.5 109.5t-36.5 143.5t-9.5 180.5zM283 498q0 -78 3 -129t13 -96.5 t26.5 -72t44.5 -45.5t66.5 -26.5t93.5 -7.5q66 0 109 12.5t71.5 36t43 71.5t19.5 106t5 151t-5 151t-19.5 105.5t-43 71.5t-71.5 36t-109 12q-55 0 -93.5 -7t-66.5 -26.5t-44.5 -45.5t-26.5 -71.5t-13 -96.5t-3 -129zM291 1282l8 158l387 -205l-29 -119z" />
<glyph unicode="&#xf3;" horiz-adv-x="1060" d="M111 498q0 105 9.5 180.5t36.5 143.5t73.5 109t121 65t178.5 24t179 -24t121 -65t73 -109t37 -143.5t10 -180.5t-10 -180.5t-37 -143.5t-73 -109.5t-121 -65.5t-179 -24t-178.5 24t-121 65.5t-73.5 109.5t-36.5 143.5t-9.5 180.5zM283 498q0 -78 3 -129t13 -96.5 t26.5 -72t44.5 -45.5t66.5 -26.5t93.5 -7.5q66 0 109 12.5t71.5 36t43 71.5t19.5 106t5 151t-5 151t-19.5 105.5t-43 71.5t-71.5 36t-109 12q-55 0 -93.5 -7t-66.5 -26.5t-44.5 -45.5t-26.5 -71.5t-13 -96.5t-3 -129zM373 1235l387 205l8 -158l-367 -166z" />
<glyph unicode="&#xf4;" horiz-adv-x="1060" d="M111 498q0 105 9.5 180.5t36.5 143.5t73.5 109t121 65t178.5 24t179 -24t121 -65t73 -109t37 -143.5t10 -180.5t-10 -180.5t-37 -143.5t-73 -109.5t-121 -65.5t-179 -24t-178.5 24t-121 65.5t-73.5 109.5t-36.5 143.5t-9.5 180.5zM217 1235l307 186l318 -188l-56 -113 l-262 144l-264 -146zM283 498q0 -78 3 -129t13 -96.5t26.5 -72t44.5 -45.5t66.5 -26.5t93.5 -7.5q66 0 109 12.5t71.5 36t43 71.5t19.5 106t5 151t-5 151t-19.5 105.5t-43 71.5t-71.5 36t-109 12q-55 0 -93.5 -7t-66.5 -26.5t-44.5 -45.5t-26.5 -71.5t-13 -96.5t-3 -129z " />
<glyph unicode="&#xf5;" horiz-adv-x="1060" d="M111 498q0 105 9.5 180.5t36.5 143.5t73.5 109t121 65t178.5 24t179 -24t121 -65t73 -109t37 -143.5t10 -180.5t-10 -180.5t-37 -143.5t-73 -109.5t-121 -65.5t-179 -24t-178.5 24t-121 65.5t-73.5 109.5t-36.5 143.5t-9.5 180.5zM242 1288q31 32 77 51t93 19 q59 0 137 -32t108 -32q80 0 138 58l24 -121q-67 -70 -170 -70q-48 1 -128 32.5t-118 31.5q-79 0 -137 -58zM283 498q0 -78 3 -129t13 -96.5t26.5 -72t44.5 -45.5t66.5 -26.5t93.5 -7.5q66 0 109 12.5t71.5 36t43 71.5t19.5 106t5 151t-5 151t-19.5 105.5t-43 71.5t-71.5 36 t-109 12q-55 0 -93.5 -7t-66.5 -26.5t-44.5 -45.5t-26.5 -71.5t-13 -96.5t-3 -129z" />
<glyph unicode="&#xf6;" horiz-adv-x="1060" d="M111 498q0 105 9.5 180.5t36.5 143.5t73.5 109t121 65t178.5 24t179 -24t121 -65t73 -109t37 -143.5t10 -180.5t-10 -180.5t-37 -143.5t-73 -109.5t-121 -65.5t-179 -24t-178.5 24t-121 65.5t-73.5 109.5t-36.5 143.5t-9.5 180.5zM256 1272q0 66 14.5 86t75.5 20 t75.5 -20t14.5 -86t-14.5 -86.5t-75.5 -20.5t-75.5 20.5t-14.5 86.5zM283 498q0 -78 3 -129t13 -96.5t26.5 -72t44.5 -45.5t66.5 -26.5t93.5 -7.5q66 0 109 12.5t71.5 36t43 71.5t19.5 106t5 151t-5 151t-19.5 105.5t-43 71.5t-71.5 36t-109 12q-55 0 -93.5 -7t-66.5 -26.5 t-44.5 -45.5t-26.5 -71.5t-13 -96.5t-3 -129zM623 1272q0 66 14.5 86t75.5 20t75.5 -20t14.5 -86t-14.5 -86.5t-75.5 -20.5t-75.5 20.5t-14.5 86.5z" />
<glyph unicode="&#xf7;" horiz-adv-x="1024" d="M121 512v131h780v-131h-780zM422 240q0 70 14.5 91t75.5 21t75.5 -21t14.5 -91t-14.5 -91.5t-75.5 -21.5t-75.5 21.5t-14.5 91.5zM422 915q0 70 14.5 91.5t75.5 21.5t75.5 -21.5t14.5 -91.5t-14.5 -91t-75.5 -21t-75.5 21t-14.5 91z" />
<glyph unicode="&#xf8;" horiz-adv-x="1060" d="M111 498q0 105 9.5 180.5t36.5 143.5t73.5 109t121 65t178.5 24q116 0 203 -33l78 139l107 -59l-80 -145q62 -62 87 -166t25 -258q0 -105 -10 -180.5t-37 -143.5t-73 -109.5t-121 -65.5t-179 -24q-115 0 -200 29l-74 -135l-106 59l77 140q-66 62 -91 166t-25 264z M283 498q0 -204 30 -275l349 633q-52 18 -132 18q-55 0 -93.5 -7t-66.5 -26.5t-44.5 -45.5t-26.5 -71.5t-13 -96.5t-3 -129zM403 137q53 -16 127 -16q66 0 109 12.5t71.5 36t43 71.5t19.5 106t5 151q0 194 -28 266z" />
<glyph unicode="&#xf9;" horiz-adv-x="1067" d="M143 215v782h168v-766q0 -106 105 -106q60 0 154.5 33.5t174.5 79.5v759h168v-997h-149l-14 92q-80 -46 -181.5 -80.5t-187.5 -34.5q-238 0 -238 238zM295 1282l8 158l387 -205l-28 -119z" />
<glyph unicode="&#xfa;" horiz-adv-x="1067" d="M143 215v782h168v-766q0 -106 105 -106q60 0 154.5 33.5t174.5 79.5v759h168v-997h-149l-14 92q-80 -46 -181.5 -80.5t-187.5 -34.5q-238 0 -238 238zM377 1235l387 205l8 -158l-366 -166z" />
<glyph unicode="&#xfb;" horiz-adv-x="1067" d="M143 215v782h168v-766q0 -106 105 -106q60 0 154.5 33.5t174.5 79.5v759h168v-997h-149l-14 92q-80 -46 -181.5 -80.5t-187.5 -34.5q-238 0 -238 238zM221 1235l307 186l318 -188l-55 -113l-263 144l-264 -146z" />
<glyph unicode="&#xfc;" horiz-adv-x="1067" d="M143 215v782h168v-766q0 -106 105 -106q60 0 154.5 33.5t174.5 79.5v759h168v-997h-149l-14 92q-80 -46 -181.5 -80.5t-187.5 -34.5q-238 0 -238 238zM260 1272q0 66 14.5 86t75.5 20t75.5 -20t14.5 -86t-14.5 -86.5t-75.5 -20.5t-75.5 20.5t-14.5 86.5zM627 1272 q0 66 14.5 86t75.5 20t75.5 -20t14.5 -86t-14.5 -86.5t-75.5 -20.5t-75.5 20.5t-14.5 86.5z" />
<glyph unicode="&#xfd;" horiz-adv-x="931" d="M20 997h185l270 -766l260 766h180l-512 -1403h-167l155 400zM309 1235l387 205l9 -158l-367 -166z" />
<glyph unicode="&#xfe;" horiz-adv-x="1073" d="M152 -420v1845l167 29v-547q59 49 142 81t160 32q52 0 95 -8.5t75 -22.5t57 -38.5t42 -49.5t29 -63.5t19 -72t10.5 -82.5t4.5 -88.5t1 -96.5q0 -67 -2.5 -117.5t-11.5 -107.5t-24.5 -98t-43 -80.5t-64.5 -63.5t-91.5 -39t-122.5 -15q-123 0 -275 31v-399zM319 154 q147 -39 267 -39q117 0 156.5 85t39.5 298q0 58 -1.5 98t-5.5 84t-12 72.5t-21.5 56t-33 42.5t-47 24.5t-63.5 9.5q-74 0 -151.5 -38.5t-127.5 -88.5v-604z" />
<glyph unicode="&#xff;" horiz-adv-x="931" d="M20 997h185l270 -766l260 766h180l-512 -1403h-167l155 400zM193 1272q0 66 14.5 86t75.5 20t75.5 -20t14.5 -86t-14.5 -86.5t-75.5 -20.5t-75.5 20.5t-14.5 86.5zM559 1272q0 66 14.5 86t75.5 20t75.5 -20t14.5 -86t-14.5 -86.5t-75.5 -20.5t-75.5 20.5t-14.5 86.5z" />
<glyph unicode="&#x152;" horiz-adv-x="1818" d="M133 745q0 89 5 158.5t19 141.5t38 125t63.5 101t94 77.5t131 47t173.5 17.5q73 0 205 -12h838v-152h-627v-444h561v-152h-561v-501h629v-152h-840q-153 -12 -205 -12q-106 0 -188 22t-136.5 55t-93 93t-59 115.5t-31.5 144t-13.5 155.5t-2.5 172zM309 748q0 -78 1 -130 t5 -112.5t11 -98.5t19.5 -81t30.5 -68.5t44 -50.5t60 -37.5t78 -20.5t99 -8q121 0 244 21v1081q-126 21 -244 21q-54 0 -97.5 -7t-77.5 -18.5t-60 -33t-44.5 -44t-31 -58.5t-20 -69.5t-11.5 -83.5t-5 -94t-1 -108z" />
<glyph unicode="&#x153;" horiz-adv-x="1667" d="M111 498q0 105 9.5 180.5t36.5 143.5t73.5 109t121 65t178.5 24q227 0 328 -139q103 139 324 139q97 0 166.5 -23t111 -61.5t65.5 -103.5t32 -135t8 -169v-86h-619v-43q0 -87 13 -141.5t45 -86t77.5 -43t118.5 -11.5q69 0 165 14.5t165 36.5l10 -141q-76 -23 -177 -37.5 t-183 -14.5q-230 0 -326 138q-109 -138 -324 -138q-104 0 -178.5 24t-121 65.5t-73.5 109.5t-36.5 143.5t-9.5 180.5zM283 498q0 -78 3 -129t13 -96.5t26.5 -72t44.5 -45.5t66.5 -26.5t93.5 -7.5q66 0 109 12.5t71.5 36t43 71.5t19.5 106t5 151t-5 151t-19.5 105.5t-43 71.5 t-71.5 36t-109 12q-55 0 -93.5 -7t-66.5 -26.5t-44.5 -45.5t-26.5 -71.5t-13 -96.5t-3 -129zM946 575h451v82q0 116 -49 170t-166 54q-123 0 -179.5 -64t-56.5 -211v-31z" />
<glyph unicode="&#x178;" horiz-adv-x="1120" d="M14 1401h189l356 -727l359 727h188l-461 -912v-489h-170v489zM287 1647q0 66 14.5 86t75.5 20t75.5 -20t14.5 -86t-14.5 -86.5t-75.5 -20.5t-75.5 20.5t-14.5 86.5zM653 1647q0 66 14.5 86t75.5 20t76 -20t15 -86t-15 -86.5t-76 -20.5t-75.5 20.5t-14.5 86.5z" />
<glyph unicode="&#x2c6;" horiz-adv-x="681" d="M29 1235l307 186l317 -188l-55 -113l-262 144l-264 -146z" />
<glyph unicode="&#x2dc;" horiz-adv-x="681" d="M53 1288q31 32 77 51t93 19q59 0 137.5 -32t108.5 -32q79 0 137 58l25 -121q-67 -70 -170 -70q-48 1 -128 32.5t-118 31.5q-79 0 -137 -58z" />
<glyph unicode="&#x2000;" horiz-adv-x="907" />
<glyph unicode="&#x2001;" horiz-adv-x="1815" />
<glyph unicode="&#x2002;" horiz-adv-x="907" />
<glyph unicode="&#x2003;" horiz-adv-x="1815" />
<glyph unicode="&#x2004;" horiz-adv-x="605" />
<glyph unicode="&#x2005;" horiz-adv-x="453" />
<glyph unicode="&#x2006;" horiz-adv-x="302" />
<glyph unicode="&#x2007;" horiz-adv-x="302" />
<glyph unicode="&#x2008;" horiz-adv-x="226" />
<glyph unicode="&#x2009;" horiz-adv-x="363" />
<glyph unicode="&#x200a;" horiz-adv-x="100" />
<glyph unicode="&#x2010;" horiz-adv-x="759" d="M113 479v146h534v-146h-534z" />
<glyph unicode="&#x2011;" horiz-adv-x="759" d="M113 479v146h534v-146h-534z" />
<glyph unicode="&#x2012;" horiz-adv-x="759" d="M113 479v146h534v-146h-534z" />
<glyph unicode="&#x2013;" horiz-adv-x="1024" d="M-8 485v136h1040v-136h-1040z" />
<glyph unicode="&#x2014;" horiz-adv-x="1705" d="M-8 485v136h1722v-136h-1722z" />
<glyph unicode="&#x2018;" horiz-adv-x="477" d="M139 1102v53q0 42 19 92l80 195q6 12 16 12q4 0 37 -12q26 -10 32.5 -14.5t6.5 -10.5q0 -8 -2 -12l-49 -145q-7 -21 -7 -29q0 -17 21 -27q15 -8 20.5 -27.5t5.5 -74.5q0 -70 -14.5 -91.5t-75.5 -21.5t-75.5 21.5t-14.5 91.5z" />
<glyph unicode="&#x2019;" horiz-adv-x="477" d="M139 1001q0 9 2 13l49 145q7 21 7 29q0 16 -21 26q-15 8 -20.5 27.5t-5.5 75.5q0 70 14.5 91.5t75.5 21.5t75.5 -21.5t14.5 -91.5v-53q0 -43 -19 -93l-80 -194q-6 -12 -16 -12q-4 0 -37 12q-27 10 -33 14t-6 10z" />
<glyph unicode="&#x201a;" horiz-adv-x="497" d="M139 -217q0 8 2 12l49 146q7 21 7 28q0 17 -21 27q-15 8 -20.5 27.5t-5.5 74.5q0 70 14.5 91.5t75.5 21.5t75.5 -21.5t14.5 -91.5v-53q0 -42 -19 -92l-80 -195q-6 -12 -16 -12q-4 0 -37 12q-26 10 -32.5 14.5t-6.5 10.5z" />
<glyph unicode="&#x201c;" horiz-adv-x="827" d="M139 1102v53q0 42 19 92l80 195q6 12 16 12q4 0 37 -12q26 -10 32.5 -14.5t6.5 -10.5q0 -8 -2 -12l-49 -145q-7 -21 -7 -29q0 -17 21 -27q15 -8 20.5 -27.5t5.5 -74.5q0 -70 -14.5 -91.5t-75.5 -21.5t-75.5 21.5t-14.5 91.5zM489 1102v53q0 42 19 92l80 195q6 12 16 12 q4 0 37 -12q26 -10 32.5 -14.5t6.5 -10.5q0 -8 -2 -12l-49 -145q-6 -18 -6 -29q0 -17 20 -27q16 -8 21.5 -27.5t5.5 -74.5q0 -70 -14.5 -91.5t-75.5 -21.5t-76 22t-15 91z" />
<glyph unicode="&#x201d;" horiz-adv-x="827" d="M139 1001q0 9 2 13l49 145q7 21 7 29q0 16 -21 26q-15 8 -20.5 27.5t-5.5 75.5q0 70 14.5 91.5t75.5 21.5t75.5 -21.5t14.5 -91.5v-53q0 -43 -19 -93l-80 -194q-6 -12 -16 -12q-4 0 -37 12q-27 10 -33 14t-6 10zM489 1001q0 7 3 13l49 145q6 18 6 29q0 16 -21 26 q-15 8 -20.5 27.5t-5.5 75.5q0 70 14.5 91.5t75.5 21.5t75.5 -21.5t14.5 -91.5v-53q0 -45 -18 -93l-80 -194q-6 -12 -17 -12q-4 0 -37 12q-27 10 -33 14t-6 10z" />
<glyph unicode="&#x201e;" horiz-adv-x="827" d="M139 -217q0 8 2 12l49 146q7 21 7 28q0 17 -21 27q-15 8 -20.5 27.5t-5.5 74.5q0 70 14.5 91.5t75.5 21.5t75.5 -21.5t14.5 -91.5v-53q0 -42 -19 -92l-80 -195q-6 -12 -16 -12q-4 0 -37 12q-26 10 -32.5 14.5t-6.5 10.5zM489 -217q0 6 3 12l49 146q6 18 6 28q0 17 -21 27 q-15 8 -20.5 27.5t-5.5 74.5q0 70 14.5 91.5t75.5 21.5t75.5 -21.5t14.5 -91.5v-53q0 -44 -18 -92l-80 -195q-6 -12 -17 -12q-4 0 -37 12q-26 10 -32.5 14.5t-6.5 10.5z" />
<glyph unicode="&#x2022;" horiz-adv-x="1024" d="M209 711q0 126 87.5 214.5t213.5 88.5t214.5 -88.5t88.5 -214.5t-88.5 -213.5t-214.5 -87.5t-213.5 87.5t-87.5 213.5z" />
<glyph unicode="&#x2026;" horiz-adv-x="1705" d="M195 98q0 70 14.5 91.5t75.5 21.5t75.5 -21.5t14.5 -91.5t-14.5 -91t-75.5 -21t-75.5 21t-14.5 91zM762 98q0 70 14.5 91.5t75.5 21.5t75.5 -21.5t14.5 -91.5t-14.5 -91t-75.5 -21t-75.5 21t-14.5 91zM1331 98q0 70 14.5 91.5t75.5 21.5t75.5 -21.5t14.5 -91.5t-14.5 -91 t-75.5 -21t-75.5 21t-14.5 91z" />
<glyph unicode="&#x202f;" horiz-adv-x="363" />
<glyph unicode="&#x2039;" horiz-adv-x="581" d="M80 430v139l319 369l103 -100l-289 -338l289 -338l-103 -101z" />
<glyph unicode="&#x203a;" horiz-adv-x="581" d="M80 162l289 338l-289 338l102 100l320 -369v-139l-320 -369z" />
<glyph unicode="&#x205f;" horiz-adv-x="453" />
<glyph unicode="&#x20ac;" d="M84 461l18 135h154v180h-172l18 135h158q5 123 30.5 210.5t79.5 153t144 97t219 31.5q175 0 328 -39l-17 -150q-135 41 -260 41q-104 0 -166 -13.5t-104 -53.5t-60 -104t-24 -173h498l-21 -135h-481v-180h465l-21 -135h-440q5 -98 21.5 -159t54.5 -103t99.5 -59 t158.5 -17q148 0 299 41l14 -148q-156 -39 -319 -39q-116 0 -200.5 22t-138.5 60t-88 101t-49.5 133t-21.5 168h-176z" />
<glyph unicode="&#x2122;" horiz-adv-x="1214" d="M82 1317v84h412v-84h-158v-451h-96v451h-158zM610 866v535h105l143 -338l143 338h105v-535h-96v332l-109 -250h-86l-110 252v-334h-95z" />
<glyph unicode="&#xe000;" horiz-adv-x="993" d="M0 0v993h993v-993h-993z" />
<glyph unicode="&#xfb01;" horiz-adv-x="1193" d="M59 858v139h156v181q0 140 72.5 208t236.5 68q97 0 185 -18l-9 -138q-99 21 -182 21q-75 0 -106 -33t-31 -112v-177h281l-27 -139h-254v-858h-166v858h-156zM866 1278q0 70 14.5 91.5t75.5 21.5t76 -22t15 -91t-15 -91t-76 -22t-75.5 21.5t-14.5 91.5zM872 0v997h166 v-997h-166z" />
<glyph unicode="&#xfb02;" horiz-adv-x="1273" d="M59 858v139h156v181q0 140 72.5 208t236.5 68q97 0 185 -18l-9 -138q-99 21 -182 21q-75 0 -106 -33t-31 -112v-177h281l-27 -139h-254v-858h-166v858h-156zM862 242v1183l168 29v-1237q0 -57 19.5 -78.5t54.5 -21.5q47 0 102 20l39 -131q-92 -29 -198 -29 q-51 0 -85.5 12t-54 31t-30 55.5t-13 72t-2.5 94.5z" />
</font>
</defs>
</svg>
