<?xml version="1.0" encoding="UTF-8"?>
<svg width="18px" height="18px" viewBox="0 0 24 24" version="1.1" xmlns="http://www.w3.org/2000/svg" xmlns:xlink="http://www.w3.org/1999/xlink">
    <!-- Generator: Sketch 48.2 (47327) - http://www.bohemiancoding.com/sketch -->
    <title>email_icon</title>
    <desc>Created with Sketch.</desc>
    <defs>
        <path d="M6,16 L6,8.956 L11.414,12.866 C11.589,12.992 11.795,13.056 12,13.056 C12.205,13.056 12.411,12.992 12.586,12.866 L18,8.956 L18,16 L6,16 Z M15.907,8 L12,10.822 L8.093,8 L15.907,8 Z M19.938,6.697 C19.917,6.631 19.889,6.571 19.854,6.512 C19.837,6.48 19.832,6.444 19.811,6.414 C19.795,6.392 19.771,6.382 19.754,6.361 C19.709,6.309 19.659,6.267 19.605,6.224 C19.555,6.185 19.505,6.147 19.448,6.118 C19.395,6.091 19.339,6.074 19.28,6.057 C19.212,6.036 19.146,6.021 19.074,6.015 C19.048,6.013 19.026,6 19,6 L5,6 C4.974,6 4.952,6.013 4.926,6.015 C4.854,6.021 4.788,6.036 4.72,6.057 C4.661,6.074 4.605,6.091 4.552,6.118 C4.495,6.147 4.445,6.185 4.395,6.224 C4.341,6.267 4.291,6.309 4.247,6.361 C4.229,6.382 4.205,6.392 4.189,6.414 C4.168,6.444 4.163,6.48 4.146,6.512 C4.111,6.571 4.083,6.63 4.062,6.696 C4.04,6.763 4.028,6.826 4.021,6.894 C4.018,6.931 4,6.962 4,7 L4,17 C4,17.553 4.447,18 5,18 L19,18 C19.553,18 20,17.553 20,17 L20,7 C20,6.962 19.982,6.931 19.979,6.894 C19.972,6.826 19.96,6.763 19.938,6.697 Z" id="path-1"></path>
    </defs>
    <g id="Icons/General/Mail" stroke="none" stroke-width="1" fill="none" fill-rule="evenodd">
        <mask id="mask-2" fill="white">
            <use xlink:href="#path-1"></use>
        </mask>
        <use id="mail" fill="#221F1F" xlink:href="#path-1"></use>
        <g id="Colours/Primary/-Blue" mask="url(#mask-2)" fill="#003B5A">
            <rect id="Rectangle" x="0" y="0" width="24" height="24"></rect>
        </g>
    </g>
</svg>