<?xml version="1.0" encoding="UTF-8"?>
<svg width="16px" height="16px" viewBox="0 0 16 16" version="1.1" xmlns="http://www.w3.org/2000/svg" xmlns:xlink="http://www.w3.org/1999/xlink">
    <!-- Generator: Sketch 49.2 (51160) - http://www.bohemiancoding.com/sketch -->
    <title>phone_icon</title>
    <desc>Created with Sketch.</desc>
    <defs>
        <path d="M14.3528721,13.022022 C15.3240919,12.1843117 16.7926643,12.2257205 17.713728,13.1467842 L19.275728,14.7087842 C20.2413549,15.6744111 20.2413549,17.2400508 19.2753151,18.2044105 L18.4192046,19.0595208 C17.3424231,20.1377555 15.6539544,20.3075026 14.3827384,19.4668127 C10.5082101,16.9026806 7.09370107,13.4881716 4.53337974,9.61629034 C3.69208173,8.34344568 3.85985428,6.65844438 4.93810174,5.58019715 L5.79574523,4.72155556 C6.76219178,3.75846473 8.32540846,3.75846473 9.28972797,4.72278424 L10.851728,6.28478424 C11.7734984,7.20655468 11.815363,8.67507325 10.9767863,9.64558151 C12.0109786,10.8364588 13.1637723,11.9894607 14.3528721,13.022022 Z M9.43683548,8.36646382 C9.62188751,8.18173126 9.62188751,7.8833709 9.43751441,7.6989978 L7.87551441,6.1369978 C7.69183392,5.95331732 7.39305061,5.95331732 7.20914064,6.13658489 L6.35272797,6.9939978 C5.94694241,7.39978337 5.88394434,8.03249614 6.20174698,8.51331675 C8.6135892,12.1606584 11.8360756,15.3831447 15.4862343,17.7987909 C15.9643636,18.1149908 16.599729,18.0511156 17.0049273,17.6453716 L17.8621301,16.7891691 C18.0458875,16.6057313 18.0458875,16.3073709 17.8615144,16.1229978 L16.2995144,14.5609978 C16.1159362,14.3774196 15.8166266,14.3774196 15.6334069,14.5603182 L15.1134069,15.0813182 C14.7500041,15.4454198 14.1696514,15.4744136 13.7717686,15.1483449 C12.0108133,13.7052256 10.2977614,11.991908 8.85134897,10.2279652 C8.52556318,9.8306598 8.55387489,9.25112242 8.91683548,8.88746382 L9.43683548,8.36646382 Z" id="path-1"></path>
    </defs>
    <g id="Mobile" stroke="none" stroke-width="1" fill="none" fill-rule="evenodd">
        <g id="XS_buy_household_package_thankYou" transform="translate(-30.000000, -716.000000)">
            <g id="content_list-[16v]" transform="translate(8.000000, 66.000000)">
                <g id="result_item_mobile-copy-2" transform="translate(2.000000, 504.000000)">
                    <g id="Group-6" transform="translate(16.000000, 142.000000)">
                        <g id="content-list-[8v]">
                            <g id="phone">
                                <g id="Icons/General/Phone">
                                    <mask id="mask-2" fill="white">
                                        <use xlink:href="#path-1"></use>
                                    </mask>
                                    <use id="Page-1" fill="#003B5A" fill-rule="nonzero" xlink:href="#path-1"></use>
                                    <g id="Colours/Primary/-Blue" mask="url(#mask-2)" fill="#003B5A" fill-rule="evenodd">
                                        <rect id="Rectangle" x="0" y="0" width="24" height="24"></rect>
                                    </g>
                                </g>
                            </g>
                        </g>
                    </g>
                </g>
            </g>
        </g>
    </g>
</svg>