<?xml version="1.0" encoding="UTF-8"?>
<svg width="18px" height="15px" viewBox="0 0 18 15" version="1.1" xmlns="http://www.w3.org/2000/svg" xmlns:xlink="http://www.w3.org/1999/xlink">
    <!-- Generator: Sketch 49.2 (51160) - http://www.bohemiancoding.com/sketch -->
    <title>twitter_icon</title>
    <desc>Created with Sketch.</desc>
    <defs></defs>
    <g id="Mobile" stroke="none" stroke-width="1" fill="none" fill-rule="evenodd">
        <g id="XS_buy_household_package_thankYou" transform="translate(-120.000000, -869.000000)" fill="#1DA1F2" fill-rule="nonzero">
            <g id="content_list-[16v]" transform="translate(8.000000, 66.000000)">
                <g id="result_item_mobile-copy-2" transform="translate(2.000000, 504.000000)">
                    <g id="Group-11" transform="translate(16.000000, 295.000000)">
                        <g id="Group-14" transform="translate(94.000000, 0.000000)">
                            <path d="M5.66064,18.6260577 C12.45312,18.6260577 16.16832,12.9985377 16.16832,8.1183777 C16.16832,7.9585377 16.16832,7.7994177 16.15752,7.6410177 C16.8802786,7.11823352 17.5041759,6.47093087 18,5.7294177 C17.3259929,6.02807498 16.6109971,6.22393433 15.87888,6.3104577 C16.6498157,5.84892478 17.2268089,5.12301353 17.50248,4.2678177 C16.7775534,4.69798553 15.9844652,5.00114636 15.15744,5.1642177 C14.0126996,3.94698158 12.1937179,3.64905876 10.7204755,4.43750725 C9.24723302,5.22595574 8.48611799,6.90469223 8.86392,8.5323777 C5.89456493,8.38351737 3.12802256,6.98101046 1.2528,4.6738977 C0.272608385,6.36132191 0.773271276,8.52003653 2.39616,9.6037377 C1.80845366,9.58631914 1.23356115,9.42777919 0.72,9.1414977 C0.72,9.1566177 0.72,9.1724577 0.72,9.1882977 C0.720481056,10.9462446 1.95966107,12.460363 3.6828,12.8084577 C3.13910611,12.9567345 2.56865802,12.9784096 2.01528,12.8718177 C2.49908251,14.3762021 3.88553368,15.4067821 5.46552,15.4364577 C4.15780923,16.4642087 2.54236285,17.0221337 0.87912,17.0204577 C0.58529057,17.0198936 0.291746927,17.0021031 0,16.9671777 C1.68885788,18.0509768 3.65393765,18.6258539 5.66064,18.6231777" id="twitter_icon"></path>
                        </g>
                    </g>
                </g>
            </g>
        </g>
    </g>
</svg>