<?xml version="1.0" standalone="no"?>
<!DOCTYPE svg PUBLIC "-//W3C//DTD SVG 20010904//EN"
 "http://www.w3.org/TR/2001/REC-SVG-20010904/DTD/svg10.dtd">
<svg version="1.0" xmlns="http://www.w3.org/2000/svg"
 width="512.000000pt" height="512.000000pt" viewBox="0 0 512.000000 512.000000"
 preserveAspectRatio="xMidYMid meet">
<metadata>
Created by potrace 1.11, written by Peter Selinger 2001-2013
</metadata>
<g transform="translate(0.000000,512.000000) scale(0.100000,-0.100000)"
fill="#000000" stroke="none">
<path d="M708 5104 c-2 -2 -13 -5 -24 -7 -29 -5 -123 -37 -153 -53 -14 -8 -30
-14 -35 -14 -5 0 -46 -25 -91 -54 -140 -94 -259 -231 -321 -372 -14 -33 -30
-68 -35 -79 -27 -59 -47 -201 -45 -319 2 -68 5 -127 8 -132 3 -5 9 -26 12 -46
8 -53 51 -162 92 -236 119 -213 308 -358 555 -426 79 -22 136 -27 289 -26 510
5 521 5 628 -24 54 -15 124 -48 196 -93 57 -37 198 -181 221 -228 11 -22 25
-47 31 -55 13 -17 59 -149 68 -195 3 -16 8 -43 12 -60 22 -112 27 -232 25
-545 -6 -717 -3 -872 14 -901 3 -4 7 -24 11 -45 8 -50 51 -199 71 -244 61
-142 154 -304 215 -375 9 -11 26 -31 38 -45 31 -36 135 -142 157 -160 10 -8
38 -31 63 -50 25 -19 47 -38 48 -42 2 -5 8 -8 13 -8 4 0 39 -19 76 -43 74 -47
215 -117 236 -117 7 0 17 -4 23 -8 9 -9 97 -37 149 -47 17 -4 37 -9 45 -12 21
-8 38 -12 95 -18 28 -3 64 -7 80 -10 64 -10 295 -5 373 9 17 3 47 8 65 11 210
36 460 152 642 299 77 62 197 184 246 251 24 33 47 62 50 65 13 11 107 178
120 213 7 20 17 37 23 37 5 0 6 3 3 7 -4 3 -3 11 2 17 13 17 68 193 82 261 57
286 36 571 -62 830 -53 139 -166 341 -223 398 -9 9 -16 18 -16 21 0 14 -142
154 -218 216 -119 96 -353 229 -432 245 -8 2 -28 9 -45 15 -16 6 -37 13 -45
15 -8 2 -35 8 -60 14 -25 7 -52 13 -60 15 -17 4 -110 17 -155 22 -16 2 -140 3
-275 2 -684 -3 -900 -2 -955 5 -125 15 -142 18 -215 38 -80 21 -197 75 -244
112 -50 39 -147 141 -177 186 -45 66 -76 132 -101 213 -21 70 -22 91 -23 458
-1 360 -3 390 -23 462 -67 243 -220 441 -432 556 -155 85 -235 103 -446 101
-89 0 -164 -3 -166 -5z"/>
</g>
</svg>
