<svg version="1" xmlns="http://www.w3.org/2000/svg" width="682.667" height="682.667" viewBox="0 0 512.000000 512.000000"><path d="M406.8 2.5c-3.2.7-5.8 1-5.8.8 0-.2-.9.1-2.1.7-1.1.6-3 1.3-4.2 1.5-1.2.3-3.1.9-4.2 1.4-18.8 8.6-28.1 15.6-39.8 30.2-4.4 5.5-14.1 25.5-13.8 28.6 0 .2-.5 1.7-1 3.5-2.3 8.3-2.4 10.6-1.7 59.8.3 21.3-1.5 30.9-7.8 43.5-10.1 20-28.4 34.1-50.4 38.9-1.4.3-2.9.6-3.5.7-14.6 3.3-20.5 3.5-103.5 2.8-31-.2-37.6.1-47.5 2-9.1 1.8-26.3 6.8-28 8.1-.5.5-1.3.9-1.7 1-4.6.8-21.5 10.3-31.8 17.8-6.8 5-22.5 19.9-27.5 26.2-4.7 5.9-12.8 18.7-16.4 25.8-5.6 11.2-11.5 28-12.6 35.9-.4 2.1-.9 4.7-1.2 5.8-1.7 5.7-2.6 38.8-1.2 44 .4 1.6 1 4.8 1.3 7 .3 2.2.8 5 1.1 6.3.3 1.2.7 3.2 1 4.4 1.1 5 6.9 21.3 7.6 21.6.5.2.9.9.9 1.7 0 1.4 5.1 11.6 9.5 18.9 6.5 10.7 21.6 28 31.4 35.9 10.7 8.6 27.2 18.5 37.6 22.5 2.8 1 5.9 2.2 7 2.7 2.5 1 2.5 1 11.5 3.5 9.8 2.7 13 3.3 25 4.5 5.1.6 26.1.6 29 0 1.4-.2 4.5-.7 7-.9 2.5-.3 5.4-.7 6.5-1 13-2.9 21.2-5.3 23.1-6.7.6-.5 1.3-.7 1.6-.4 1.2 1.2 29.6-14.4 37.2-20.5 14.8-11.8 26.9-25 35.3-38.4 9.7-15.5 19.1-39.4 20.8-53.1.2-1.7.7-4.4 1.1-6 .4-1.7.8-30.7.8-64.5.1-33.8.5-63.8.9-66.5 2-11.6 2.6-14.3 4.4-20.5.9-3 1.7-5.7 1.8-6 0-.3 1-2.6 2.2-5.2 7.7-16.9 25-32.4 43.2-38.7 10-3.4 17.2-3.9 50.1-3.5 24.3.3 32.1 0 38.5-1.2 37.9-7.2 66.6-37.2 72-75.2.8-5.5.9-19.8.1-23.7-.8-4.4-2.4-11.7-2.9-14-1-4-6.7-16.6-8.7-19.4-1.1-1.6-2-3.2-2-3.7 0-2.5-14.2-17.3-22.1-23C464.5 11 458.6 8.1 446 4.3c-10.2-3-29.7-3.9-39.2-1.8z"/></svg>